<svg id="Layer_6" data-name="Layer 6" xmlns="http://www.w3.org/2000/svg" xmlns:xlink="http://www.w3.org/1999/xlink" viewBox="0 0 500.08 493.25"><defs><style>.cls-1,.cls-2,.cls-3,.cls-4,.cls-5,.cls-6,.cls-7{fill:#434343;}.cls-1{filter:url(#filter);}.cls-2{filter:url(#filter-2);}.cls-3{filter:url(#filter-3);}.cls-4{filter:url(#filter-4);}.cls-5{filter:url(#filter-5);}.cls-6{filter:url(#filter-6);}.cls-7{filter:url(#filter-7);}</style><filter id="filter" x="21.75" y="0" width="202.8" height="191.04" filterUnits="userSpaceOnUse"><feOffset input="SourceAlpha"/><feGaussianBlur stdDeviation="8" result="blur"/><feFlood/><feComposite operator="in" in2="blur"/><feComposite in="SourceGraphic"/></filter><filter id="filter-2" x="148.65" y="76.7" width="202.8" height="191.04" filterUnits="userSpaceOnUse"><feOffset input="SourceAlpha"/><feGaussianBlur stdDeviation="8" result="blur-2"/><feFlood/><feComposite operator="in" in2="blur-2"/><feComposite in="SourceGraphic"/></filter><filter id="filter-3" x="21.75" y="149.1" width="202.8" height="191.04" filterUnits="userSpaceOnUse"><feOffset input="SourceAlpha"/><feGaussianBlur stdDeviation="8" result="blur-3"/><feFlood/><feComposite operator="in" in2="blur-3"/><feComposite in="SourceGraphic"/></filter><filter id="filter-4" x="275.54" y="151.7" width="202.8" height="191.04" filterUnits="userSpaceOnUse"><feOffset input="SourceAlpha"/><feGaussianBlur stdDeviation="8" result="blur-4"/><feFlood/><feComposite operator="in" in2="blur-4"/><feComposite in="SourceGraphic"/></filter><filter id="filter-5" x="275.54" y="2" width="202.8" height="191.04" filterUnits="userSpaceOnUse"><feOffset input="SourceAlpha"/><feGaussianBlur stdDeviation="8" result="blur-5"/><feFlood/><feComposite operator="in" in2="blur-5"/><feComposite in="SourceGraphic"/></filter><filter id="filter-6" x="148.48" y="227.92" width="203.04" height="191.04" filterUnits="userSpaceOnUse"><feOffset input="SourceAlpha"/><feGaussianBlur stdDeviation="8" result="blur-6"/><feFlood/><feComposite operator="in" in2="blur-6"/><feComposite in="SourceGraphic"/></filter><filter id="filter-7" x="21.59" y="302.21" width="203.04" height="191.04" filterUnits="userSpaceOnUse"><feOffset input="SourceAlpha"/><feGaussianBlur stdDeviation="8" result="blur-7"/><feFlood/><feComposite operator="in" in2="blur-7"/><feComposite in="SourceGraphic"/></filter></defs><path class="cls-1" d="M81.17,162,46.93,99.89a9.23,9.23,0,0,1,0-8.94L81.17,28.81A9.26,9.26,0,0,1,89.28,24H157a9.26,9.26,0,0,1,8.11,4.79L199.37,91a9.28,9.28,0,0,1,0,8.94L165.13,162a9.24,9.24,0,0,1-8.11,4.79H89.28A9.24,9.24,0,0,1,81.17,162Z"/><path class="cls-2" d="M208.06,238.72l-34.24-62.13a9.28,9.28,0,0,1,0-8.94l34.24-62.13a9.25,9.25,0,0,1,8.11-4.8h67.74a9.25,9.25,0,0,1,8.11,4.8l34.24,62.13a9.23,9.23,0,0,1,0,8.94L292,238.72a9.25,9.25,0,0,1-8.11,4.8H216.17A9.25,9.25,0,0,1,208.06,238.72Z"/><path class="cls-3" d="M81.17,311.12,46.93,249a9.23,9.23,0,0,1,0-8.94l34.24-62.14a9.26,9.26,0,0,1,8.11-4.79H157a9.26,9.26,0,0,1,8.11,4.79l34.24,62.14a9.28,9.28,0,0,1,0,8.94l-34.24,62.13a9.24,9.24,0,0,1-8.11,4.79H89.28A9.24,9.24,0,0,1,81.17,311.12Z"/><path class="cls-4" d="M335,313.72l-34.24-62.13a9.28,9.28,0,0,1,0-8.94L335,180.52a9.27,9.27,0,0,1,8.11-4.8H410.8a9.24,9.24,0,0,1,8.11,4.8l34.24,62.13a9.23,9.23,0,0,1,0,8.94l-34.24,62.13a9.24,9.24,0,0,1-8.11,4.8H343.06A9.27,9.27,0,0,1,335,313.72Z"/><path class="cls-5" d="M335,164l-34.24-62.13a9.28,9.28,0,0,1,0-8.94L335,30.81A9.28,9.28,0,0,1,343.06,26H410.8a9.25,9.25,0,0,1,8.11,4.79L453.15,93a9.23,9.23,0,0,1,0,8.94L418.91,164a9.23,9.23,0,0,1-8.11,4.79H343.06A9.26,9.26,0,0,1,335,164Z"/><path class="cls-6" d="M208.06,390.14,173.82,328a9.28,9.28,0,0,1,0-8.94l34.24-62.14a9.26,9.26,0,0,1,8.11-4.79h67.74a9.26,9.26,0,0,1,8.11,4.79l34.24,62.14a9.23,9.23,0,0,1,0,8.94L292,390.14a9.24,9.24,0,0,1-8.11,4.79H216.17A9.24,9.24,0,0,1,208.06,390.14Z"/><path class="cls-7" d="M81.17,464.43,46.93,402.29a9.23,9.23,0,0,1,0-8.94l34.24-62.13a9.24,9.24,0,0,1,8.11-4.79H157a9.24,9.24,0,0,1,8.11,4.79l34.24,62.13a9.28,9.28,0,0,1,0,8.94l-34.24,62.14a9.26,9.26,0,0,1-8.11,4.79H89.28A9.26,9.26,0,0,1,81.17,464.43Z"/></svg>