<svg xmlns="http://www.w3.org/2000/svg" viewBox="0 0 1001 1001"><defs><style>.cls-1{fill:none;stroke:#434343;stroke-miterlimit:10;}.cls-2{fill:#00afd9;}.cls-3{fill:#fff;}</style></defs><g id="Base"><line class="cls-1" x1="0.5" y1="1000.5" x2="36.86" y2="1000.5"/><line class="cls-1" x1="0.5" y1="1000.5" x2="0.5" y2="964.14"/><line class="cls-1" x1="1000.5" y1="0.5" x2="964.14" y2="0.5"/><line class="cls-1" x1="1000.5" y1="0.5" x2="1000.5" y2="36.86"/></g><g id="Level20"><path class="cls-2" d="M369.84,379.85a12.89,12.89,0,0,1,11-12.58v-.35a11.3,11.3,0,0,1-9.15-11.29c0-7.87,7.53-13.69,17.85-13.69s17.84,5.82,17.87,13.69a11.43,11.43,0,0,1-9.15,11.29v.35a13,13,0,0,1,11,12.58c0,8.25-8.28,14.39-19.76,14.39S369.81,388.1,369.84,379.85Zm28.29-.85c0-4.4-3.63-7.58-8.55-7.58S381,374.6,381,379s3.44,7.33,8.56,7.33S398.13,383.33,398.13,379Zm-1.2-22.25c0-3.95-3-6.71-7.35-6.71s-7.36,2.74-7.36,6.71,3.06,6.84,7.36,6.84S396.93,360.78,396.93,356.75Z"/><path class="cls-2" d="M416.35,379.15h10.83c.2,3.73,3.76,6.21,8.51,6.21,4.92,0,8.4-2.78,8.37-6.83s-3.58-7-9.34-7H430v-7.9h4.75c4.89,0,8.3-2.71,8.27-6.71,0-3.83-2.88-6.47-7.23-6.47s-7.95,2.52-8.08,6.39H417.37c.15-8.8,8-14.91,18.44-14.91s17.57,6.31,17.55,14.34c0,5.72-3.9,9.74-9.6,10.76v.4c7.49.95,11.51,5.47,11.49,11.81,0,8.7-8.16,15-19.59,15C424.48,394.24,416.52,388.05,416.35,379.15Z"/><path class="cls-2" d="M481.72,355.41h34.33v8.83H481.72Zm0,16.51h34.33v8.82H481.72Z"/><path class="cls-2" d="M542.27,376.12l21.25-33.49H577V376h6.31v8.62H577v9H566.71v-9H542.27Zm24.63-21.75h-.39l-13.4,21.2v.4H566.9Z"/><path class="cls-2" d="M589.9,368.14c0-16.68,7.78-26.2,20.55-26.2S631,351.48,631,368.14s-7.76,26.52-20.56,26.52S589.85,384.87,589.9,368.14Zm30.12,0c0-11.56-3.77-17.38-9.57-17.38s-9.57,5.82-9.59,17.38c0,11.73,3.75,17.6,9.59,17.6S620.05,379.87,620,368.14Z"/><path class="cls-2" d="M370.58,469.79,388.71,453c4.62-4.45,7.1-7.24,7.1-11.29,0-4.47-3.33-7.26-7.8-7.26-4.65,0-7.73,3-7.71,7.86H370.09c0-10,7.31-16.38,18-16.38,10.92,0,18.12,6.24,18.12,15.06,0,5.79-2.8,10.57-13.27,20.11l-7.43,7.28v.35h21.38v8.8h-36.3Z"/><path class="cls-2" d="M437.8,435.78v-.35H413.21v-8.8h35.72v8.93l-21.12,42H416.69Z"/><path class="cls-2" d="M475,439.41h34.33v8.83H475Zm0,16.51h34.33v8.82H475Z"/><path class="cls-2" d="M558.5,477.54H547.74V436.85h-.3l-11.66,7.31v-9.55l12.61-8H558.5Z"/><path class="cls-2" d="M570.61,469.79,588.73,453c4.62-4.45,7.11-7.24,7.11-11.29,0-4.47-3.34-7.26-7.81-7.26-4.65,0-7.73,3-7.7,7.86H570.11c0-10,7.31-16.38,18-16.38,10.91,0,18.12,6.24,18.12,15.06,0,5.79-2.81,10.57-13.28,20.11l-7.43,7.28v.35H606.9v8.8H570.61Z"/><path class="cls-2" d="M392.73,561.54H382V520.85h-.3L370,528.16v-9.55l12.61-8h10.11Z"/><path class="cls-2" d="M443.59,534.77c0,17.28-8.1,27.47-20.71,27.47-10.19,0-17.15-6.49-18.14-15.07h10.61c.82,3.71,3.63,5.85,7.53,5.85,6.64,0,10.14-6.14,10.17-16.24h-.35c-2.26,4.48-7.23,7.19-12.82,7.19-9,0-15.61-6.89-15.64-16.38-.05-10.24,7.63-17.7,19-17.65C433.72,510,443.56,516.33,443.59,534.77Zm-28.91-7.48c0,5,3.58,8.87,8.55,8.87a8.89,8.89,0,0,0,.1-17.77A8.58,8.58,0,0,0,414.68,527.29Z"/><path class="cls-2" d="M469.76,523.41h34.33v8.83H469.76Zm0,16.51h34.33v8.82H469.76Z"/><path class="cls-2" d="M530.34,547.85a12.89,12.89,0,0,1,11-12.58v-.35a11.3,11.3,0,0,1-9.15-11.29c0-7.87,7.53-13.69,17.85-13.69s17.84,5.82,17.87,13.69a11.43,11.43,0,0,1-9.15,11.29v.35a13,13,0,0,1,11,12.58c0,8.25-8.28,14.39-19.76,14.39S530.31,556.1,530.34,547.85Zm28.29-.85c0-4.4-3.63-7.58-8.55-7.58s-8.55,3.18-8.55,7.58,3.43,7.33,8.55,7.33S558.63,551.33,558.63,547Zm-1.2-22.25c0-4-3-6.71-7.35-6.71s-7.36,2.74-7.36,6.71,3.06,6.84,7.36,6.84S557.43,528.78,557.43,524.75Z"/><path class="cls-2" d="M409.34,618.77c0,17.28-8.11,27.47-20.71,27.47-10.19,0-17.15-6.49-18.14-15.07H381.1c.82,3.71,3.63,5.85,7.53,5.85,6.64,0,10.14-6.14,10.17-16.24h-.35c-2.26,4.48-7.23,7.19-12.83,7.19-9,0-15.61-6.89-15.63-16.38-.05-10.24,7.63-17.7,19-17.65C399.47,594,409.31,600.33,409.34,618.77Zm-28.91-7.48c0,5,3.58,8.87,8.55,8.87a8.89,8.89,0,0,0,.1-17.77A8.58,8.58,0,0,0,380.43,611.29Z"/><path class="cls-2" d="M438.94,645.54H428.18V604.85h-.3l-11.66,7.31v-9.55l12.6-8h10.12Z"/><path class="cls-2" d="M469.76,607.41h34.33v8.83H469.76Zm0,16.51h34.33v8.82H469.76Z"/><path class="cls-3" d="M540.28,629.43c0-8.7,2.36-11.36,6.54-14,3.06-1.94,5.42-4.1,5.42-7.36,0-3.45-2.71-5.69-6.07-5.69a6.18,6.18,0,0,0-6.41,6.21H529.62c.22-9.94,7.58-14.66,16.6-14.66,9.87,0,16.88,5.07,16.88,13.77,0,5.84-3,9.49-7.68,12.25-3.93,2.37-5.67,4.63-5.72,9.47v.85h-9.42Zm-1.07,10.79a6,6,0,0,1,6-5.91,5.94,5.94,0,1,1,0,11.88A6,6,0,0,1,539.21,640.22Z"/></g></svg>