<svg xmlns="http://www.w3.org/2000/svg" viewBox="0 0 1001 1001"><defs><style>.cls-1,.cls-3{fill:none;stroke-miterlimit:10;}.cls-1{stroke:#434343;}.cls-2{fill:#00afd9;}.cls-3{stroke:#00afd9;stroke-width:5px;}.cls-4{fill:#fff;}</style></defs><g id="Base"><line class="cls-1" x1="0.5" y1="1000.5" x2="36.86" y2="1000.5"/><line class="cls-1" x1="0.5" y1="1000.5" x2="0.5" y2="964.14"/><line class="cls-1" x1="1000.5" y1="0.5" x2="964.14" y2="0.5"/><line class="cls-1" x1="1000.5" y1="0.5" x2="1000.5" y2="36.86"/></g><g id="Level28"><path class="cls-2" d="M192.2,165.92c0,17.27-8.1,27.46-20.7,27.46-10.2,0-17.16-6.48-18.15-15.06H164c.82,3.7,3.63,5.84,7.54,5.84,6.63,0,10.14-6.14,10.16-16.23h-.35c-2.26,4.48-7.23,7.18-12.82,7.18-9,0-15.61-6.88-15.64-16.38,0-10.24,7.63-17.69,19-17.64C182.33,141.14,192.18,147.47,192.2,165.92Zm-28.91-7.48c0,5,3.58,8.87,8.55,8.87a8.89,8.89,0,0,0,.1-17.77A8.58,8.58,0,0,0,163.29,158.44Z"/><path class="cls-2" d="M387.24,192.69H376.48V152h-.3l-11.65,7.31v-9.55l12.6-8h10.11Z"/><path class="cls-2" d="M399.35,184.93l18.12-16.77c4.62-4.45,7.11-7.24,7.11-11.29,0-4.47-3.33-7.26-7.81-7.26-4.64,0-7.73,3-7.7,7.86H398.85c0-10,7.31-16.38,18-16.38,10.91,0,18.12,6.24,18.12,15.06,0,5.79-2.81,10.56-13.27,20.11l-7.44,7.28v.35h21.38v8.8H399.35Z"/><path class="cls-2" d="M179.13,438.43H168.36V397.74h-.3l-11.65,7.31V395.5l12.6-8h10.12Z"/><path class="cls-2" d="M190.49,424.73a12.89,12.89,0,0,1,11-12.57v-.35a11.31,11.31,0,0,1-9.15-11.29c0-7.87,7.54-13.69,17.85-13.69s17.85,5.82,17.87,13.69A11.41,11.41,0,0,1,219,411.81v.35a13,13,0,0,1,11,12.57c0,8.26-8.27,14.4-19.76,14.4S190.46,433,190.49,424.73Zm28.28-.84c0-4.4-3.63-7.58-8.55-7.58s-8.55,3.18-8.55,7.58,3.43,7.33,8.55,7.33S218.77,428.21,218.77,423.89Zm-1.19-22.25c0-3.95-3-6.71-7.36-6.71s-7.36,2.74-7.36,6.71,3.06,6.84,7.36,6.84S217.58,405.67,217.58,401.64Z"/><path class="cls-2" d="M390.77,438.43H380V397.74h-.3l-11.66,7.31V395.5l12.61-8h10.11Z"/><path class="cls-2" d="M403.05,424h10.44c.25,3.95,3.71,6.64,8,6.64,5,0,8.65-3.66,8.65-8.95s-3.68-9.05-8.8-9.08a9.66,9.66,0,0,0-7.6,3.43l-9.57-1.71,2.41-26.85h31.12v8.8H415.43l-1.32,12.76h.3c1.79-2.52,5.64-4.38,10.12-4.38,9.17,0,16,7,16,16.75,0,10.29-7.68,17.68-19,17.68C410.93,439.13,403.25,432.84,403.05,424Z"/><path class="cls-2" d="M620.39,193.38H609.63V152.69h-.3L597.67,160v-9.54l12.6-8h10.12Z"/><path class="cls-2" d="M631.7,169.07c0-17.1,8.13-27.29,20.7-27.29,10.17,0,17.13,6.54,18.15,14.91H659.94c-.82-3.55-3.63-5.69-7.54-5.69-6.63,0-10.11,6.17-10.16,16.08h.34c2.29-4.49,7.24-7.18,12.83-7.18,9,0,15.69,6.89,15.66,16.43,0,10.37-7.7,17.8-19,17.75C641.57,194,631.67,187.72,631.7,169.07Zm28.93,7.56a8.54,8.54,0,0,0-8.57-8.95,8.8,8.8,0,0,0-8.73,9,8.66,8.66,0,1,0,17.3,0Z"/><path class="cls-2" d="M809.89,185.63,828,168.85c4.62-4.45,7.11-7.23,7.11-11.29,0-4.47-3.33-7.25-7.81-7.25-4.65,0-7.73,3-7.7,7.85H809.39c0-10,7.31-16.38,18-16.38,10.91,0,18.12,6.24,18.12,15.06,0,5.8-2.81,10.57-13.28,20.11l-7.43,7.29v.34h21.38v8.8H809.89Z"/><path class="cls-2" d="M853.39,168c0-16.68,7.78-26.2,20.55-26.2s20.59,9.55,20.56,26.2-7.75,26.52-20.56,26.52S853.34,184.71,853.39,168Zm30.12,0c0-11.56-3.77-17.38-9.57-17.38s-9.57,5.82-9.59,17.38c0,11.73,3.75,17.6,9.59,17.6S883.54,179.71,883.51,168Z"/><path class="cls-2" d="M601.77,431.37l18.12-16.78c4.62-4.45,7.11-7.23,7.11-11.28,0-4.48-3.33-7.26-7.8-7.26-4.65,0-7.74,3-7.71,7.85H601.27c0-10,7.31-16.38,18-16.38,10.91,0,18.12,6.24,18.12,15.07,0,5.79-2.81,10.56-13.27,20.11L616.68,430v.35h21.38v8.8H601.77Z"/><path class="cls-2" d="M645.12,425.43a12.91,12.91,0,0,1,11-12.58v-.35A11.3,11.3,0,0,1,647,401.22c0-7.88,7.53-13.7,17.85-13.7s17.84,5.82,17.87,13.7a11.43,11.43,0,0,1-9.15,11.28v.35a13,13,0,0,1,11,12.58c0,8.25-8.28,14.39-19.76,14.39S645.1,433.68,645.12,425.43Zm28.29-.85c0-4.4-3.63-7.58-8.55-7.58s-8.55,3.18-8.55,7.58,3.43,7.34,8.55,7.34S673.41,428.91,673.41,424.58Zm-1.2-22.24c0-3.95-3-6.71-7.35-6.71s-7.36,2.73-7.36,6.71,3.06,6.83,7.36,6.83S672.21,406.36,672.21,402.34Z"/><path class="cls-2" d="M813.42,431.37l18.12-16.78c4.62-4.45,7.11-7.23,7.11-11.28,0-4.48-3.33-7.26-7.81-7.26-4.65,0-7.73,3-7.7,7.85H812.92c0-10,7.31-16.38,18-16.38,10.91,0,18.12,6.24,18.12,15.07,0,5.79-2.81,10.56-13.28,20.11L828.33,430v.35h21.38v8.8H813.42Z"/><path class="cls-2" d="M855.65,421.7l21.25-33.48h13.47v33.33h6.32v8.63h-6.32v8.95H880.08v-8.95H855.65ZM880.28,400h-.4l-13.39,21.2v.4h13.79Z"/><path class="cls-2" d="M368.65,610.63l18.12-16.78c4.62-4.45,7.11-7.23,7.11-11.28,0-4.48-3.33-7.26-7.8-7.26-4.65,0-7.74,3-7.71,7.85H368.15c0-10,7.31-16.38,18-16.38,10.91,0,18.12,6.24,18.12,15.07,0,5.79-2.81,10.56-13.27,20.11l-7.44,7.28v.35h21.38v8.79H368.65Z"/><path class="cls-2" d="M412.92,604h10.44c.25,4,3.7,6.64,8,6.64,5.05,0,8.65-3.65,8.65-9s-3.68-9-8.8-9.07a9.69,9.69,0,0,0-7.61,3.43L414,594.32l2.42-26.84h31.12v8.8H425.3L424,589h.3c1.79-2.51,5.64-4.38,10.12-4.38,9.17,0,16,7,16,16.76,0,10.29-7.68,17.67-19,17.67C420.8,619.08,413.12,612.79,412.92,604Z"/><path class="cls-2" d="M579.8,604h10.84c.2,3.73,3.75,6.22,8.5,6.22,4.92,0,8.4-2.79,8.38-6.84s-3.58-7-9.35-7h-4.75v-7.91h4.75c4.9,0,8.3-2.71,8.28-6.71,0-3.83-2.89-6.46-7.24-6.46s-8,2.51-8.07,6.39H580.82c.15-8.8,8-14.92,18.44-14.92s17.58,6.32,17.55,14.34c0,5.72-3.9,9.75-9.59,10.77v.4c7.48.94,11.51,5.46,11.48,11.8,0,8.7-8.15,15-19.59,15C587.93,619.08,580,612.89,579.8,604Z"/><path class="cls-2" d="M625.86,593c0-16.68,7.78-26.2,20.56-26.2S667,576.33,667,593s-7.75,26.52-20.55,26.52S625.81,609.71,625.86,593ZM656,593c0-11.56-3.78-17.37-9.57-17.37s-9.57,5.81-9.6,17.37c0,11.73,3.76,17.6,9.6,17.6S656,604.71,656,593Z"/><path class="cls-2" d="M371.41,846.7l21.25-33.48h13.47v33.33h6.32v8.63h-6.32v9H395.84v-9H371.41ZM396,825h-.4l-13.39,21.21v.39H396Z"/><path class="cls-2" d="M419,838.72c0-16.68,7.78-26.19,20.55-26.19s20.58,9.54,20.56,26.19-7.76,26.53-20.56,26.53S419,855.45,419,838.72Zm30.12,0c0-11.55-3.78-17.37-9.57-17.37S430,827.17,430,838.72c0,11.74,3.75,17.6,9.59,17.6S449.19,850.46,449.16,838.72Z"/><rect class="cls-3" x="209.13" y="217.17" width="151.84" height="151.84"/><rect class="cls-3" x="656.45" y="217.86" width="151.84" height="151.84"/><rect class="cls-3" x="420.29" y="641.02" width="151.84" height="151.84"/><path class="cls-4" d="M595.18,845.11c0-8.7,2.37-11.36,6.54-14,3.06-1.94,5.42-4.1,5.42-7.36,0-3.46-2.71-5.69-6.06-5.69a6.18,6.18,0,0,0-6.42,6.21H584.52c.22-9.94,7.58-14.66,16.6-14.66,9.87,0,16.88,5.07,16.88,13.77,0,5.84-3,9.49-7.68,12.25-3.93,2.36-5.67,4.62-5.72,9.47V846h-9.42Zm-1.06,10.79a5.93,5.93,0,0,1,6-5.92,5.95,5.95,0,1,1,0,11.89A6,6,0,0,1,594.12,855.9Z"/></g></svg>