<svg xmlns="http://www.w3.org/2000/svg" viewBox="0 0 1001 1001"><defs><style>.cls-1{fill:none;stroke:#434343;stroke-miterlimit:10;}.cls-2{fill:#00afd9;}.cls-3{fill:#fff;}</style></defs><g id="Base"><line class="cls-1" x1="0.5" y1="1000.5" x2="36.86" y2="1000.5"/><line class="cls-1" x1="0.5" y1="1000.5" x2="0.5" y2="964.14"/><line class="cls-1" x1="1000.5" y1="0.5" x2="964.14" y2="0.5"/><line class="cls-1" x1="1000.5" y1="0.5" x2="1000.5" y2="36.86"/></g><g id="Level8"><path class="cls-2" d="M307.76,512.33l18.12-16.78c4.62-4.45,7.11-7.23,7.11-11.28,0-4.48-3.33-7.26-7.81-7.26-4.64,0-7.73,3-7.7,7.86H307.26c0-10,7.31-16.39,18-16.39,10.91,0,18.12,6.24,18.12,15.07,0,5.79-2.81,10.56-13.27,20.11l-7.44,7.28v.35h21.38v8.8H307.76Z"/><path class="cls-2" d="M363.19,515.86c-.67,6.59-3.5,13.65-4.7,16.66h-6.86c.72-2.91,2.66-9.85,3-16.61l.12-2.78h8.75Z"/><path class="cls-2" d="M386.13,502.66l21.26-33.48h13.47v33.33h6.31v8.63h-6.31v9H410.57v-9H386.13Zm24.64-21.75h-.4L397,502.12v.39h13.8Z"/><path class="cls-2" d="M444.75,515.86c-.68,6.59-3.51,13.65-4.7,16.66h-6.86c.72-2.91,2.66-9.85,3-16.61l.12-2.78H445Z"/><path class="cls-2" d="M467.71,506.39a12.92,12.92,0,0,1,11-12.58v-.34a11.32,11.32,0,0,1-9.15-11.29c0-7.88,7.53-13.7,17.85-13.7s17.85,5.82,17.87,13.7a11.44,11.44,0,0,1-9.15,11.29v.34a13,13,0,0,1,11,12.58c0,8.25-8.28,14.39-19.76,14.39S467.69,514.64,467.71,506.39Zm28.29-.84c0-4.4-3.63-7.59-8.55-7.59s-8.55,3.19-8.55,7.59,3.43,7.33,8.55,7.33S496,509.87,496,505.55Zm-1.19-22.25c0-3.95-3-6.71-7.36-6.71s-7.36,2.73-7.36,6.71,3.06,6.83,7.36,6.83S494.81,487.33,494.81,483.3Z"/><path class="cls-2" d="M524.59,515.86c-.67,6.59-3.51,13.65-4.7,16.66H513c.72-2.91,2.66-9.85,3-16.61l.12-2.78h8.75Z"/><path class="cls-2" d="M570.45,520.09H559.68V479.4h-.29l-11.66,7.3v-9.54l12.6-8h10.12Z"/><path class="cls-2" d="M581.76,495.78c0-17.1,8.13-27.3,20.7-27.3,10.17,0,17.13,6.54,18.15,14.92H610c-.82-3.56-3.62-5.69-7.53-5.69-6.63,0-10.11,6.16-10.16,16.08h.34c2.29-4.5,7.24-7.19,12.83-7.19,9,0,15.69,6.89,15.66,16.44,0,10.36-7.71,17.79-19,17.74C591.63,520.73,581.73,514.42,581.76,495.78Zm28.93,7.55a8.53,8.53,0,0,0-8.57-8.94,8.79,8.79,0,0,0-8.73,9,8.66,8.66,0,1,0,17.3,0Z"/><path class="cls-2" d="M638,515.86c-.67,6.59-3.51,13.65-4.7,16.66h-6.86c.72-2.91,2.66-9.85,3-16.61l.12-2.78h8.75Z"/><path class="cls-3" d="M670.92,504c0-8.7,2.36-11.36,6.54-14,3-1.94,5.42-4.11,5.42-7.36,0-3.46-2.71-5.69-6.07-5.69a6.18,6.18,0,0,0-6.41,6.21H660.26c.22-9.94,7.58-14.67,16.6-14.67,9.87,0,16.88,5.08,16.88,13.78,0,5.84-3,9.49-7.68,12.25-3.93,2.36-5.67,4.62-5.72,9.47v.85h-9.42Zm-1.07,10.79a5.94,5.94,0,0,1,6-5.92,5.94,5.94,0,1,1,0,11.88A6,6,0,0,1,669.85,514.77Z"/></g></svg>