<svg xmlns="http://www.w3.org/2000/svg" viewBox="0 0 1001 1001"><defs><style>.cls-1,.cls-3{fill:none;stroke-miterlimit:10;}.cls-1{stroke:#434343;}.cls-2{fill:#00afd9;}.cls-3{stroke:#00afd9;stroke-width:5px;}.cls-4{fill:#fff;}</style></defs><g id="Base"><line class="cls-1" x1="0.5" y1="1000.5" x2="36.86" y2="1000.5"/><line class="cls-1" x1="0.5" y1="1000.5" x2="0.5" y2="964.14"/><line class="cls-1" x1="1000.5" y1="0.5" x2="964.14" y2="0.5"/><line class="cls-1" x1="1000.5" y1="0.5" x2="1000.5" y2="36.86"/></g><g id="Level6"><path class="cls-2" d="M206.85,340.35h10.44c.25,3.95,3.7,6.64,8,6.64,5,0,8.65-3.66,8.65-8.95s-3.68-9.05-8.8-9.08a9.69,9.69,0,0,0-7.61,3.43l-9.57-1.71,2.41-26.85h31.12v8.8H219.23l-1.32,12.76h.3c1.79-2.52,5.64-4.38,10.11-4.38,9.18,0,16,7,16,16.75,0,10.29-7.68,17.68-19,17.68C214.73,355.44,207.05,349.15,206.85,340.35Z"/><path class="cls-2" d="M312.13,232.33l21.26-33.48h13.47v33.33h6.31v8.63h-6.31v8.94H336.57v-8.94H312.13Zm24.64-21.75h-.4L323,231.78v.4h13.8Z"/><path class="cls-2" d="M313.54,347l18.12-16.78c4.62-4.45,7.11-7.24,7.11-11.29,0-4.47-3.33-7.26-7.81-7.26-4.65,0-7.73,3-7.7,7.86H313c0-10,7.31-16.38,18-16.38,10.91,0,18.12,6.24,18.12,15.06,0,5.79-2.81,10.57-13.28,20.11l-7.43,7.28v.35h21.38v8.8H313.54Z"/><path class="cls-2" d="M205.58,249.75H194.82V209.06h-.3l-11.65,7.31v-9.54l12.6-8h10.11Z"/><path class="cls-2" d="M217.09,224.35c0-16.68,7.78-26.2,20.56-26.2s20.58,9.55,20.56,26.2-7.76,26.52-20.56,26.52S217,241.08,217.09,224.35Zm30.13,0c0-11.56-3.78-17.37-9.57-17.37s-9.57,5.81-9.59,17.37c0,11.73,3.75,17.6,9.59,17.6S247.24,236.08,247.22,224.35Z"/><line class="cls-3" x1="277.69" y1="174.08" x2="277.69" y2="370.83"/><line class="cls-3" x1="179.31" y1="272.45" x2="376.06" y2="272.45"/><path class="cls-2" d="M623.65,337.13l21.26-33.48h13.47V337h6.31v8.62h-6.31v8.95H648.09V345.6H623.65Zm24.64-21.75h-.4l-13.4,21.2v.4h13.8Z"/><path class="cls-2" d="M732.86,225.26c0-17.1,8.13-27.3,20.71-27.3,10.16,0,17.12,6.54,18.14,14.92H761.1c-.82-3.56-3.63-5.69-7.53-5.69-6.64,0-10.12,6.16-10.17,16.08h.35c2.29-4.5,7.23-7.19,12.83-7.19,9,0,15.68,6.89,15.66,16.43,0,10.37-7.71,17.8-19,17.75C742.73,250.21,732.84,243.9,732.86,225.26Zm28.94,7.55a8.56,8.56,0,0,0-8.58-8.95,8.79,8.79,0,0,0-8.72,9,8.66,8.66,0,1,0,17.3,0Z"/><path class="cls-2" d="M737.79,340.16h10.84c.2,3.73,3.75,6.22,8.5,6.22,4.92,0,8.4-2.79,8.38-6.84s-3.58-7-9.35-7h-4.75v-7.91h4.75c4.9,0,8.3-2.71,8.28-6.71,0-3.83-2.88-6.46-7.23-6.46s-8,2.51-8.08,6.38H738.81c.15-8.79,8-14.91,18.45-14.91s17.57,6.31,17.54,14.34c0,5.72-3.9,9.75-9.59,10.77v.39c7.48.95,11.51,5.47,11.48,11.81,0,8.7-8.15,15-19.58,15C745.92,355.25,738,349.06,737.79,340.16Z"/><path class="cls-2" d="M621.44,235.87a12.92,12.92,0,0,1,11-12.58v-.35a11.3,11.3,0,0,1-9.15-11.28c0-7.88,7.54-13.7,17.85-13.7s17.85,5.82,17.87,13.7a11.41,11.41,0,0,1-9.14,11.28v.35a13,13,0,0,1,11,12.58c0,8.25-8.28,14.39-19.76,14.39S621.42,244.12,621.44,235.87Zm28.29-.84c0-4.4-3.63-7.59-8.55-7.59s-8.55,3.19-8.55,7.59,3.43,7.33,8.55,7.33S649.73,239.35,649.73,235Zm-1.19-22.25c0-3.95-3-6.71-7.36-6.71s-7.36,2.73-7.36,6.71,3.06,6.83,7.36,6.83S648.54,216.81,648.54,212.78Z"/><line class="cls-3" x1="698.44" y1="173.89" x2="698.44" y2="370.64"/><line class="cls-3" x1="600.06" y1="272.27" x2="796.82" y2="272.27"/><path class="cls-2" d="M209.82,798.36H199.06V757.67h-.3L187.1,765v-9.54l12.6-8h10.12Z"/><path class="cls-2" d="M222.1,784h10.44c.25,3.95,3.7,6.64,8,6.64,5,0,8.65-3.65,8.65-9s-3.68-9-8.8-9.07a9.69,9.69,0,0,0-7.61,3.43l-9.57-1.72,2.41-26.84h31.12v8.8H234.48L233.16,769h.3c1.79-2.51,5.64-4.38,10.12-4.38,9.17,0,16,7,15.95,16.76,0,10.29-7.68,17.67-19,17.67C230,799.06,222.3,792.77,222.1,784Z"/><path class="cls-2" d="M311.91,685.62,330,668.84c4.62-4.45,7.1-7.23,7.1-11.28,0-4.48-3.33-7.26-7.8-7.26-4.65,0-7.73,3-7.71,7.86H311.41c0-10,7.31-16.38,18-16.38,10.92,0,18.12,6.23,18.12,15.06,0,5.79-2.8,10.56-13.27,20.11l-7.43,7.28v.35H348.2v8.8H311.91Z"/><path class="cls-2" d="M311.74,774.05c.05-17.1,8.13-27.29,20.71-27.29,10.16,0,17.12,6.54,18.14,14.92H340c-.82-3.56-3.63-5.7-7.53-5.7-6.64,0-10.12,6.17-10.17,16.09h.35c2.29-4.5,7.23-7.19,12.83-7.19,9,0,15.68,6.89,15.65,16.43,0,10.37-7.7,17.8-19,17.75C321.61,799,311.72,792.7,311.74,774.05Zm28.93,7.56a8.54,8.54,0,0,0-8.57-9,8.79,8.79,0,0,0-8.72,9,8.65,8.65,0,1,0,17.29,0Z"/><path class="cls-2" d="M200.61,679h10.44c.25,4,3.7,6.63,8,6.63,5.05,0,8.65-3.65,8.65-9s-3.68-9-8.8-9.07a9.66,9.66,0,0,0-7.6,3.43l-9.57-1.71,2.41-26.85h31.12v8.8H213L211.67,664h.3c1.79-2.51,5.64-4.37,10.12-4.37,9.17,0,16,7,16,16.75,0,10.29-7.68,17.67-19,17.67C208.49,694.07,200.81,687.79,200.61,679Z"/><line class="cls-3" x1="277.69" y1="617.7" x2="277.69" y2="814.45"/><line class="cls-3" x1="179.31" y1="716.08" x2="376.06" y2="716.08"/><path class="cls-2" d="M626.63,773.87c0-17.1,8.13-27.29,20.71-27.29,10.16,0,17.12,6.53,18.14,14.91H654.87c-.82-3.56-3.63-5.69-7.53-5.69-6.64,0-10.12,6.16-10.17,16.08h.35c2.28-4.5,7.23-7.18,12.82-7.18,9,0,15.69,6.88,15.66,16.43,0,10.36-7.7,17.79-19,17.74C636.5,798.82,626.61,792.51,626.63,773.87Zm28.93,7.55a8.53,8.53,0,0,0-8.57-8.94,8.79,8.79,0,0,0-8.73,9,8.66,8.66,0,1,0,17.3,0Z"/><path class="cls-2" d="M732.91,679.49a12.9,12.9,0,0,1,11-12.57v-.35a11.31,11.31,0,0,1-9.15-11.29c0-7.88,7.53-13.69,17.85-13.69s17.85,5.81,17.87,13.69a11.42,11.42,0,0,1-9.15,11.29v.35a13,13,0,0,1,11,12.57c0,8.26-8.28,14.4-19.76,14.4S732.89,687.75,732.91,679.49Zm28.29-.84c0-4.4-3.63-7.58-8.55-7.58s-8.55,3.18-8.55,7.58,3.43,7.33,8.55,7.33S761.2,683,761.2,678.65ZM760,656.4c0-3.95-3-6.71-7.36-6.71s-7.36,2.74-7.36,6.71,3.06,6.84,7.36,6.84S760,660.43,760,656.4Z"/><path class="cls-4" d="M739.49,782.07c0-8.7,2.36-11.36,6.53-14,3.06-1.94,5.42-4.11,5.42-7.36,0-3.46-2.71-5.69-6.06-5.69a6.18,6.18,0,0,0-6.42,6.21H728.82c.23-9.94,7.58-14.66,16.61-14.66,9.87,0,16.88,5.07,16.88,13.77,0,5.84-3,9.49-7.69,12.25-3.92,2.36-5.66,4.62-5.71,9.47v.85h-9.42Zm-1.07,10.79a5.93,5.93,0,0,1,6-5.92,5.94,5.94,0,1,1,0,11.88A5.94,5.94,0,0,1,738.42,792.86Z"/><path class="cls-2" d="M622.42,675.77l21.25-33.49h13.47v33.34h6.32v8.62h-6.32v9H646.85v-9H622.42ZM647.05,654h-.4l-13.39,21.2v.4h13.79Z"/><line class="cls-3" x1="698.44" y1="617.51" x2="698.44" y2="814.27"/><line class="cls-3" x1="600.06" y1="715.89" x2="796.82" y2="715.89"/></g></svg>