<svg xmlns="http://www.w3.org/2000/svg" viewBox="0 0 1001 1001"><defs><style>.cls-1,.cls-2{fill:none;stroke-miterlimit:10;}.cls-1{stroke:#434343;}.cls-2{stroke:#00afd9;stroke-width:5px;}.cls-3{fill:#00afd9;}.cls-4{fill:#fff;}</style></defs><g id="Base"><line class="cls-1" x1="0.5" y1="1000.5" x2="36.86" y2="1000.5"/><line class="cls-1" x1="0.5" y1="1000.5" x2="0.5" y2="964.14"/><line class="cls-1" x1="1000.5" y1="0.5" x2="964.14" y2="0.5"/><line class="cls-1" x1="1000.5" y1="0.5" x2="1000.5" y2="36.86"/></g><g id="Level23"><line class="cls-2" x1="500.5" y1="305.83" x2="500.5" y2="695.17"/><line class="cls-2" x1="695.17" y1="500.5" x2="305.83" y2="500.5"/><line class="cls-2" x1="388.87" y1="390.9" x2="612.13" y2="614.15"/><line class="cls-2" x1="612.13" y1="390.9" x2="388.87" y2="614.15"/><path class="cls-3" d="M337.87,381H327.11V340.26h-.3l-11.66,7.31V338l12.6-8h10.12Z"/><path class="cls-3" d="M349.38,355.55c0-16.68,7.78-26.2,20.56-26.2s20.58,9.54,20.55,26.2-7.75,26.52-20.55,26.52S349.33,372.27,349.38,355.55Zm30.13,0c0-11.56-3.78-17.38-9.57-17.38s-9.57,5.82-9.6,17.38c0,11.73,3.75,17.59,9.6,17.59S379.53,367.28,379.51,355.55Z"/><path class="cls-3" d="M231.49,503.6l21.25-33.48h13.47v33.33h6.32v8.63h-6.32V521H255.92v-8.95H231.49Zm24.63-21.75h-.4l-13.39,21.21v.39h13.79Z"/><path class="cls-4" d="M734.41,504.92c0-8.7,2.36-11.36,6.53-14,3.06-1.94,5.42-4.11,5.42-7.36,0-3.46-2.71-5.69-6.06-5.69a6.18,6.18,0,0,0-6.42,6.21H723.74c.23-9.94,7.59-14.66,16.61-14.66,9.87,0,16.88,5.07,16.88,13.77,0,5.84-3,9.49-7.69,12.25-3.92,2.36-5.66,4.62-5.71,9.47v.85h-9.42Zm-1.07,10.79a5.93,5.93,0,0,1,6-5.92,5.94,5.94,0,1,1,0,11.88A5.94,5.94,0,0,1,733.34,515.71Z"/><path class="cls-3" d="M459,272.68l18.12-16.78c4.62-4.45,7.11-7.23,7.11-11.28,0-4.48-3.33-7.26-7.8-7.26-4.65,0-7.73,3-7.71,7.85H458.51c0-10,7.31-16.38,18-16.38,10.91,0,18.12,6.24,18.12,15.07,0,5.79-2.81,10.56-13.27,20.1l-7.44,7.29v.34H495.3v8.8H459Z"/><path class="cls-3" d="M502.51,255c0-16.68,7.78-26.2,20.56-26.2s20.58,9.55,20.55,26.2-7.75,26.52-20.55,26.52S502.46,271.76,502.51,255Zm30.13,0c0-11.56-3.78-17.37-9.57-17.37s-9.57,5.81-9.6,17.37c0,11.73,3.76,17.6,9.6,17.6S532.66,266.76,532.64,255Z"/><path class="cls-3" d="M635.14,381H624.38V340.26h-.3l-11.66,7.31V338l12.6-8h10.12Z"/><path class="cls-3" d="M646.45,356.64c0-17.1,8.13-27.29,20.7-27.29,10.17,0,17.13,6.53,18.15,14.91H674.68c-.81-3.55-3.62-5.69-7.53-5.69-6.63,0-10.11,6.16-10.16,16.08h.34c2.29-4.5,7.24-7.18,12.83-7.18,9,0,15.69,6.88,15.66,16.43,0,10.36-7.7,17.79-19,17.74C656.32,381.6,646.42,375.28,646.45,356.64Zm28.93,7.56a8.54,8.54,0,0,0-8.57-8.95,8.79,8.79,0,0,0-8.73,9,8.66,8.66,0,1,0,17.3,0Z"/><path class="cls-3" d="M638.69,673.94H627.93V633.25h-.3L616,640.56V631l12.61-8h10.11Z"/><path class="cls-3" d="M651,659.55h10.44c.25,4,3.7,6.63,8,6.63,5.05,0,8.65-3.65,8.65-8.94s-3.68-9-8.8-9.08a9.69,9.69,0,0,0-7.61,3.43l-9.57-1.71L654.48,623H685.6v8.8H663.35L662,644.58h.3c1.79-2.51,5.64-4.37,10.12-4.37,9.17,0,16,7,16,16.75,0,10.29-7.69,17.67-19,17.67C658.85,674.63,651.17,668.35,651,659.55Z"/><path class="cls-3" d="M526,600.8h-6.92V574.65h-.19l-7.5,4.7v-6.14l8.1-5.13H526Z"/><path class="cls-3" d="M533.5,591.55h7c.12,2.4,2.41,4,5.46,4s5.4-1.79,5.38-4.4-2.3-4.48-6-4.48h-3.06v-5.09h3.06c3.14,0,5.33-1.74,5.32-4.31s-1.86-4.15-4.65-4.15-5.11,1.61-5.19,4.1h-6.63c.09-5.65,5.14-9.58,11.85-9.58s11.29,4.06,11.28,9.22c0,3.67-2.51,6.26-6.17,6.91V584c4.81.61,7.4,3.51,7.38,7.59,0,5.59-5.24,9.63-12.59,9.63C538.72,601.25,533.61,597.27,533.5,591.55Z"/><path class="cls-3" d="M455,589.6l13.66-21.52h8.66v21.43h4.06v5.54h-4.06v5.75h-6.61v-5.75H455Zm15.84-14h-.26L462,589.25v.26h8.87Z"/><path class="cls-3" d="M414.09,540.16h7c.12,2.39,2.41,4,5.46,4s5.4-1.79,5.38-4.39-2.3-4.49-6-4.49h-3v-5.08h3c3.14,0,5.33-1.74,5.32-4.31s-1.86-4.16-4.65-4.16-5.11,1.61-5.19,4.11h-6.63c.09-5.66,5.14-9.59,11.85-9.59s11.3,4.06,11.28,9.22c0,3.67-2.51,6.26-6.17,6.92v.25c4.81.61,7.4,3.52,7.38,7.59,0,5.59-5.24,9.63-12.59,9.63C419.32,549.85,414.2,545.88,414.09,540.16Z"/><path class="cls-3" d="M431,487.51h-6.92V461.36h-.19l-7.49,4.7v-6.14l8.1-5.13H431Z"/><path class="cls-3" d="M479.94,425.45c0,11.1-5.2,17.65-13.3,17.65-6.55,0-11-4.17-11.67-9.68h6.83a4.61,4.61,0,0,0,4.84,3.75c4.26,0,6.51-3.94,6.53-10.43H473a9,9,0,0,1-8.25,4.62c-5.8,0-10-4.43-10.05-10.53,0-6.58,4.91-11.38,12.23-11.34C473.6,409.52,479.93,413.59,479.94,425.45Zm-18.58-4.81a5.48,5.48,0,0,0,5.5,5.7,5.71,5.71,0,0,0,.06-11.42A5.51,5.51,0,0,0,461.36,420.64Z"/><path class="cls-3" d="M529.32,440.79H522.4V414.63h-.19l-7.49,4.7V413.2l8.1-5.13h6.5Z"/><path class="cls-3" d="M551.34,440.79h-6.92V414.63h-.19l-7.49,4.7V413.2l8.1-5.13h6.5Z"/><path class="cls-3" d="M575.22,478.26h6.71c.16,2.54,2.38,4.27,5.13,4.27a5.42,5.42,0,0,0,5.56-5.75A5.52,5.52,0,0,0,587,471a6.22,6.22,0,0,0-4.89,2.2l-6.15-1.1,1.55-17.26h20v5.66h-14.3l-.85,8.2h.19a8,8,0,0,1,6.5-2.82c5.9,0,10.28,4.51,10.26,10.77,0,6.62-4.94,11.36-12.22,11.36C580.28,488,575.35,483.92,575.22,478.26Z"/><path class="cls-3" d="M575.75,544.42l11.64-10.78c3-2.86,4.57-4.65,4.57-7.25,0-2.88-2.14-4.67-5-4.67a4.67,4.67,0,0,0-5,5h-6.56c0-6.42,4.7-10.53,11.57-10.53s11.64,4,11.64,9.68c0,3.73-1.8,6.79-8.53,12.93l-4.78,4.68v.22h13.74v5.66H575.75Z"/><path class="cls-3" d="M356.39,633.3V633H331.81v-8.8h35.72v8.92l-21.13,42H335.29Z"/><path class="cls-3" d="M484.71,762.74H474V722.05h-.3L462,729.36v-9.55l12.61-8h10.11Z"/><path class="cls-3" d="M519.93,721v-.35H495.35v-8.8h35.72v8.93l-21.13,42H498.83Z"/></g></svg>