<svg xmlns="http://www.w3.org/2000/svg" viewBox="0 0 1001 1001"><defs><style>.cls-1{fill:none;stroke:#434343;stroke-miterlimit:10;}.cls-2{fill:#00afd9;}.cls-3{fill:#fff;}</style></defs><g id="Base"><line class="cls-1" x1="0.5" y1="1000.5" x2="36.86" y2="1000.5"/><line class="cls-1" x1="0.5" y1="1000.5" x2="0.5" y2="964.14"/><line class="cls-1" x1="1000.5" y1="0.5" x2="964.14" y2="0.5"/><line class="cls-1" x1="1000.5" y1="0.5" x2="1000.5" y2="36.86"/></g><g id="Level17"><path class="cls-2" d="M361.29,477.78v-.35H336.71v-8.79h35.71v8.92l-21.12,42H340.19Z"/><path class="cls-2" d="M382.39,515.32c-.67,6.58-3.5,13.64-4.7,16.65h-6.86c.73-2.91,2.66-9.84,3-16.6l.13-2.79h8.75Z"/><path class="cls-2" d="M428.25,519.54H417.49V478.85h-.3l-11.66,7.31v-9.55l12.61-8h10.11Z"/><path class="cls-2" d="M440.53,505.15H451c.25,4,3.71,6.64,8,6.64,5.05,0,8.65-3.66,8.65-9s-3.68-9-8.8-9.07a9.63,9.63,0,0,0-7.6,3.43l-9.57-1.72L444,468.64h31.12v8.79H452.91l-1.32,12.76h.3c1.79-2.51,5.64-4.38,10.12-4.38,9.17,0,16,7,16,16.75,0,10.3-7.68,17.68-19,17.68C448.41,520.24,440.73,514,440.53,505.15Z"/><path class="cls-2" d="M495.22,515.32c-.67,6.58-3.51,13.64-4.7,16.65h-6.86c.72-2.91,2.66-9.84,3-16.6l.12-2.79h8.75Z"/><path class="cls-2" d="M518.43,505.15h10.84c.2,3.73,3.75,6.21,8.5,6.21,4.92,0,8.4-2.78,8.38-6.83s-3.58-7-9.35-7h-4.75v-7.9h4.75c4.9,0,8.3-2.71,8.28-6.71,0-3.83-2.88-6.47-7.23-6.47s-8,2.52-8.08,6.39H519.45c.15-8.8,8-14.91,18.45-14.91s17.57,6.31,17.54,14.34c0,5.72-3.9,9.75-9.59,10.76v.4c7.48.95,11.51,5.47,11.48,11.81,0,8.7-8.15,15-19.58,15C526.56,520.24,518.61,514.05,518.43,505.15Z"/><path class="cls-2" d="M587.24,519.54H576.47V478.85h-.29l-11.66,7.31v-9.55l12.6-8h10.12Z"/><path class="cls-2" d="M608,515.32c-.67,6.58-3.5,13.64-4.7,16.65h-6.86c.73-2.91,2.66-9.84,3-16.6l.13-2.79h8.75Z"/><path class="cls-3" d="M640.9,503.43c0-8.7,2.36-11.35,6.54-14,3.06-1.94,5.42-4.1,5.42-7.36,0-3.45-2.71-5.69-6.07-5.69a6.18,6.18,0,0,0-6.41,6.21H630.24c.22-9.94,7.58-14.66,16.6-14.66,9.87,0,16.88,5.07,16.88,13.77,0,5.84-3,9.5-7.68,12.25-3.93,2.37-5.67,4.63-5.72,9.47v.85H640.9Zm-1.07,10.79a6,6,0,0,1,6-5.91,5.94,5.94,0,1,1,0,11.88A6,6,0,0,1,639.83,514.22Z"/></g></svg>