<svg xmlns="http://www.w3.org/2000/svg" viewBox="0 0 1001 1001"><defs><style>.cls-1{fill:none;stroke:#434343;stroke-miterlimit:10;}.cls-2{fill:#00afd9;}.cls-3{fill:#fff;}</style></defs><g id="Base"><line class="cls-1" x1="0.5" y1="1000.5" x2="36.86" y2="1000.5"/><line class="cls-1" x1="0.5" y1="1000.5" x2="0.5" y2="964.14"/><line class="cls-1" x1="1000.5" y1="0.5" x2="964.14" y2="0.5"/><line class="cls-1" x1="1000.5" y1="0.5" x2="1000.5" y2="36.86"/></g><g id="Level14"><path class="cls-2" d="M273,519.54H262.21V478.85h-.3l-11.66,7.31v-9.55l12.61-8H273Z"/><path class="cls-2" d="M293.73,515.32c-.67,6.58-3.51,13.64-4.7,16.65h-6.86c.72-2.91,2.66-9.84,3-16.6l.12-2.79H294Z"/><path class="cls-2" d="M339.59,519.54H328.83V478.85h-.3l-11.66,7.31v-9.55l12.6-8h10.12Z"/><path class="cls-2" d="M360.34,515.32c-.67,6.58-3.5,13.64-4.69,16.65h-6.86c.72-2.91,2.66-9.84,2.95-16.6l.13-2.79h8.75Z"/><path class="cls-2" d="M384.06,511.79,402.18,495c4.62-4.45,7.11-7.24,7.11-11.29,0-4.47-3.33-7.26-7.81-7.26-4.65,0-7.73,3-7.7,7.86H383.56c0-10,7.31-16.38,18-16.38,10.91,0,18.12,6.24,18.12,15.06,0,5.79-2.81,10.57-13.28,20.11L399,510.39v.35h21.38v8.8H384.06Z"/><path class="cls-2" d="M439.49,515.32c-.67,6.58-3.51,13.64-4.7,16.65h-6.86c.72-2.91,2.66-9.84,3-16.6l.12-2.79h8.75Z"/><path class="cls-2" d="M462.71,505.15h10.83c.2,3.73,3.76,6.21,8.5,6.21,4.92,0,8.41-2.78,8.38-6.83s-3.58-7-9.35-7h-4.74v-7.9h4.74c4.9,0,8.31-2.71,8.28-6.71,0-3.83-2.88-6.47-7.23-6.47s-8,2.52-8.08,6.39H463.72c.15-8.8,8-14.91,18.45-14.91s17.57,6.31,17.55,14.34c0,5.72-3.91,9.74-9.6,10.76v.4c7.48.95,11.51,5.47,11.49,11.81,0,8.7-8.16,15-19.59,15C470.83,520.24,462.88,514.05,462.71,505.15Z"/><path class="cls-2" d="M519.23,515.32c-.67,6.58-3.51,13.64-4.7,16.65h-6.86c.72-2.91,2.66-9.84,3-16.6l.12-2.79h8.75Z"/><path class="cls-2" d="M543.12,505.15h10.44c.25,4,3.7,6.64,8,6.64,5,0,8.65-3.66,8.65-9s-3.68-9-8.8-9.08a9.69,9.69,0,0,0-7.61,3.43l-9.57-1.71,2.41-26.85h31.12v8.8H555.5l-1.32,12.76h.3c1.79-2.52,5.64-4.38,10.11-4.38,9.18,0,16,7,16,16.75,0,10.29-7.68,17.68-19,17.68C551,520.24,543.32,514,543.12,505.15Z"/><path class="cls-2" d="M597.8,515.32c-.67,6.58-3.5,13.64-4.7,16.65h-6.86c.72-2.91,2.66-9.84,3-16.6l.13-2.79h8.75Z"/><path class="cls-2" d="M620.77,505.85a12.9,12.9,0,0,1,11-12.58v-.35a11.3,11.3,0,0,1-9.15-11.29c0-7.87,7.53-13.69,17.85-13.69s17.84,5.82,17.87,13.69a11.43,11.43,0,0,1-9.15,11.29v.35a13,13,0,0,1,11,12.58c0,8.25-8.28,14.39-19.76,14.39S620.75,514.1,620.77,505.85Zm28.29-.85c0-4.4-3.63-7.58-8.55-7.58S632,500.6,632,505s3.43,7.33,8.55,7.33S649.06,509.33,649.06,505Zm-1.2-22.25c0-3.95-3-6.71-7.35-6.71s-7.36,2.74-7.36,6.71,3.06,6.84,7.36,6.84S647.86,486.78,647.86,482.75Z"/><path class="cls-2" d="M695.34,515.32c-.67,6.58-3.5,13.64-4.7,16.65h-6.86c.72-2.91,2.66-9.84,3-16.6l.12-2.79h8.75Z"/><path class="cls-3" d="M728.25,503.43c0-8.7,2.36-11.36,6.54-14,3.06-1.94,5.42-4.1,5.42-7.36,0-3.45-2.71-5.69-6.07-5.69a6.18,6.18,0,0,0-6.41,6.21H717.59c.22-9.94,7.58-14.66,16.6-14.66,9.87,0,16.88,5.07,16.88,13.77,0,5.84-3,9.49-7.68,12.25-3.93,2.37-5.67,4.63-5.72,9.47v.85h-9.42Zm-1.07,10.79a5.94,5.94,0,0,1,6-5.91,5.94,5.94,0,1,1,0,11.88A6,6,0,0,1,727.18,514.22Z"/></g></svg>