<svg xmlns="http://www.w3.org/2000/svg" viewBox="0 0 1001 1001"><defs><style>.cls-1{fill:none;stroke:#434343;stroke-miterlimit:10;}.cls-2{fill:#00afd9;}.cls-3{fill:#fff;}</style></defs><g id="Base"><line class="cls-1" x1="0.5" y1="1000.5" x2="36.86" y2="1000.5"/><line class="cls-1" x1="0.5" y1="1000.5" x2="0.5" y2="964.14"/><line class="cls-1" x1="1000.5" y1="0.5" x2="964.14" y2="0.5"/><line class="cls-1" x1="1000.5" y1="0.5" x2="1000.5" y2="36.86"/></g><g id="Level19"><path class="cls-2" d="M345.41,369.78c0-17.1,8.12-27.3,20.7-27.3,10.17,0,17.13,6.54,18.15,14.92H373.64c-.82-3.56-3.63-5.69-7.53-5.69-6.64,0-10.12,6.16-10.16,16.08h.34c2.29-4.5,7.24-7.19,12.83-7.19,9,0,15.68,6.89,15.66,16.43,0,10.37-7.71,17.8-19,17.75C355.27,394.73,345.38,388.42,345.41,369.78Zm28.93,7.55a8.55,8.55,0,0,0-8.58-8.94,8.78,8.78,0,0,0-8.72,9,8.66,8.66,0,1,0,17.3,0Z"/><path class="cls-2" d="M401.66,389.86c-.67,6.59-3.51,13.65-4.7,16.65H390.1c.72-2.9,2.66-9.84,3-16.6l.12-2.78h8.75Z"/><path class="cls-2" d="M425.55,379.69H436c.25,4,3.71,6.64,8,6.64,5.05,0,8.65-3.65,8.65-8.95s-3.67-9-8.8-9.07a9.67,9.67,0,0,0-7.6,3.43L426.64,370l2.41-26.85h31.12V352H437.92l-1.31,12.75h.29c1.79-2.51,5.65-4.37,10.12-4.37,9.17,0,16,7,16,16.75,0,10.29-7.68,17.67-19,17.67C433.42,394.78,425.74,388.49,425.55,379.69Z"/><path class="cls-2" d="M489.2,356h34.33v8.82H489.2Zm0,16.5h34.33v8.83H489.2Z"/><path class="cls-2" d="M550,379.69h10.83c.2,3.73,3.76,6.22,8.51,6.22,4.92,0,8.4-2.79,8.37-6.84s-3.58-7-9.34-7h-4.75v-7.91h4.75c4.89,0,8.3-2.71,8.27-6.71,0-3.82-2.88-6.46-7.23-6.46s-8,2.51-8.08,6.39H551.05c.14-8.8,8-14.92,18.44-14.92s17.57,6.32,17.55,14.35c0,5.71-3.9,9.74-9.6,10.76v.4c7.49.94,11.51,5.47,11.49,11.8,0,8.7-8.16,15-19.59,15C558.15,394.78,550.2,388.59,550,379.69Z"/><path class="cls-2" d="M596.19,379.69H607c.2,3.73,3.76,6.22,8.51,6.22,4.92,0,8.4-2.79,8.37-6.84s-3.58-7-9.34-7h-4.75v-7.91h4.75c4.89,0,8.3-2.71,8.27-6.71,0-3.82-2.88-6.46-7.23-6.46s-8,2.51-8.08,6.39H597.21c.14-8.8,8-14.92,18.44-14.92s17.57,6.32,17.55,14.35c0,5.71-3.9,9.74-9.6,10.76v.4c7.49.94,11.51,5.47,11.49,11.8,0,8.7-8.15,15-19.59,15C604.31,394.78,596.36,388.59,596.19,379.69Z"/><path class="cls-2" d="M369.32,436.33V436H344.73v-8.8h35.72v8.92l-21.12,42H348.21Z"/><path class="cls-2" d="M390.42,473.86c-.67,6.59-3.5,13.65-4.7,16.65h-6.86c.72-2.9,2.66-9.84,3-16.6l.13-2.78h8.74Z"/><path class="cls-2" d="M414.13,470.33l18.12-16.78c4.63-4.45,7.11-7.23,7.11-11.28,0-4.48-3.33-7.26-7.8-7.26-4.65,0-7.73,3-7.71,7.85H413.64c0-10,7.31-16.38,18-16.38,10.92,0,18.12,6.24,18.12,15.07,0,5.79-2.8,10.56-13.27,20.11l-7.43,7.28v.35h21.38v8.8h-36.3Z"/><path class="cls-2" d="M477,440h34.32v8.82H477Zm0,16.5h34.32v8.83H477Z"/><path class="cls-2" d="M560.42,478.09H549.65V437.4h-.3l-11.65,7.3v-9.54l12.6-8h10.12Z"/><path class="cls-2" d="M595.64,436.33V436H571.05v-8.8h35.72v8.92l-21.12,42H574.53Z"/><path class="cls-2" d="M368.35,562.09H357.59V521.4h-.3l-11.66,7.3v-9.54l12.6-8h10.12Z"/><path class="cls-2" d="M402.6,562.09H391.84V521.4h-.3l-11.66,7.3v-9.54l12.6-8H402.6Z"/><path class="cls-2" d="M423.36,557.86c-.67,6.59-3.51,13.65-4.7,16.66H411.8c.72-2.91,2.66-9.85,3-16.61l.12-2.78h8.75Z"/><path class="cls-2" d="M446.3,544.66l21.25-33.48H481v33.33h6.32v8.63H481v9H470.73v-9H446.3Zm24.63-21.75h-.4l-13.39,21.21v.39h13.79Z"/><path class="cls-2" d="M513.24,524h34.32v8.82H513.24Zm0,16.5h34.32v8.83H513.24Z"/><path class="cls-2" d="M573.79,544.66,595,511.18h13.47v33.33h6.32v8.63h-6.32v9H598.22v-9H573.79Zm24.63-21.75H598l-13.39,21.21v.39h13.79Z"/><path class="cls-2" d="M645.13,520.33V520H620.55v-8.8h35.72v8.92l-21.13,42H624Z"/><path class="cls-2" d="M345.7,631.7h10.84c.2,3.72,3.75,6.21,8.5,6.21,4.92,0,8.4-2.79,8.38-6.84s-3.58-7-9.35-7h-4.74v-7.91h4.74c4.9,0,8.31-2.71,8.28-6.71,0-3.82-2.88-6.46-7.23-6.46s-8,2.51-8.08,6.39H346.72c.15-8.8,8-14.92,18.45-14.92s17.57,6.32,17.55,14.35c0,5.71-3.91,9.74-9.6,10.76v.4c7.48.94,11.51,5.47,11.48,11.8,0,8.7-8.15,15-19.58,15C353.83,646.78,345.88,640.59,345.7,631.7Z"/><path class="cls-2" d="M402.23,641.86c-.67,6.59-3.51,13.65-4.7,16.66h-6.86c.72-2.91,2.66-9.85,3-16.61l.12-2.78h8.75Z"/><path class="cls-2" d="M425.2,632.39a12.9,12.9,0,0,1,11-12.58v-.34a11.3,11.3,0,0,1-9.14-11.29c0-7.88,7.53-13.7,17.84-13.7s17.85,5.82,17.87,13.7a11.43,11.43,0,0,1-9.14,11.29v.34a13,13,0,0,1,11,12.58c0,8.25-8.27,14.39-19.76,14.39S425.17,640.64,425.2,632.39Zm28.28-.84c0-4.4-3.63-7.59-8.55-7.59s-8.55,3.19-8.55,7.59,3.43,7.33,8.55,7.33S453.48,635.87,453.48,631.55Zm-1.19-22.25c0-3.95-3-6.71-7.36-6.71s-7.35,2.73-7.35,6.71,3.05,6.83,7.35,6.83S452.29,613.33,452.29,609.3Z"/><path class="cls-2" d="M490.92,608h34.33v8.82H490.92Zm0,16.5h34.33v8.83H490.92Z"/><path class="cls-3" d="M561.44,630c0-8.7,2.36-11.36,6.53-14,3.06-1.94,5.42-4.11,5.42-7.36,0-3.46-2.71-5.69-6.06-5.69a6.18,6.18,0,0,0-6.42,6.21H550.77c.23-9.94,7.58-14.67,16.61-14.67,9.87,0,16.88,5.08,16.88,13.77,0,5.85-3,9.5-7.69,12.26-3.92,2.36-5.66,4.62-5.71,9.47v.84h-9.42Zm-1.07,10.79a5.93,5.93,0,0,1,6-5.92,5.94,5.94,0,1,1,0,11.88A5.94,5.94,0,0,1,560.37,640.77Z"/></g></svg>