<svg xmlns="http://www.w3.org/2000/svg" viewBox="0 0 1001 1001"><defs><style>.cls-1,.cls-2{fill:none;stroke-miterlimit:10;}.cls-1{stroke:#434343;}.cls-2{stroke:#00afd9;stroke-width:5px;}.cls-3{fill:#00afd9;}.cls-4{fill:#fff;}</style></defs><g id="Base"><line class="cls-1" x1="0.5" y1="1000.5" x2="36.86" y2="1000.5"/><line class="cls-1" x1="0.5" y1="1000.5" x2="0.5" y2="964.14"/><line class="cls-1" x1="1000.5" y1="0.5" x2="964.14" y2="0.5"/><line class="cls-1" x1="1000.5" y1="0.5" x2="1000.5" y2="36.86"/></g><g id="Level21"><polygon class="cls-2" points="601.69 276.21 417.2 276.21 286.74 406.67 286.74 591.16 417.2 721.62 601.69 721.62 732.15 591.16 732.15 406.67 601.69 276.21"/><path class="cls-3" d="M306,263.83v-.34H281.4v-8.8h35.72v8.92l-21.13,42H284.88Z"/><path class="cls-3" d="M717.77,305.59H707V264.9h-.29l-11.66,7.31v-9.55l12.6-8h10.12Z"/><path class="cls-3" d="M729.87,297.84,748,281.06c4.63-4.45,7.11-7.23,7.11-11.29,0-4.47-3.33-7.25-7.8-7.25-4.65,0-7.73,3-7.71,7.85H729.37c0-10,7.31-16.38,18-16.38,10.91,0,18.12,6.24,18.12,15.06,0,5.79-2.81,10.57-13.27,20.11l-7.43,7.28v.35h21.37v8.8H729.87Z"/><path class="cls-3" d="M697.45,739.31h10.44c.25,4,3.7,6.64,8,6.64,5,0,8.65-3.66,8.65-9s-3.68-9-8.8-9.08a9.66,9.66,0,0,0-7.6,3.43l-9.58-1.71L701,702.8h31.12v8.79H709.83l-1.32,12.76h.3c1.79-2.51,5.64-4.38,10.12-4.38,9.17,0,16,7,16,16.75,0,10.29-7.68,17.68-19,17.68C705.33,754.4,697.65,748.11,697.45,739.31Z"/><path class="cls-3" d="M283.75,736.28,305,702.79h13.47v33.34h6.31v8.62h-6.31v9H308.19v-9H283.75Zm24.64-21.75H308l-13.4,21.2v.4h13.8Z"/><path class="cls-3" d="M529.12,805.43c0,17.28-8.11,27.47-20.71,27.47-10.19,0-17.15-6.49-18.14-15.06h10.61c.82,3.7,3.63,5.84,7.53,5.84,6.64,0,10.14-6.14,10.17-16.23h-.35c-2.26,4.47-7.23,7.18-12.83,7.18-9,0-15.61-6.88-15.63-16.38,0-10.24,7.63-17.7,19-17.65C519.25,780.65,529.09,787,529.12,805.43ZM500.21,798c0,5,3.58,8.88,8.55,8.88a8.89,8.89,0,0,0,.1-17.78A8.58,8.58,0,0,0,500.21,798Z"/><path class="cls-3" d="M495.49,219.7H484.72V179h-.3l-11.65,7.31v-9.55l12.6-8h10.12Z"/><path class="cls-3" d="M546.34,192.93c0,17.28-8.1,27.47-20.7,27.47-10.19,0-17.15-6.49-18.15-15.07h10.62c.82,3.71,3.62,5.85,7.53,5.85,6.63,0,10.14-6.14,10.16-16.24h-.34c-2.27,4.48-7.24,7.19-12.83,7.19-9,0-15.61-6.89-15.64-16.38-.05-10.24,7.63-17.7,19-17.65C536.47,168.15,546.32,174.49,546.34,192.93Zm-28.91-7.48c0,5,3.58,8.87,8.56,8.87a8.89,8.89,0,0,0,.09-17.77A8.58,8.58,0,0,0,517.43,185.45Z"/><path class="cls-4" d="M795.77,506.67c0-8.7,2.36-11.36,6.53-14,3.06-1.93,5.42-4.1,5.42-7.35,0-3.46-2.71-5.7-6.06-5.7a6.19,6.19,0,0,0-6.42,6.22H785.1c.23-9.94,7.58-14.67,16.61-14.67,9.87,0,16.87,5.07,16.87,13.77,0,5.85-3,9.5-7.68,12.26-3.92,2.36-5.66,4.62-5.71,9.47v.84h-9.42Zm-1.07,10.79a5.93,5.93,0,0,1,6-5.92,5.94,5.94,0,1,1,0,11.88A5.94,5.94,0,0,1,794.7,517.46Z"/><path class="cls-3" d="M205.13,523.42H194.37V482.73h-.3L182.42,490v-9.55l12.6-8h10.11Z"/><path class="cls-3" d="M239.39,523.42H228.62V482.73h-.3L216.67,490v-9.55l12.6-8h10.12Z"/></g></svg>