<svg xmlns="http://www.w3.org/2000/svg" viewBox="0 0 1001 1001"><defs><style>.cls-1{fill:none;stroke:#434343;stroke-miterlimit:10;}.cls-2{fill:#00afd9;}.cls-3{fill:#fff;}</style></defs><g id="Base"><line class="cls-1" x1="0.5" y1="1000.5" x2="36.86" y2="1000.5"/><line class="cls-1" x1="0.5" y1="1000.5" x2="0.5" y2="964.14"/><line class="cls-1" x1="1000.5" y1="0.5" x2="964.14" y2="0.5"/><line class="cls-1" x1="1000.5" y1="0.5" x2="1000.5" y2="36.86"/></g><g id="Level26"><path class="cls-2" d="M327.1,379.15h10.84c.19,3.73,3.75,6.21,8.5,6.21,4.92,0,8.4-2.78,8.37-6.83s-3.58-7-9.34-7h-4.75v-7.9h4.75c4.89,0,8.3-2.71,8.27-6.71,0-3.83-2.88-6.47-7.23-6.47s-7.95,2.52-8.08,6.39H328.12c.15-8.8,8-14.91,18.44-14.91s17.57,6.31,17.55,14.34c0,5.72-3.9,9.74-9.59,10.76v.4c7.48.95,11.5,5.47,11.48,11.81,0,8.7-8.15,15-19.59,15C335.23,394.24,327.27,388.05,327.1,379.15Z"/><path class="cls-2" d="M373.26,379.15H384.1c.19,3.73,3.75,6.21,8.5,6.21,4.92,0,8.4-2.78,8.37-6.83s-3.58-7-9.34-7h-4.75v-7.9h4.75c4.89,0,8.3-2.71,8.27-6.71,0-3.83-2.88-6.47-7.23-6.47s-7.95,2.52-8.08,6.39H374.28c.15-8.8,8-14.91,18.44-14.91s17.57,6.31,17.55,14.34c0,5.72-3.9,9.74-9.6,10.76v.4c7.49.95,11.51,5.47,11.49,11.81,0,8.7-8.15,15-19.59,15C381.39,394.24,373.43,388.05,373.26,379.15Z"/><path class="cls-2" d="M419.42,379.15h10.84c.19,3.73,3.75,6.21,8.5,6.21,4.92,0,8.4-2.78,8.37-6.83s-3.58-7-9.34-7H433v-7.9h4.75c4.89,0,8.3-2.71,8.27-6.71,0-3.83-2.88-6.47-7.23-6.47s-7.95,2.52-8.08,6.39H420.44c.15-8.8,8-14.91,18.44-14.91s17.57,6.31,17.55,14.34c0,5.72-3.9,9.74-9.6,10.76v.4c7.49.95,11.51,5.47,11.49,11.81,0,8.7-8.15,15-19.59,15C427.55,394.24,419.59,388.05,419.42,379.15Z"/><path class="cls-2" d="M484.79,355.41h34.33v8.83H484.79Zm0,16.51h34.33v8.82H484.79Z"/><path class="cls-2" d="M546.11,385.79,564.23,369c4.63-4.45,7.11-7.24,7.11-11.29,0-4.47-3.33-7.26-7.8-7.26-4.65,0-7.73,3-7.71,7.86H545.62c0-10,7.3-16.38,18-16.38,10.91,0,18.12,6.24,18.12,15.06,0,5.79-2.81,10.57-13.27,20.11L561,384.39v.35H582.4v8.8H546.11Z"/><path class="cls-2" d="M590.21,385.79,608.33,369c4.62-4.45,7.11-7.24,7.11-11.29,0-4.47-3.33-7.26-7.81-7.26-4.65,0-7.73,3-7.7,7.86H589.71c0-10,7.31-16.38,18-16.38,10.91,0,18.12,6.24,18.12,15.06,0,5.79-2.81,10.57-13.28,20.11l-7.43,7.28v.35H626.5v8.8H590.21Z"/><path class="cls-2" d="M634.3,385.79,652.43,369c4.62-4.45,7.1-7.24,7.1-11.29,0-4.47-3.33-7.26-7.8-7.26-4.65,0-7.73,3-7.71,7.86H633.81c0-10,7.31-16.38,18-16.38,10.92,0,18.12,6.24,18.12,15.06,0,5.79-2.8,10.57-13.27,20.11l-7.43,7.28v.35H670.6v8.8H634.3Z"/><path class="cls-2" d="M327.6,469.79,345.72,453c4.62-4.45,7.1-7.24,7.1-11.29,0-4.47-3.33-7.26-7.8-7.26-4.65,0-7.73,3-7.71,7.86H327.1c0-10,7.31-16.38,18-16.38,10.92,0,18.12,6.24,18.12,15.06,0,5.79-2.8,10.57-13.27,20.11l-7.43,7.28v.35h21.38v8.8H327.6Z"/><path class="cls-2" d="M371,463.85a12.89,12.89,0,0,1,11-12.58v-.35a11.31,11.31,0,0,1-9.15-11.29c0-7.87,7.54-13.69,17.85-13.69s17.85,5.82,17.87,13.69a11.41,11.41,0,0,1-9.14,11.29v.35a13,13,0,0,1,11,12.58c0,8.25-8.27,14.39-19.76,14.39S370.92,472.1,371,463.85Zm28.28-.85c0-4.4-3.63-7.58-8.55-7.58s-8.55,3.18-8.55,7.58,3.43,7.33,8.55,7.33S399.23,467.33,399.23,463ZM398,440.75c0-3.95-3-6.71-7.36-6.71s-7.36,2.74-7.36,6.71,3.06,6.84,7.36,6.84S398,444.78,398,440.75Z"/><path class="cls-2" d="M418,469.79,436.07,453c4.62-4.45,7.11-7.24,7.11-11.29,0-4.47-3.33-7.26-7.8-7.26-4.65,0-7.74,3-7.71,7.86H417.45c0-10,7.31-16.38,18-16.38,10.91,0,18.12,6.24,18.12,15.06,0,5.79-2.81,10.57-13.27,20.11l-7.44,7.28v.35h21.38v8.8H418Z"/><path class="cls-2" d="M480.76,439.41h34.33v8.83H480.76Zm0,16.51h34.33v8.82H480.76Z"/><path class="cls-2" d="M564.23,477.54H553.47V436.85h-.3l-11.66,7.31v-9.55l12.61-8h10.11Z"/><path class="cls-2" d="M599.45,435.78v-.35H574.87v-8.8h35.72v8.93l-21.13,42H578.35Z"/><path class="cls-2" d="M640.12,477.54H629.36V436.85h-.3l-11.66,7.31v-9.55l12.6-8h10.12Z"/><path class="cls-2" d="M327.77,547.15h10.44c.25,4,3.7,6.64,8,6.64,5,0,8.65-3.66,8.65-8.95s-3.68-9.05-8.8-9.08a9.67,9.67,0,0,0-7.61,3.44l-9.57-1.72,2.41-26.85h31.12v8.8H340.15l-1.32,12.76h.3c1.79-2.52,5.64-4.38,10.12-4.38,9.17,0,16,7,15.95,16.75,0,10.29-7.68,17.68-19,17.68C335.65,562.24,328,556,327.77,547.15Z"/><path class="cls-2" d="M371.94,544.12l21.25-33.49h13.47V544H413v8.62h-6.32v8.95H396.37v-8.95H371.94Zm24.63-21.75h-.39l-13.4,21.2v.4h13.79Z"/><path class="cls-2" d="M443.28,519.78v-.35H418.7v-8.8h35.72v8.93l-21.13,42H422.18Z"/><path class="cls-2" d="M480.51,523.41h34.33v8.83H480.51Zm0,16.51h34.33v8.82H480.51Z"/><path class="cls-2" d="M541.07,544.12l21.25-33.49h13.47V544h6.31v8.62h-6.31v8.95H565.5v-8.95H541.07Zm24.63-21.75h-.4l-13.4,21.2v.4h13.8Z"/><path class="cls-2" d="M588.79,547.15h10.84c.2,3.73,3.75,6.21,8.5,6.21,4.92,0,8.4-2.78,8.38-6.83s-3.58-7-9.35-7h-4.75v-7.9h4.75c4.9,0,8.3-2.71,8.28-6.71,0-3.83-2.89-6.47-7.24-6.47s-8,2.52-8.07,6.39H589.81c.15-8.8,8-14.91,18.44-14.91s17.58,6.31,17.55,14.34c0,5.72-3.9,9.75-9.59,10.76v.4c7.48.95,11.51,5.47,11.48,11.81,0,8.7-8.15,15-19.59,15C596.92,562.24,589,556.05,588.79,547.15Z"/><path class="cls-2" d="M634.65,537.23c.05-17.1,8.13-27.29,20.71-27.29,10.16,0,17.12,6.54,18.14,14.91H662.89c-.82-3.55-3.63-5.69-7.53-5.69-6.64,0-10.12,6.17-10.17,16.08h.35c2.29-4.5,7.23-7.18,12.83-7.18,9,0,15.68,6.88,15.65,16.43,0,10.36-7.7,17.8-19,17.75C644.52,562.19,634.63,555.87,634.65,537.23Zm28.93,7.56a8.54,8.54,0,0,0-8.57-8.95,8.78,8.78,0,0,0-8.72,9,8.65,8.65,0,1,0,17.29,0Z"/><path class="cls-2" d="M327.6,637.79,345.72,621c4.62-4.45,7.1-7.24,7.1-11.29,0-4.47-3.33-7.26-7.8-7.26-4.65,0-7.73,3-7.71,7.86H327.1c0-10,7.31-16.38,18-16.38,10.92,0,18.12,6.24,18.12,15.06,0,5.79-2.8,10.57-13.27,20.11l-7.43,7.28v.35h21.38v8.8H327.6Z"/><path class="cls-2" d="M394.81,603.78v-.35H370.23v-8.8h35.71v8.93l-21.12,42H373.71Z"/><path class="cls-2" d="M435.47,645.54H424.71V604.85h-.3l-11.66,7.31v-9.55l12.61-8h10.11Z"/><path class="cls-2" d="M466.3,607.41h34.32v8.83H466.3Zm0,16.51h34.32v8.82H466.3Z"/><path class="cls-3" d="M536.81,629.43c0-8.7,2.37-11.35,6.54-14,3.06-1.94,5.42-4.1,5.42-7.36,0-3.45-2.71-5.69-6.06-5.69a6.18,6.18,0,0,0-6.42,6.21H526.15c.23-9.94,7.58-14.66,16.6-14.66,9.87,0,16.88,5.07,16.88,13.77,0,5.84-3,9.5-7.68,12.25-3.93,2.37-5.66,4.63-5.71,9.47v.85h-9.43Zm-1.06,10.79a5.93,5.93,0,0,1,6-5.91,5.94,5.94,0,1,1,0,11.88A6,6,0,0,1,535.75,640.22Z"/></g></svg>