<svg xmlns="http://www.w3.org/2000/svg" viewBox="0 0 1001 1001"><defs><style>.cls-1{fill:none;stroke:#434343;stroke-miterlimit:10;}.cls-2{fill:#00afd9;}.cls-3{fill:#fff;}</style></defs><g id="Base"><line class="cls-1" x1="0.5" y1="1000.5" x2="36.86" y2="1000.5"/><line class="cls-1" x1="0.5" y1="1000.5" x2="0.5" y2="964.14"/><line class="cls-1" x1="1000.5" y1="0.5" x2="964.14" y2="0.5"/><line class="cls-1" x1="1000.5" y1="0.5" x2="1000.5" y2="36.86"/></g><g id="Level13"><path class="cls-2" d="M297.76,484.53h10.11c-5.19,6.56-9.14,19.68-9.14,31.44s3.95,24.91,9.14,31.47H297.76c-6.79-8.85-10.05-19.12-10.05-31.47S291,493.37,297.76,484.53Z"/><path class="cls-2" d="M313.42,527h10.83c.2,3.73,3.76,6.21,8.5,6.21,4.93,0,8.41-2.78,8.38-6.83s-3.58-7-9.35-7H327v-7.9h4.74c4.9,0,8.31-2.71,8.28-6.71,0-3.83-2.88-6.46-7.23-6.46s-8,2.51-8.08,6.38H314.43c.15-8.79,8-14.91,18.45-14.91s17.57,6.31,17.55,14.34c0,5.72-3.91,9.75-9.6,10.77v.39c7.48.95,11.51,5.47,11.49,11.81,0,8.7-8.16,15-19.59,15C321.54,542.12,313.59,535.93,313.42,527Z"/><path class="cls-2" d="M416.42,520.17H393.21v-8.4h23.21Z"/><path class="cls-2" d="M457.81,533.67l18.12-16.78c4.62-4.45,7.11-7.23,7.11-11.29,0-4.47-3.33-7.25-7.81-7.25-4.65,0-7.73,3-7.7,7.85H457.31c0-10,7.31-16.38,18-16.38,10.91,0,18.12,6.24,18.12,15.06,0,5.79-2.81,10.57-13.28,20.11l-7.43,7.29v.34H494.1v8.8H457.81Z"/><path class="cls-2" d="M542.27,547.41H532.15c5.2-6.56,9.15-19.68,9.15-31.44s-3.95-24.91-9.15-31.47h10.12c6.79,8.85,10,19.12,10,31.47S549.06,538.56,542.27,547.41Z"/><path class="cls-2" d="M620,503.29h34.33v8.83H620Zm0,16.51h34.33v8.82H620Z"/><path class="cls-3" d="M690.47,525.32c0-8.7,2.36-11.36,6.54-14,3-1.94,5.41-4.1,5.41-7.36,0-3.45-2.71-5.69-6.06-5.69a6.18,6.18,0,0,0-6.41,6.22H679.8c.23-9.95,7.59-14.67,16.61-14.67,9.87,0,16.88,5.07,16.88,13.77,0,5.84-3,9.5-7.68,12.25-3.93,2.37-5.67,4.63-5.72,9.48v.84h-9.42ZM689.4,536.1a5.93,5.93,0,0,1,6-5.91,5.94,5.94,0,1,1,0,11.88A6,6,0,0,1,689.4,536.1Z"/><path class="cls-2" d="M359.5,486.91,370.22,477c2.74-2.64,4.21-4.28,4.21-6.68,0-2.65-2-4.29-4.62-4.29a4.29,4.29,0,0,0-4.56,4.64h-6c0-5.91,4.32-9.69,10.64-9.69s10.72,3.69,10.72,8.91c0,3.43-1.66,6.25-7.85,11.9l-4.4,4.31v.21H381v5.2H359.5Z"/><path class="cls-2" d="M501.85,482.78h6.41c.12,2.21,2.22,3.68,5,3.68s5-1.65,5-4-2.11-4.13-5.53-4.13h-2.8v-4.67h2.8c2.9,0,4.92-1.61,4.9-4s-1.71-3.82-4.28-3.82-4.7,1.49-4.78,3.78h-6.1c.09-5.2,4.73-8.82,10.91-8.82s10.4,3.73,10.38,8.48c0,3.38-2.31,5.77-5.67,6.37v.23c4.42.56,6.8,3.24,6.79,7,0,5.15-4.82,8.87-11.59,8.87C506.66,491.71,502,488.05,501.85,482.78Z"/><path class="cls-2" d="M602.94,468.36c0,10.11-4.81,16.14-12.25,16.14-6,0-10.13-3.87-10.73-8.82h6.28a4.26,4.26,0,0,0,4.45,3.37c3.93,0,6-3.65,6-9.52h-.21a8.3,8.3,0,0,1-7.59,4.25c-5.33,0-9.28-4.07-9.26-9.72,0-6.13,4.56-10.53,11.26-10.5C597.1,453.59,603,457.33,602.94,468.36Zm-17.11-4.48a5.05,5.05,0,0,0,5.07,5.3,5.31,5.31,0,0,0,0-10.62A5.09,5.09,0,0,0,585.83,463.88Z"/><path class="cls-2" d="M575.61,468.36c0,10.11-4.81,16.14-12.25,16.14-6,0-10.14-3.87-10.74-8.82h6.28a4.27,4.27,0,0,0,4.46,3.37c3.92,0,6-3.65,6-9.52h-.21a8.28,8.28,0,0,1-7.58,4.25c-5.34,0-9.28-4.07-9.27-9.72,0-6.13,4.56-10.53,11.27-10.5C569.77,453.59,575.62,457.33,575.61,468.36Zm-17.12-4.48a5.05,5.05,0,0,0,5.07,5.3,5.19,5.19,0,0,0,5.16-5.31,5.12,5.12,0,1,0-10.23,0Z"/></g></svg>