<svg xmlns="http://www.w3.org/2000/svg" viewBox="0 0 1001 1001"><defs><style>.cls-1,.cls-2{fill:none;stroke-miterlimit:10;}.cls-1{stroke:#434343;}.cls-2{stroke:#00afd9;stroke-width:5px;}.cls-3{fill:#00afd9;}.cls-4{fill:#fff;}</style></defs><g id="Base"><line class="cls-1" x1="0.5" y1="1000.5" x2="36.86" y2="1000.5"/><line class="cls-1" x1="0.5" y1="1000.5" x2="0.5" y2="964.14"/><line class="cls-1" x1="1000.5" y1="0.5" x2="964.14" y2="0.5"/><line class="cls-1" x1="1000.5" y1="0.5" x2="1000.5" y2="36.86"/></g><g id="Level25"><line class="cls-2" x1="303.41" y1="280.5" x2="697.59" y2="674.69"/><line class="cls-2" x1="498.17" y1="720.5" x2="498.17" y2="475.27"/><path class="cls-3" d="M514.44,595.56,529,572.61h9.24v22.85h4.33v5.91h-4.33v6.13h-7.06v-6.13H514.44Zm16.89-14.91h-.27l-9.19,14.54v.27h9.46Z"/><path class="cls-3" d="M547.62,597.64h7.16c.17,2.71,2.53,4.55,5.47,4.55a5.79,5.79,0,0,0,5.93-6.14,5.89,5.89,0,0,0-6-6.21,6.61,6.61,0,0,0-5.21,2.35L548.37,591l1.65-18.4h21.34v6H556.1l-.9,8.74h.21c1.22-1.72,3.86-3,6.93-3,6.29,0,11,4.81,10.94,11.49,0,7-5.26,12.11-13,12.11C553,608,547.76,603.67,547.62,597.64Z"/><path class="cls-4" d="M442.55,488.27c0-6.36,1.72-8.3,4.77-10.22,2.24-1.42,4-3,4-5.38a4.15,4.15,0,0,0-4.43-4.15,4.51,4.51,0,0,0-4.68,4.54h-7.41c.17-7.27,5.54-10.71,12.13-10.71,7.2,0,12.32,3.7,12.32,10,0,4.27-2.21,6.94-5.61,9-2.86,1.72-4.13,3.38-4.17,6.92v.61h-6.88Zm-.78,7.87a4.34,4.34,0,0,1,4.36-4.32,4.34,4.34,0,1,1,0,8.68A4.34,4.34,0,0,1,441.77,496.14Z"/></g></svg>