<svg xmlns="http://www.w3.org/2000/svg" viewBox="0 0 1001 1001"><defs><style>.cls-1,.cls-2{fill:none;stroke-miterlimit:10;}.cls-1{stroke:#434343;}.cls-2{stroke:#00afda;stroke-width:3px;}.cls-3{fill:#00afd9;}.cls-4{fill:#fff;}</style></defs><g id="Base"><line class="cls-1" x1="0.5" y1="1000.5" x2="36.86" y2="1000.5"/><line class="cls-1" x1="0.5" y1="1000.5" x2="0.5" y2="964.14"/><line class="cls-1" x1="1000.5" y1="0.5" x2="964.14" y2="0.5"/><line class="cls-1" x1="1000.5" y1="0.5" x2="1000.5" y2="36.86"/></g><g id="Level30"><rect class="cls-2" x="128.38" y="221.74" width="142.62" height="142.62" transform="translate(-148.73 227.04) rotate(-45)"/><rect class="cls-2" x="229.23" y="120.89" width="142.62" height="142.62" transform="translate(-47.88 268.81) rotate(-45)"/><rect class="cls-2" x="229.23" y="322.59" width="142.62" height="142.62" transform="translate(-190.51 327.89) rotate(-45)"/><rect class="cls-2" x="330.08" y="221.74" width="142.62" height="142.62" transform="translate(-89.66 369.66) rotate(-45)"/><rect class="cls-2" x="528.3" y="405.77" width="142.62" height="142.62" transform="translate(-161.73 563.72) rotate(-45)"/><rect class="cls-2" x="629.15" y="304.92" width="142.62" height="142.62" transform="translate(-60.88 605.5) rotate(-45)"/><rect class="cls-2" x="629.15" y="506.62" width="142.62" height="142.62" transform="translate(-203.5 664.57) rotate(-45)"/><rect class="cls-2" x="730" y="405.77" width="142.62" height="142.62" transform="translate(-102.65 706.35) rotate(-45)"/><rect class="cls-2" x="229.23" y="636.63" width="142.62" height="142.62" transform="translate(-412.57 419.87) rotate(-45)"/><rect class="cls-2" x="330.08" y="535.78" width="142.62" height="142.62" transform="translate(-311.72 461.64) rotate(-45)"/><rect class="cls-2" x="330.08" y="737.48" width="142.62" height="142.62" transform="translate(-454.34 520.72) rotate(-45)"/><rect class="cls-2" x="430.93" y="636.63" width="142.62" height="142.62" transform="translate(-353.49 562.49) rotate(-45)"/><path class="cls-3" d="M285.14,206.55a12.92,12.92,0,0,1,11-12.58v-.35A11.3,11.3,0,0,1,287,182.34c0-7.88,7.53-13.7,17.85-13.7s17.85,5.82,17.87,13.7a11.42,11.42,0,0,1-9.15,11.28V194a13,13,0,0,1,11,12.58c0,8.25-8.28,14.39-19.76,14.39S285.12,214.8,285.14,206.55Zm28.29-.85c0-4.4-3.63-7.58-8.55-7.58s-8.55,3.18-8.55,7.58,3.43,7.34,8.55,7.34S313.43,210,313.43,205.7Zm-1.19-22.24c0-4-3-6.71-7.36-6.71s-7.36,2.73-7.36,6.71,3.06,6.83,7.36,6.83S312.24,187.48,312.24,183.46Z"/><path class="cls-3" d="M177.55,294.22c0-17.1,8.12-27.29,20.7-27.29,10.17,0,17.13,6.54,18.15,14.91H205.78c-.82-3.55-3.63-5.69-7.53-5.69-6.64,0-10.12,6.16-10.17,16.08h.35c2.29-4.5,7.24-7.18,12.83-7.18,9,0,15.68,6.88,15.66,16.43,0,10.36-7.71,17.8-19,17.75C187.41,319.18,177.52,312.86,177.55,294.22Zm28.93,7.56c0-5-3.61-8.95-8.58-8.95a8.79,8.79,0,0,0-8.72,9,8.66,8.66,0,1,0,17.3,0Z"/><path class="cls-3" d="M382.25,301.11l21.26-33.49H417V301h6.31v8.62H417v8.95H406.69v-8.95H382.25Zm24.64-21.75h-.4l-13.4,21.2v.4h13.8Z"/><path class="cls-3" d="M278.44,405.68a12.91,12.91,0,0,1,11-12.57v-.35a11.31,11.31,0,0,1-9.15-11.29c0-7.88,7.53-13.69,17.85-13.69s17.85,5.81,17.87,13.69a11.42,11.42,0,0,1-9.15,11.29v.35a13,13,0,0,1,11,12.57c0,8.26-8.28,14.4-19.76,14.4S278.42,413.94,278.44,405.68Zm28.29-.84c0-4.4-3.63-7.58-8.55-7.58s-8.55,3.18-8.55,7.58,3.43,7.33,8.55,7.33S306.73,409.16,306.73,404.84Zm-1.19-22.25c0-3.95-3-6.71-7.36-6.71s-7.36,2.74-7.36,6.71,3.06,6.84,7.36,6.84S305.54,386.62,305.54,382.59Z"/><path class="cls-3" d="M406.69,593.06v-.35H382.11v-8.79h35.72v8.92l-21.13,42H385.59Z"/><path class="cls-3" d="M299.72,733.3H289V692.61h-.3L277,699.92v-9.55l12.6-8h10.12Z"/><path class="cls-4" d="M493.45,717.89c0-8.7,2.36-11.36,6.54-14,3.05-1.93,5.42-4.1,5.42-7.35,0-3.46-2.71-5.7-6.07-5.7a6.18,6.18,0,0,0-6.41,6.22H482.79c.22-9.94,7.58-14.67,16.6-14.67,9.87,0,16.88,5.07,16.88,13.77,0,5.85-3,9.5-7.68,12.26-3.93,2.36-5.67,4.62-5.72,9.47v.84h-9.42Zm-1.07,10.79a5.94,5.94,0,0,1,6-5.92,5.94,5.94,0,1,1,0,11.88A6,6,0,0,1,492.38,728.68Z"/><path class="cls-3" d="M383.4,825.5l18.13-16.78c4.62-4.45,7.1-7.24,7.1-11.29,0-4.47-3.33-7.26-7.8-7.26-4.65,0-7.73,3-7.71,7.86H382.91c0-10,7.3-16.38,18-16.38,10.92,0,18.12,6.24,18.12,15.06,0,5.79-2.81,10.57-13.27,20.11l-7.43,7.28v.35H419.7v8.8H383.4Z"/><path class="cls-3" d="M683.39,377.32c.05-17.1,8.13-27.29,20.71-27.29,10.16,0,17.12,6.54,18.14,14.92H711.63c-.82-3.56-3.63-5.7-7.53-5.7-6.64,0-10.12,6.17-10.17,16.09h.35c2.29-4.5,7.23-7.19,12.83-7.19,9,0,15.68,6.89,15.65,16.43,0,10.37-7.7,17.8-19,17.75C693.26,402.28,683.37,396,683.39,377.32Zm28.93,7.56a8.54,8.54,0,0,0-8.57-8.95,8.79,8.79,0,0,0-8.72,9,8.65,8.65,0,1,0,17.29,0Z"/><path class="cls-3" d="M602.35,499.5H591.59V458.81h-.3l-11.66,7.31v-9.55l12.6-8h10.12Z"/><path class="cls-3" d="M783.76,486.8a12.91,12.91,0,0,1,11-12.57v-.35a11.31,11.31,0,0,1-9.15-11.29c0-7.88,7.53-13.69,17.85-13.69s17.85,5.81,17.87,13.69a11.42,11.42,0,0,1-9.15,11.29v.35a13,13,0,0,1,11,12.57c0,8.26-8.28,14.4-19.76,14.4S783.74,495.06,783.76,486.8Zm28.29-.84c0-4.4-3.63-7.58-8.55-7.58S795,481.56,795,486s3.43,7.33,8.55,7.33S812.05,490.28,812.05,486Zm-1.19-22.25c0-3.95-3-6.71-7.36-6.71s-7.36,2.74-7.36,6.71,3.06,6.84,7.36,6.84S810.86,467.74,810.86,463.71Z"/><path class="cls-3" d="M683.07,589.7h10.84c.2,3.73,3.75,6.22,8.5,6.22,4.92,0,8.4-2.79,8.38-6.84s-3.58-7-9.35-7h-4.75v-7.91h4.75c4.9,0,8.3-2.71,8.28-6.71,0-3.83-2.89-6.46-7.24-6.46s-8,2.51-8.07,6.39H684.09c.15-8.8,8-14.92,18.44-14.92s17.58,6.32,17.55,14.35c0,5.71-3.9,9.74-9.59,10.76v.4c7.48.94,11.51,5.46,11.48,11.8,0,8.7-8.15,15-19.59,15C691.2,604.79,683.24,598.6,683.07,589.7Z"/></g></svg>