<svg xmlns="http://www.w3.org/2000/svg" viewBox="0 0 1001 1001"><defs><style>.cls-1,.cls-2{fill:none;stroke-miterlimit:10;}.cls-1{stroke:#434343;}.cls-2{stroke:#00afda;stroke-width:3px;}.cls-3{fill:#00afd9;}.cls-4{fill:#fff;}</style></defs><g id="Base"><line class="cls-1" x1="0.5" y1="1000.5" x2="36.86" y2="1000.5"/><line class="cls-1" x1="0.5" y1="1000.5" x2="0.5" y2="964.14"/><line class="cls-1" x1="1000.5" y1="0.5" x2="964.14" y2="0.5"/><line class="cls-1" x1="1000.5" y1="0.5" x2="1000.5" y2="36.86"/></g><g id="Level1"><rect class="cls-2" x="313.63" y="227.55" width="142.62" height="142.62"/><rect class="cls-2" x="384.94" y="488.2" width="142.62" height="142.62"/><rect class="cls-2" x="242.31" y="630.83" width="142.62" height="142.62"/><path class="cls-3" d="M665.35,637.61h34.33v8.82H665.35Zm0,16.5h34.33v8.83H665.35Z"/><path class="cls-4" d="M735.87,659.63c0-8.7,2.36-11.36,6.53-14,3.06-1.94,5.42-4.1,5.42-7.36,0-3.45-2.71-5.69-6.06-5.69a6.17,6.17,0,0,0-6.41,6.21H725.2c.23-9.94,7.59-14.66,16.61-14.66,9.87,0,16.88,5.07,16.88,13.77,0,5.84-3,9.49-7.68,12.25-3.93,2.36-5.67,4.63-5.72,9.47v.85h-9.42Zm-1.07,10.79a5.93,5.93,0,0,1,6-5.92,5.95,5.95,0,1,1,0,11.89A6,6,0,0,1,734.8,670.42Z"/><path class="cls-3" d="M543.86,297.57h34.33v8.82H543.86Zm0,16.5h34.33v8.83H543.86Z"/><path class="cls-3" d="M627.33,335.7H616.57V295h-.3l-11.66,7.31v-9.55l12.6-8h10.12Z"/></g></svg>