<svg xmlns="http://www.w3.org/2000/svg" viewBox="0 0 1001 1001"><defs><style>.cls-1,.cls-2{fill:none;stroke-miterlimit:10;}.cls-1{stroke:#434343;}.cls-2{stroke:#00afd9;stroke-width:5px;}.cls-3{fill:#00afd9;}.cls-4{fill:#fff;}</style></defs><g id="Base"><line class="cls-1" x1="0.5" y1="1000.5" x2="36.86" y2="1000.5"/><line class="cls-1" x1="0.5" y1="1000.5" x2="0.5" y2="964.14"/><line class="cls-1" x1="1000.5" y1="0.5" x2="964.14" y2="0.5"/><line class="cls-1" x1="1000.5" y1="0.5" x2="1000.5" y2="36.86"/></g><g id="Level15"><polygon class="cls-2" points="582.2 303.26 418.8 303.26 303.26 418.8 303.26 582.2 418.8 697.74 582.2 697.74 697.74 582.2 697.74 418.8 582.2 303.26"/><path class="cls-3" d="M481.78,258.9h10.44c.25,4,3.71,6.64,8,6.64,5.05,0,8.65-3.66,8.65-9s-3.68-9-8.8-9.07a9.63,9.63,0,0,0-7.6,3.43l-9.57-1.72,2.41-26.84h31.12v8.8H494.16l-1.32,12.75h.3c1.79-2.51,5.64-4.38,10.12-4.38,9.17,0,16,7,16,16.76,0,10.29-7.68,17.67-19,17.67C489.66,274,482,267.7,481.78,258.9Z"/><path class="cls-3" d="M663.25,327.7h10.84c.2,3.73,3.75,6.22,8.5,6.22,4.92,0,8.4-2.79,8.38-6.84s-3.58-7-9.35-7h-4.74v-7.91h4.74c4.9,0,8.3-2.71,8.28-6.71,0-3.83-2.88-6.46-7.23-6.46s-8,2.51-8.08,6.39H664.27c.15-8.8,8-14.92,18.45-14.92s17.57,6.32,17.55,14.35c0,5.71-3.91,9.74-9.6,10.76v.4c7.48.94,11.51,5.46,11.48,11.8,0,8.7-8.15,15-19.58,15C671.38,342.79,663.43,336.6,663.25,327.7Z"/><path class="cls-3" d="M739.09,512.26a12.9,12.9,0,0,1,11-12.58v-.35A11.31,11.31,0,0,1,741,488.05c0-7.88,7.53-13.7,17.85-13.7s17.85,5.82,17.87,13.7a11.42,11.42,0,0,1-9.15,11.28v.35a13,13,0,0,1,11,12.58c0,8.25-8.28,14.39-19.76,14.39S739.07,520.51,739.09,512.26Zm28.29-.85c0-4.4-3.63-7.58-8.55-7.58s-8.55,3.18-8.55,7.58,3.43,7.33,8.55,7.33S767.38,515.74,767.38,511.41Zm-1.19-22.24c0-4-3-6.72-7.36-6.72s-7.36,2.74-7.36,6.72,3.06,6.83,7.36,6.83S766.19,493.19,766.19,489.17Z"/><path class="cls-3" d="M686.62,697.74H675.86V657.05h-.3l-11.66,7.3v-9.54l12.6-8h10.12Z"/><path class="cls-3" d="M720.87,697.74H710.11V657.05h-.3l-11.66,7.3v-9.54l12.6-8h10.12Z"/><path class="cls-3" d="M491.41,782H480.64V741.31h-.29l-11.66,7.31v-9.55l12.6-8h10.12Z"/><path class="cls-3" d="M542.26,755.23c0,17.27-8.1,27.47-20.7,27.47-10.19,0-17.15-6.49-18.15-15.07H514c.82,3.71,3.63,5.84,7.53,5.84,6.63,0,10.14-6.14,10.16-16.23h-.34c-2.27,4.48-7.24,7.19-12.83,7.19-9,0-15.61-6.89-15.63-16.38-.05-10.24,7.63-17.7,19-17.65C532.4,730.45,542.24,736.79,542.26,755.23Zm-28.9-7.48c0,5,3.57,8.87,8.55,8.87a8.89,8.89,0,0,0,.09-17.77A8.57,8.57,0,0,0,513.36,747.75Z"/><path class="cls-3" d="M244.14,684H255c.2,3.73,3.75,6.21,8.5,6.21,4.92,0,8.4-2.78,8.38-6.83s-3.58-7-9.35-7h-4.75v-7.9h4.75c4.9,0,8.3-2.71,8.28-6.71,0-3.83-2.88-6.46-7.23-6.46s-8,2.51-8.08,6.38H245.16c.15-8.8,8-14.91,18.45-14.91s17.57,6.31,17.54,14.34c0,5.72-3.9,9.75-9.59,10.76v.4c7.48.95,11.51,5.47,11.48,11.81,0,8.7-8.15,15-19.58,15C252.27,699.13,244.32,692.94,244.14,684Z"/><path class="cls-3" d="M290.2,673c0-16.68,7.78-26.2,20.56-26.2s20.58,9.54,20.56,26.2-7.76,26.52-20.56,26.52S290.15,689.76,290.2,673Zm30.13,0c0-11.56-3.78-17.38-9.57-17.38s-9.57,5.82-9.6,17.38c0,11.73,3.76,17.6,9.6,17.6S320.35,684.76,320.33,673Z"/><path class="cls-3" d="M174.93,504l21.26-33.48h13.47v33.33H216v8.63h-6.31v8.94H199.37v-8.94H174.93Zm24.64-21.75h-.4l-13.4,21.2v.4h13.8Z"/><path class="cls-3" d="M261.91,494.68c0,17.28-8.11,27.47-20.71,27.47-10.19,0-17.15-6.49-18.14-15.06h10.61c.82,3.7,3.63,5.84,7.53,5.84,6.64,0,10.14-6.14,10.17-16.23H251c-2.26,4.47-7.23,7.18-12.83,7.18-9,0-15.61-6.88-15.63-16.38-.05-10.24,7.63-17.7,19-17.65C252,469.9,261.88,476.24,261.91,494.68ZM233,487.2c0,5,3.58,8.88,8.55,8.88a8.89,8.89,0,0,0,.1-17.78A8.58,8.58,0,0,0,233,487.2Z"/><path class="cls-4" d="M304.67,312.63c0-8.69,2.36-11.35,6.54-14,3.05-1.94,5.42-4.1,5.42-7.36,0-3.45-2.71-5.69-6.07-5.69a6.18,6.18,0,0,0-6.41,6.21H294c.22-9.94,7.58-14.66,16.6-14.66,9.87,0,16.88,5.07,16.88,13.77,0,5.84-3,9.5-7.68,12.25-3.93,2.37-5.67,4.63-5.72,9.47v.85h-9.42Zm-1.07,10.79a5.94,5.94,0,0,1,6-5.91,5.94,5.94,0,1,1,0,11.88A6,6,0,0,1,303.6,323.42Z"/></g></svg>