<svg xmlns="http://www.w3.org/2000/svg" viewBox="0 0 1001 1001"><defs><style>.cls-1,.cls-2{fill:none;stroke-miterlimit:10;}.cls-1{stroke:#434343;}.cls-2{stroke:#00afd9;stroke-width:5px;}.cls-3{fill:#00afd9;}.cls-4{fill:#fff;}</style></defs><g id="Base"><line class="cls-1" x1="0.5" y1="1000.5" x2="36.86" y2="1000.5"/><line class="cls-1" x1="0.5" y1="1000.5" x2="0.5" y2="964.14"/><line class="cls-1" x1="1000.5" y1="0.5" x2="964.14" y2="0.5"/><line class="cls-1" x1="1000.5" y1="0.5" x2="1000.5" y2="36.86"/></g><g id="Level16"><rect class="cls-2" x="212.75" y="233.06" width="151.84" height="151.84"/><path class="cls-3" d="M167.4,183.56l21.25-33.48h13.47v33.33h6.32V192h-6.32v9H191.83v-9H167.4ZM192,161.81h-.39L178.24,183v.4H192Z"/><path class="cls-3" d="M363.06,186.59H373.5c.25,4,3.7,6.64,8,6.64,5,0,8.65-3.65,8.65-8.95s-3.68-9.05-8.8-9.07a9.69,9.69,0,0,0-7.61,3.43l-9.57-1.72,2.41-26.84h31.12v8.8H375.44l-1.32,12.75h.3c1.79-2.51,5.64-4.38,10.11-4.38,9.18,0,16,7,16,16.76,0,10.29-7.68,17.67-19,17.67C370.94,201.68,363.26,195.39,363.06,186.59Z"/><path class="cls-3" d="M364.39,430.52c.05-17.1,8.13-27.29,20.7-27.29,10.17,0,17.13,6.53,18.15,14.91H392.63c-.82-3.55-3.63-5.69-7.54-5.69-6.63,0-10.11,6.16-10.16,16.08h.35c2.28-4.5,7.23-7.18,12.82-7.18,9,0,15.69,6.88,15.66,16.43,0,10.36-7.7,17.79-19,17.74C374.26,455.48,364.36,449.16,364.39,430.52Zm28.93,7.56a8.54,8.54,0,0,0-8.57-8.95,8.79,8.79,0,0,0-8.73,9,8.66,8.66,0,1,0,17.3,0Z"/><path class="cls-3" d="M179.7,458.22H168.94V417.53h-.3L157,424.84v-9.55l12.61-8H179.7Z"/><path class="cls-3" d="M192,443.83h10.44c.25,3.95,3.71,6.63,8,6.63,5,0,8.65-3.65,8.65-8.94s-3.68-9-8.8-9.08a9.66,9.66,0,0,0-7.6,3.43l-9.57-1.71,2.41-26.85h31.12v8.8H204.36L203,428.86h.3c1.79-2.51,5.64-4.37,10.12-4.37,9.17,0,16,7,16,16.75,0,10.29-7.68,17.68-19,17.68C199.86,458.92,192.18,452.63,192,443.83Z"/><rect class="cls-2" x="660.06" y="233.76" width="151.84" height="151.84"/><path class="cls-3" d="M614.74,188a12.9,12.9,0,0,1,11-12.57v-.35a11.31,11.31,0,0,1-9.15-11.29c0-7.87,7.53-13.69,17.85-13.69s17.84,5.82,17.87,13.69a11.43,11.43,0,0,1-9.15,11.29v.35a13,13,0,0,1,11,12.57c0,8.26-8.28,14.4-19.76,14.4S614.72,196.24,614.74,188Zm28.29-.84c0-4.4-3.63-7.58-8.55-7.58s-8.55,3.18-8.55,7.58,3.43,7.33,8.55,7.33S643,191.46,643,187.14Zm-1.2-22.25c0-3.95-3-6.71-7.35-6.71s-7.36,2.74-7.36,6.71,3.06,6.84,7.36,6.84S641.83,168.92,641.83,164.89Z"/><path class="cls-3" d="M809.7,187.29h10.84c.2,3.73,3.75,6.21,8.5,6.21,4.92,0,8.4-2.78,8.38-6.83s-3.58-7-9.35-7h-4.75v-7.9h4.75c4.9,0,8.3-2.71,8.28-6.71,0-3.83-2.88-6.47-7.23-6.47s-8,2.51-8.08,6.39H810.72c.15-8.8,8-14.91,18.45-14.91s17.57,6.31,17.54,14.34c0,5.72-3.9,9.74-9.59,10.76v.4c7.48.95,11.51,5.47,11.48,11.81,0,8.7-8.15,15-19.58,15C817.83,202.38,809.88,196.19,809.7,187.29Z"/><path class="cls-3" d="M851.25,428.75c0,17.28-8.1,27.47-20.7,27.47-10.19,0-17.15-6.49-18.15-15.06H823c.82,3.7,3.63,5.84,7.54,5.84,6.63,0,10.14-6.14,10.16-16.23h-.35c-2.26,4.47-7.23,7.18-12.82,7.18-9,0-15.61-6.88-15.64-16.38,0-10.24,7.64-17.7,19-17.65C841.38,404,851.23,410.31,851.25,428.75Zm-28.91-7.48c0,5,3.58,8.88,8.55,8.88a8.89,8.89,0,0,0,.1-17.78A8.58,8.58,0,0,0,822.34,421.27Z"/><path class="cls-3" d="M604.87,451.16,623,434.38c4.63-4.45,7.11-7.23,7.11-11.28,0-4.48-3.33-7.26-7.8-7.26-4.65,0-7.73,3-7.71,7.85H604.38c0-10,7.3-16.38,18-16.38,10.91,0,18.12,6.24,18.12,15.07,0,5.79-2.81,10.56-13.27,20.11l-7.43,7.28v.35h21.37v8.8H604.87Z"/><path class="cls-3" d="M648.37,433.51c0-16.68,7.78-26.2,20.56-26.2s20.58,9.55,20.55,26.2S681.73,460,668.93,460,648.32,450.24,648.37,433.51Zm30.13,0c0-11.56-3.78-17.37-9.57-17.37s-9.57,5.81-9.6,17.37c0,11.73,3.76,17.6,9.6,17.6S678.52,445.24,678.5,433.51Z"/><rect class="cls-2" x="423.91" y="656.92" width="151.84" height="151.84"/><path class="cls-3" d="M393.48,624.84H382.71V584.15h-.29l-11.66,7.3v-9.54l12.6-8h10.12Z"/><path class="cls-3" d="M405,599.43c0-16.68,7.78-26.2,20.55-26.2s20.58,9.55,20.56,26.2S438.34,626,425.54,626,404.94,616.16,405,599.43Zm30.12,0c0-11.55-3.78-17.37-9.57-17.37S416,587.88,416,599.43c0,11.74,3.75,17.6,9.59,17.6S435.14,611.17,435.11,599.43Z"/><path class="cls-3" d="M574.22,610.44h10.44c.25,4,3.7,6.64,8,6.64,5,0,8.65-3.65,8.65-9s-3.68-9-8.8-9.07a9.69,9.69,0,0,0-7.61,3.43l-9.57-1.71,2.41-26.85h31.12v8.8H586.6l-1.32,12.75h.3c1.79-2.51,5.64-4.37,10.11-4.37,9.18,0,16,7,16,16.75,0,10.29-7.68,17.67-19,17.67C582.1,625.53,574.42,619.24,574.22,610.44Z"/><path class="cls-3" d="M575.6,865a12.89,12.89,0,0,1,11-12.57v-.35a11.29,11.29,0,0,1-9.14-11.29c0-7.88,7.53-13.69,17.84-13.69s17.85,5.81,17.88,13.69a11.43,11.43,0,0,1-9.15,11.29v.35a13,13,0,0,1,11,12.57c0,8.26-8.27,14.4-19.76,14.4S575.57,873.24,575.6,865Zm28.28-.84c0-4.4-3.62-7.58-8.55-7.58s-8.55,3.18-8.55,7.58,3.43,7.33,8.55,7.33S603.88,868.46,603.88,864.14Zm-1.19-22.25c0-3.95-3-6.71-7.36-6.71s-7.35,2.74-7.35,6.71,3,6.84,7.35,6.84S602.69,845.92,602.69,841.89Z"/><path class="cls-4" d="M399.91,866c0-8.7,2.36-11.35,6.54-14,3.06-1.94,5.42-4.1,5.42-7.36,0-3.45-2.71-5.69-6.07-5.69a6.18,6.18,0,0,0-6.41,6.21H389.25c.22-9.94,7.58-14.66,16.6-14.66,9.87,0,16.88,5.07,16.88,13.77,0,5.84-3,9.5-7.68,12.25-3.93,2.37-5.67,4.63-5.72,9.47v.85h-9.42Zm-1.07,10.79a6,6,0,0,1,6-5.91,5.94,5.94,0,1,1,0,11.88A6,6,0,0,1,398.84,876.75Z"/></g></svg>