<svg xmlns="http://www.w3.org/2000/svg" viewBox="0 0 1001 1001"><defs><style>.cls-1{fill:none;stroke:#434343;stroke-miterlimit:10;}.cls-2{fill:#00afd9;}.cls-3{fill:#fff;}</style></defs><g id="Base"><line class="cls-1" x1="0.5" y1="1000.5" x2="36.86" y2="1000.5"/><line class="cls-1" x1="0.5" y1="1000.5" x2="0.5" y2="964.14"/><line class="cls-1" x1="1000.5" y1="0.5" x2="964.14" y2="0.5"/><line class="cls-1" x1="1000.5" y1="0.5" x2="1000.5" y2="36.86"/></g><g id="Level5"><path class="cls-2" d="M245.11,512.33l18.12-16.78c4.62-4.45,7.11-7.23,7.11-11.28,0-4.48-3.33-7.26-7.81-7.26-4.65,0-7.73,3-7.7,7.86H244.61c0-10,7.31-16.39,18-16.39,10.91,0,18.12,6.24,18.12,15.07,0,5.79-2.81,10.56-13.28,20.11L260,510.94v.35H281.4v8.8H245.11Z"/><path class="cls-2" d="M300.54,515.86c-.67,6.59-3.51,13.65-4.7,16.66H289c.72-2.91,2.66-9.85,3-16.61l.12-2.78h8.75Z"/><path class="cls-2" d="M323.48,502.66l21.25-33.48h13.48v33.33h6.31v8.63h-6.31v9H347.92v-9H323.48Zm24.63-21.75h-.39l-13.4,21.21v.39h13.79Z"/><path class="cls-2" d="M382.09,515.86c-.67,6.59-3.5,13.65-4.69,16.66h-6.86c.72-2.91,2.66-9.85,2.95-16.61l.13-2.78h8.75Z"/><path class="cls-2" d="M405.06,506.39a12.91,12.91,0,0,1,11-12.58v-.34A11.32,11.32,0,0,1,407,482.18c0-7.88,7.53-13.7,17.85-13.7s17.85,5.82,17.87,13.7a11.44,11.44,0,0,1-9.15,11.29v.34a13,13,0,0,1,11,12.58c0,8.25-8.28,14.39-19.76,14.39S405,514.64,405.06,506.39Zm28.29-.84c0-4.4-3.63-7.59-8.55-7.59s-8.55,3.19-8.55,7.59,3.43,7.33,8.55,7.33S433.35,509.87,433.35,505.55Zm-1.19-22.25c0-3.95-3-6.71-7.36-6.71s-7.36,2.73-7.36,6.71,3.06,6.83,7.36,6.83S432.16,487.33,432.16,483.3Z"/><path class="cls-2" d="M461.94,515.86c-.68,6.59-3.51,13.65-4.7,16.66h-6.86c.72-2.91,2.66-9.85,2.95-16.61l.13-2.78h8.75Z"/><path class="cls-2" d="M507.8,520.09H497V479.4h-.3l-11.65,7.3v-9.54l12.6-8H507.8Z"/><path class="cls-2" d="M519.11,495.78c0-17.1,8.12-27.3,20.7-27.3,10.17,0,17.13,6.54,18.15,14.92H547.34c-.82-3.56-3.63-5.69-7.53-5.69-6.64,0-10.12,6.16-10.17,16.08H530c2.29-4.5,7.24-7.19,12.83-7.19,9,0,15.68,6.89,15.66,16.44,0,10.36-7.71,17.79-19,17.74C529,520.73,519.08,514.42,519.11,495.78ZM548,503.33a8.55,8.55,0,0,0-8.58-8.94,8.78,8.78,0,0,0-8.72,9,8.66,8.66,0,1,0,17.3,0Z"/><path class="cls-2" d="M575.36,515.86c-.67,6.59-3.51,13.65-4.7,16.66H563.8c.72-2.91,2.66-9.85,3-16.61l.12-2.78h8.75Z"/><path class="cls-2" d="M598.57,505.69h10.84c.2,3.73,3.75,6.22,8.5,6.22,4.92,0,8.4-2.79,8.38-6.84s-3.58-7-9.35-7h-4.75v-7.91h4.75c4.9,0,8.3-2.7,8.28-6.71,0-3.82-2.88-6.46-7.23-6.46s-8,2.51-8.08,6.39H599.59c.15-8.8,8-14.92,18.45-14.92s17.57,6.32,17.54,14.35c0,5.71-3.9,9.74-9.59,10.76v.4c7.48.94,11.51,5.47,11.48,11.8,0,8.7-8.15,15-19.58,15C606.7,520.78,598.75,514.59,598.57,505.69Z"/><path class="cls-2" d="M645.23,512.33l18.12-16.78c4.62-4.45,7.11-7.23,7.11-11.28,0-4.48-3.33-7.26-7.8-7.26-4.65,0-7.74,3-7.71,7.86H644.73c0-10,7.31-16.39,18-16.39,10.91,0,18.12,6.24,18.12,15.07,0,5.79-2.81,10.56-13.27,20.11l-7.44,7.28v.35h21.38v8.8H645.23Z"/><path class="cls-2" d="M700.66,515.86c-.67,6.59-3.5,13.65-4.7,16.66H689.1c.72-2.91,2.66-9.85,3-16.61l.12-2.78h8.75Z"/><path class="cls-3" d="M733.57,504c0-8.7,2.36-11.36,6.54-14,3.06-1.94,5.42-4.11,5.42-7.36,0-3.46-2.71-5.69-6.07-5.69a6.18,6.18,0,0,0-6.41,6.21H722.91c.22-9.94,7.58-14.67,16.6-14.67,9.87,0,16.88,5.08,16.88,13.78,0,5.84-3,9.49-7.68,12.25-3.93,2.36-5.67,4.62-5.72,9.47v.85h-9.42Zm-1.07,10.79a6,6,0,0,1,6-5.92,5.94,5.94,0,1,1,0,11.88A6,6,0,0,1,732.5,514.77Z"/></g></svg>