<svg xmlns="http://www.w3.org/2000/svg" viewBox="0 0 1001 1001"><defs><style>.cls-1,.cls-2{fill:none;stroke-miterlimit:10;}.cls-1{stroke:#434343;}.cls-2{stroke:#00afda;stroke-width:3px;}.cls-3{fill:#00afd9;}.cls-4{fill:#fff;}</style></defs><g id="Base"><line class="cls-1" x1="0.5" y1="1000.5" x2="36.86" y2="1000.5"/><line class="cls-1" x1="0.5" y1="1000.5" x2="0.5" y2="964.14"/><line class="cls-1" x1="1000.5" y1="0.5" x2="964.14" y2="0.5"/><line class="cls-1" x1="1000.5" y1="0.5" x2="1000.5" y2="36.86"/></g><g id="Level2"><rect class="cls-2" x="322.08" y="198.32" width="142.62" height="142.62"/><rect class="cls-2" x="393.39" y="517.43" width="142.62" height="142.62"/><rect class="cls-2" x="393.39" y="660.06" width="142.62" height="142.62"/><rect class="cls-2" x="250.77" y="517.43" width="142.62" height="142.62"/><rect class="cls-2" x="250.77" y="660.06" width="142.62" height="142.62"/><path class="cls-3" d="M656.89,657.52h34.33v8.82H656.89Zm0,16.5h34.33v8.83H656.89Z"/><path class="cls-4" d="M727.41,679.54c0-8.7,2.36-11.36,6.54-14,3.06-1.94,5.42-4.1,5.42-7.36,0-3.45-2.71-5.69-6.07-5.69a6.18,6.18,0,0,0-6.41,6.21H716.75c.22-9.94,7.58-14.66,16.6-14.66,9.87,0,16.88,5.07,16.88,13.77,0,5.84-3,9.49-7.68,12.25-3.93,2.36-5.67,4.63-5.72,9.47v.85h-9.42Zm-1.07,10.79a6,6,0,0,1,6-5.92,5.95,5.95,0,1,1,0,11.89A6,6,0,0,1,726.34,690.33Z"/><path class="cls-3" d="M552.57,257H586.9v8.82H552.57Zm0,16.5H586.9v8.83H552.57Z"/><path class="cls-3" d="M636,295.09H625.28V254.4H625l-11.66,7.3v-9.54l12.6-8H636Z"/></g></svg>