<svg xmlns="http://www.w3.org/2000/svg" viewBox="0 0 1001 1001"><defs><style>.cls-1,.cls-2{fill:none;stroke-miterlimit:10;}.cls-1{stroke:#434343;}.cls-2{stroke:#00afd9;stroke-width:5px;}.cls-3{fill:#fff;}.cls-4,.cls-5{fill:#00afd9;}.cls-5{font-size:45px;font-family:Inter-Bold, Inter;font-weight:700;}</style></defs><g id="Base"><line class="cls-1" x1="0.5" y1="1000.5" x2="36.86" y2="1000.5"/><line class="cls-1" x1="0.5" y1="1000.5" x2="0.5" y2="964.14"/><line class="cls-1" x1="1000.5" y1="0.5" x2="964.14" y2="0.5"/><line class="cls-1" x1="1000.5" y1="0.5" x2="1000.5" y2="36.86"/></g><g id="Level27"><line class="cls-2" x1="506.64" y1="310.55" x2="506.64" y2="699.88"/><line class="cls-2" x1="701.31" y1="505.21" x2="311.97" y2="505.21"/><line class="cls-2" x1="395.02" y1="395.62" x2="618.27" y2="618.87"/><line class="cls-2" x1="618.27" y1="395.62" x2="395.02" y2="618.87"/><path class="cls-3" d="M740.55,509.63c0-8.7,2.36-11.36,6.54-14,3.06-1.94,5.42-4.1,5.42-7.36,0-3.45-2.71-5.69-6.07-5.69A6.18,6.18,0,0,0,740,488.8H729.89c.22-9.94,7.58-14.66,16.6-14.66,9.87,0,16.88,5.07,16.88,13.77,0,5.84-3,9.49-7.68,12.25-3.93,2.37-5.67,4.63-5.72,9.47v.85h-9.42Zm-1.07,10.79a6,6,0,0,1,6-5.91,5.94,5.94,0,1,1,0,11.88A6,6,0,0,1,739.48,520.42Z"/><path class="cls-4" d="M461.18,594.32l13.66-21.52h8.66v21.42h4.05v5.55H483.5v5.75h-6.62v-5.75h-15.7Zm15.83-14h-.26L468.14,594v.25H477Z"/><path class="cls-4" d="M581.89,549.14l11.65-10.79c3-2.86,4.57-4.65,4.57-7.25,0-2.88-2.14-4.67-5-4.67a4.65,4.65,0,0,0-5,5.05h-6.57c0-6.42,4.7-10.52,11.57-10.52s11.64,4,11.64,9.68c0,3.72-1.8,6.79-8.53,12.92l-4.77,4.68v.23h13.74v5.65H581.89Z"/><path class="cls-4" d="M464.92,274.54,483,257.76c4.63-4.45,7.11-7.24,7.11-11.29,0-4.47-3.33-7.26-7.8-7.26-4.65,0-7.73,3-7.71,7.86H464.43c0-10,7.3-16.38,18-16.38,10.91,0,18.12,6.24,18.12,15.06,0,5.79-2.81,10.57-13.27,20.11l-7.43,7.28v.35h21.37v8.8H464.92Z"/><path class="cls-4" d="M508.27,268.59a12.91,12.91,0,0,1,11-12.57v-.35a11.31,11.31,0,0,1-9.15-11.29c0-7.88,7.53-13.69,17.85-13.69s17.85,5.81,17.87,13.69a11.42,11.42,0,0,1-9.15,11.29V256a13,13,0,0,1,11,12.57c0,8.26-8.28,14.4-19.76,14.4S508.25,276.85,508.27,268.59Zm28.29-.84c0-4.4-3.63-7.58-8.55-7.58s-8.55,3.18-8.55,7.58,3.43,7.33,8.55,7.33S536.56,272.07,536.56,267.75Zm-1.19-22.25c0-3.95-3-6.71-7.36-6.71s-7.36,2.74-7.36,6.71,3.06,6.84,7.36,6.84S535.37,249.53,535.37,245.5Z"/><path class="cls-4" d="M574.47,484.49l11.65-10.79c3-2.86,4.57-4.64,4.57-7.25,0-2.87-2.14-4.66-5-4.66a4.65,4.65,0,0,0-4.95,5h-6.57c0-6.42,4.7-10.52,11.57-10.52s11.65,4,11.65,9.68c0,3.72-1.81,6.79-8.54,12.92l-4.77,4.68v.23H597.8v5.65H574.47Z"/><path class="cls-4" d="M617.05,489.47h-6.91V463.32H610l-7.5,4.7v-6.14l8.1-5.13h6.5Z"/><text class="cls-5" transform="translate(523.35 445.72)">3</text><path class="cls-4" d="M465.14,437.37a8.31,8.31,0,0,1,7.09-8.09v-.22a7.26,7.26,0,0,1-5.87-7.26c0-5.06,4.84-8.8,11.47-8.8s11.47,3.74,11.48,8.8a7.34,7.34,0,0,1-5.88,7.26v.22a8.4,8.4,0,0,1,7.1,8.09c0,5.3-5.32,9.25-12.7,9.25S465.13,442.67,465.14,437.37Zm18.18-.55c0-2.83-2.33-4.87-5.49-4.87s-5.5,2-5.5,4.87,2.21,4.72,5.5,4.72S483.32,439.6,483.32,436.82Zm-.76-14.3c0-2.54-1.95-4.31-4.73-4.31s-4.73,1.76-4.73,4.31,2,4.4,4.73,4.4A4.4,4.4,0,0,0,482.56,422.52Z"/><path class="cls-4" d="M419.5,492.31h-6.92V466.16h-.19l-7.49,4.69v-6.13l8.1-5.13h6.5Z"/><path class="cls-4" d="M441.52,492.31H434.6V466.16h-.19l-7.49,4.69v-6.13l8.1-5.13h6.5Z"/><path class="cls-4" d="M415.74,541h6.71c.16,2.54,2.38,4.27,5.13,4.27a5.43,5.43,0,0,0,5.56-5.76,5.53,5.53,0,0,0-5.66-5.83,6.23,6.23,0,0,0-4.89,2.21l-6.15-1.1L418,517.57h20v5.66H423.7l-.85,8.19H423a8.07,8.07,0,0,1,6.5-2.81c5.9,0,10.28,4.51,10.26,10.77,0,6.61-4.94,11.36-12.22,11.36C420.8,550.74,415.87,546.7,415.74,541Z"/><path class="cls-4" d="M543.19,578.68v-.23h-15.8V572.8h23v5.73l-13.58,27h-7.15Z"/><path class="cls-4" d="M468.55,767.92l18.12-16.78c4.62-4.45,7.11-7.23,7.11-11.28,0-4.48-3.33-7.26-7.8-7.26-4.65,0-7.74,3-7.71,7.85H468.05c0-10,7.31-16.38,18-16.38,10.91,0,18.12,6.24,18.12,15.07,0,5.79-2.81,10.56-13.27,20.11l-7.44,7.28v.35h21.38v8.8H468.55Z"/><path class="cls-4" d="M510.78,758.25,532,724.77h13.47V758.1h6.31v8.63h-6.31v8.95H535.22v-8.95H510.78Zm24.64-21.75H535l-13.4,21.2v.4h13.8Z"/><path class="cls-4" d="M629.72,664a12.92,12.92,0,0,1,11-12.58v-.34a11.32,11.32,0,0,1-9.15-11.29c0-7.88,7.53-13.69,17.85-13.69s17.85,5.81,17.87,13.69a11.44,11.44,0,0,1-9.15,11.29v.34a13,13,0,0,1,11,12.58c0,8.25-8.28,14.39-19.76,14.39S629.7,672.25,629.72,664Zm28.29-.84c0-4.4-3.63-7.58-8.55-7.58s-8.55,3.18-8.55,7.58,3.43,7.33,8.55,7.33S658,667.48,658,663.16Zm-1.19-22.25c0-3.95-3-6.71-7.36-6.71s-7.36,2.73-7.36,6.71,3.06,6.84,7.36,6.84S656.82,644.94,656.82,640.91Z"/><path class="cls-4" d="M676,664a12.91,12.91,0,0,1,11-12.58v-.34a11.32,11.32,0,0,1-9.15-11.29c0-7.88,7.53-13.69,17.85-13.69s17.85,5.81,17.87,13.69a11.44,11.44,0,0,1-9.15,11.29v.34a13,13,0,0,1,11,12.58c0,8.25-8.28,14.39-19.76,14.39S676,672.25,676,664Zm28.29-.84c0-4.4-3.63-7.58-8.55-7.58s-8.55,3.18-8.55,7.58,3.43,7.33,8.55,7.33S704.27,667.48,704.27,663.16Zm-1.19-22.25c0-3.95-3-6.71-7.36-6.71s-7.36,2.73-7.36,6.71,3.06,6.84,7.36,6.84S703.08,644.94,703.08,640.91Z"/><path class="cls-4" d="M633.85,367.91,652,351.13c4.62-4.45,7.11-7.23,7.11-11.29,0-4.47-3.33-7.25-7.81-7.25-4.65,0-7.73,3-7.7,7.85H633.35c0-10,7.31-16.38,18-16.38,10.91,0,18.12,6.24,18.12,15.06,0,5.79-2.81,10.57-13.27,20.11l-7.44,7.28v.35h21.38v8.8H633.85Z"/><path class="cls-4" d="M677.35,350.26c0-16.68,7.78-26.2,20.55-26.2s20.59,9.54,20.56,26.2-7.75,26.52-20.56,26.52S677.3,367,677.35,350.26Zm30.12,0c0-11.56-3.77-17.38-9.57-17.38s-9.56,5.82-9.59,17.38c0,11.73,3.75,17.6,9.59,17.6S707.5,362,707.47,350.26Z"/><path class="cls-4" d="M328.58,375.66H317.82V335h-.3l-11.66,7.31v-9.55l12.6-8h10.12Z"/><path class="cls-4" d="M339.92,358.24l21.25-33.48h13.47v33.33H381v8.62h-6.31v9H364.35v-9H339.92Zm24.63-21.75h-.4l-13.4,21.2v.4h13.8Z"/><path class="cls-4" d="M207.16,503l21.25-33.48h13.47v33.33h6.32v8.63h-6.32v9H231.59v-9H207.16Zm24.63-21.75h-.39L218,502.48v.39h13.79Z"/><path class="cls-4" d="M255.38,512.69l18.12-16.78c4.63-4.45,7.11-7.23,7.11-11.28,0-4.48-3.33-7.26-7.8-7.26-4.65,0-7.73,3-7.71,7.86H254.89c0-10,7.3-16.39,18-16.39,10.91,0,18.12,6.24,18.12,15.07,0,5.79-2.81,10.56-13.27,20.11l-7.43,7.28v.35h21.37v8.8H255.38Z"/><path class="cls-4" d="M294,652.69c.05-17.1,8.13-27.29,20.71-27.29,10.17,0,17.13,6.54,18.15,14.91H322.24c-.82-3.55-3.63-5.69-7.53-5.69-6.64,0-10.12,6.17-10.17,16.08h.35c2.29-4.49,7.23-7.18,12.83-7.18,9,0,15.68,6.89,15.66,16.43,0,10.37-7.71,17.8-19,17.75C303.87,677.65,294,671.33,294,652.69Zm28.94,7.56c0-5-3.61-9-8.58-9a8.79,8.79,0,0,0-8.72,9,8.66,8.66,0,1,0,17.3,0Z"/><path class="cls-4" d="M340.51,662.61h10.84c.2,3.73,3.75,6.21,8.5,6.21,4.92,0,8.4-2.78,8.38-6.83s-3.58-7-9.35-7h-4.75v-7.9h4.75c4.9,0,8.3-2.71,8.28-6.71,0-3.83-2.89-6.46-7.24-6.46s-7.95,2.51-8.07,6.38H341.53c.15-8.79,8-14.91,18.44-14.91s17.58,6.31,17.55,14.34c0,5.72-3.9,9.75-9.59,10.77v.39c7.48,1,11.51,5.47,11.48,11.81,0,8.7-8.15,15-19.58,15C348.64,677.7,340.69,671.51,340.51,662.61Z"/></g></svg>