<svg xmlns="http://www.w3.org/2000/svg" viewBox="0 0 1001 1001"><defs><style>.cls-1{fill:none;stroke:#434343;stroke-miterlimit:10;}.cls-2{fill:#00afd9;}.cls-3{fill:#fff;}</style></defs><g id="Base"><line class="cls-1" x1="0.5" y1="1000.5" x2="36.86" y2="1000.5"/><line class="cls-1" x1="0.5" y1="1000.5" x2="0.5" y2="964.14"/><line class="cls-1" x1="1000.5" y1="0.5" x2="964.14" y2="0.5"/><line class="cls-1" x1="1000.5" y1="0.5" x2="1000.5" y2="36.86"/></g><g id="Level22"><path class="cls-2" d="M371.8,393.54H361V352.85h-.3l-11.66,7.31v-9.55l12.61-8H371.8Z"/><path class="cls-2" d="M383.91,385.79,402,369c4.62-4.45,7.11-7.24,7.11-11.29,0-4.47-3.33-7.26-7.81-7.26-4.65,0-7.73,3-7.7,7.86H383.41c0-10,7.31-16.38,18-16.38,10.91,0,18.12,6.24,18.12,15.06,0,5.79-2.81,10.57-13.28,20.11l-7.43,7.28v.35H420.2v8.8H383.91Z"/><path class="cls-2" d="M427.21,369.23c.05-17.1,8.13-27.29,20.7-27.29,10.17,0,17.13,6.54,18.15,14.91H455.45c-.82-3.55-3.63-5.69-7.54-5.69-6.63,0-10.11,6.17-10.16,16.08h.35c2.28-4.5,7.23-7.18,12.82-7.18,9,0,15.69,6.88,15.66,16.43,0,10.36-7.7,17.8-19,17.75C437.08,394.19,427.18,387.87,427.21,369.23Zm28.93,7.56a8.54,8.54,0,0,0-8.57-9,8.8,8.8,0,0,0-8.73,9,8.66,8.66,0,1,0,17.3,0Z"/><path class="cls-2" d="M492.93,355.41h34.33v8.83H492.93Zm0,16.51h34.33v8.82H492.93Z"/><path class="cls-2" d="M577.37,351.78v-.35H552.78v-8.8H588.5v8.93l-21.12,42H556.26Z"/><path class="cls-2" d="M594,369.23c0-17.1,8.13-27.29,20.7-27.29,10.17,0,17.13,6.54,18.15,14.91H622.23c-.81-3.55-3.62-5.69-7.53-5.69-6.63,0-10.11,6.17-10.16,16.08h.34c2.29-4.5,7.24-7.18,12.83-7.18,9,0,15.69,6.88,15.66,16.43,0,10.36-7.7,17.8-19,17.75C603.87,394.19,594,387.87,594,369.23Zm28.93,7.56a8.54,8.54,0,0,0-8.57-9,8.8,8.8,0,0,0-8.73,9,8.66,8.66,0,1,0,17.3,0Z"/><path class="cls-2" d="M371.8,477.54H361V436.85h-.3l-11.66,7.31v-9.55l12.61-8H371.8Z"/><path class="cls-2" d="M383.41,463.15h10.84c.2,3.73,3.75,6.21,8.5,6.21,4.92,0,8.4-2.78,8.38-6.83s-3.58-7-9.35-7H397v-7.9h4.75c4.9,0,8.3-2.71,8.28-6.71,0-3.83-2.89-6.47-7.24-6.47s-7.95,2.51-8.07,6.39H384.43c.15-8.8,8-14.91,18.44-14.91s17.58,6.31,17.55,14.34c0,5.72-3.9,9.74-9.59,10.76v.4c7.48.95,11.51,5.47,11.48,11.81,0,8.7-8.15,15-19.59,15C391.54,478.24,383.59,472.05,383.41,463.15Z"/><path class="cls-2" d="M430.07,469.79,448.19,453c4.62-4.45,7.11-7.24,7.11-11.29,0-4.47-3.33-7.26-7.81-7.26-4.65,0-7.73,3-7.7,7.86H429.57c0-10,7.31-16.38,18-16.38,10.91,0,18.12,6.24,18.12,15.06,0,5.79-2.81,10.57-13.28,20.11L445,468.39v.35h21.38v8.8H430.07Z"/><path class="cls-2" d="M492.88,439.41h34.33v8.83H492.88Zm0,16.51h34.33v8.82H492.88Z"/><path class="cls-2" d="M553.71,463.15h10.83c.2,3.73,3.76,6.21,8.5,6.21,4.92,0,8.41-2.78,8.38-6.83s-3.58-7-9.35-7h-4.74v-7.9h4.74c4.9,0,8.31-2.71,8.28-6.71,0-3.83-2.88-6.47-7.23-6.47s-8,2.51-8.08,6.39H554.72c.15-8.8,8-14.91,18.45-14.91s17.57,6.31,17.55,14.34c0,5.72-3.91,9.74-9.6,10.76v.4c7.48.95,11.51,5.47,11.49,11.81,0,8.7-8.16,15-19.59,15C561.83,478.24,553.88,472.05,553.71,463.15Z"/><path class="cls-2" d="M600.36,469.79,618.48,453c4.63-4.45,7.11-7.24,7.11-11.29,0-4.47-3.33-7.26-7.8-7.26-4.65,0-7.73,3-7.71,7.86H599.86c0-10,7.31-16.38,18-16.38,10.91,0,18.12,6.24,18.12,15.06,0,5.79-2.81,10.57-13.27,20.11l-7.43,7.28v.35h21.37v8.8H600.36Z"/><path class="cls-2" d="M349.66,553.79,367.78,537c4.62-4.45,7.11-7.24,7.11-11.29,0-4.47-3.34-7.26-7.81-7.26-4.65,0-7.73,3-7.7,7.86H349.16c0-10,7.31-16.38,18-16.38,10.91,0,18.12,6.24,18.12,15.06,0,5.79-2.81,10.57-13.28,20.11l-7.43,7.28v.35H386v8.8H349.66Z"/><path class="cls-2" d="M393.16,536.14c0-16.68,7.78-26.2,20.55-26.2s20.58,9.54,20.56,26.2-7.76,26.52-20.56,26.52S393.11,552.87,393.16,536.14Zm30.12,0c0-11.56-3.78-17.38-9.57-17.38s-9.57,5.82-9.59,17.38c0,11.73,3.75,17.6,9.59,17.6S423.31,547.87,423.28,536.14Z"/><path class="cls-2" d="M441.18,547.84a12.89,12.89,0,0,1,11-12.57v-.35a11.3,11.3,0,0,1-9.15-11.29c0-7.88,7.53-13.69,17.85-13.69s17.84,5.81,17.87,13.69a11.43,11.43,0,0,1-9.15,11.29v.35a13,13,0,0,1,11,12.57c0,8.26-8.28,14.4-19.76,14.4S441.15,556.1,441.18,547.84Zm28.29-.84c0-4.4-3.63-7.58-8.55-7.58s-8.55,3.18-8.55,7.58,3.42,7.33,8.55,7.33S469.47,551.33,469.47,547Zm-1.2-22.25c0-4-3-6.71-7.35-6.71s-7.36,2.74-7.36,6.71,3.06,6.84,7.36,6.84S468.27,528.78,468.27,524.75Z"/><path class="cls-2" d="M506.9,523.41h34.33v8.83H506.9Zm0,16.51h34.33v8.82H506.9Z"/><path class="cls-2" d="M568.4,547.15h10.44c.24,4,3.7,6.64,8,6.64,5.05,0,8.65-3.66,8.65-8.95s-3.67-9.05-8.79-9.08a9.65,9.65,0,0,0-7.61,3.44l-9.57-1.72,2.41-26.85H603v8.8H580.77l-1.31,12.76h.29c1.79-2.52,5.65-4.38,10.12-4.38,9.17,0,16,7,16,16.75,0,10.29-7.68,17.68-19,17.68C576.28,562.24,568.59,556,568.4,547.15Z"/><path class="cls-2" d="M612.59,547.84a12.9,12.9,0,0,1,11-12.57v-.35a11.31,11.31,0,0,1-9.15-11.29c0-7.88,7.53-13.69,17.85-13.69s17.84,5.81,17.87,13.69a11.43,11.43,0,0,1-9.15,11.29v.35a13,13,0,0,1,11,12.57c0,8.26-8.28,14.4-19.76,14.4S612.57,556.1,612.59,547.84Zm28.29-.84c0-4.4-3.63-7.58-8.55-7.58s-8.55,3.18-8.55,7.58,3.43,7.33,8.55,7.33S640.88,551.33,640.88,547Zm-1.19-22.25c0-4-3-6.71-7.36-6.71s-7.36,2.74-7.36,6.71,3.06,6.84,7.36,6.84S639.69,528.78,639.69,524.75Z"/><path class="cls-2" d="M349.66,637.79,367.78,621c4.62-4.45,7.11-7.24,7.11-11.29,0-4.47-3.34-7.26-7.81-7.26-4.65,0-7.73,3-7.7,7.86H349.16c0-10,7.31-16.38,18-16.38,10.91,0,18.12,6.24,18.12,15.06,0,5.79-2.81,10.57-13.28,20.11l-7.43,7.28v.35H386v8.8H349.66Z"/><path class="cls-2" d="M393,621.23c.05-17.1,8.12-27.29,20.7-27.29,10.17,0,17.13,6.54,18.15,14.91H421.19c-.82-3.55-3.62-5.69-7.53-5.69-6.63,0-10.11,6.17-10.16,16.08h.34c2.29-4.5,7.24-7.18,12.83-7.18,9,0,15.68,6.88,15.66,16.43,0,10.36-7.71,17.8-19,17.75C402.83,646.19,392.93,639.87,393,621.23Zm28.93,7.56a8.54,8.54,0,0,0-8.58-8.95,8.79,8.79,0,0,0-8.72,9,8.66,8.66,0,1,0,17.3,0Z"/><path class="cls-2" d="M462.11,645.54H451.34V604.85h-.29l-11.66,7.31v-9.55l12.6-8h10.12Z"/><path class="cls-2" d="M492.93,607.41h34.33v8.83H492.93Zm0,16.51h34.33v8.82H492.93Z"/><path class="cls-3" d="M563.45,629.43c0-8.7,2.36-11.36,6.54-14,3-1.94,5.41-4.1,5.41-7.36,0-3.45-2.71-5.69-6.06-5.69a6.18,6.18,0,0,0-6.41,6.21H552.78c.23-9.94,7.59-14.66,16.61-14.66,9.87,0,16.88,5.07,16.88,13.77,0,5.84-3,9.49-7.68,12.25-3.93,2.37-5.67,4.63-5.72,9.47v.85h-9.42Zm-1.07,10.79a5.93,5.93,0,0,1,6-5.91,5.94,5.94,0,1,1,0,11.88A6,6,0,0,1,562.38,640.22Z"/></g></svg>