<svg xmlns="http://www.w3.org/2000/svg" viewBox="0 0 1001 1001"><defs><style>.cls-1,.cls-2{fill:none;}.cls-1{stroke:#434343;}.cls-1,.cls-2,.cls-3{stroke-miterlimit:10;}.cls-2,.cls-3{stroke:#00afda;stroke-width:3px;}.cls-3{fill:#454546;}.cls-4{fill:#00afd9;}.cls-5{fill:#fff;}</style></defs><g id="Base"><line class="cls-1" x1="0.5" y1="1000.5" x2="36.86" y2="1000.5"/><line class="cls-1" x1="0.5" y1="1000.5" x2="0.5" y2="964.14"/><line class="cls-1" x1="1000.5" y1="0.5" x2="964.14" y2="0.5"/><line class="cls-1" x1="1000.5" y1="0.5" x2="1000.5" y2="36.86"/></g><g id="Level4"><rect class="cls-2" x="215.25" y="215.25" width="142.62" height="142.62"/><rect class="cls-2" x="357.88" y="215.25" width="142.62" height="142.62"/><rect class="cls-2" x="500.5" y="215.25" width="142.62" height="142.62"/><rect class="cls-3" x="643.12" y="215.25" width="142.62" height="142.62"/><rect class="cls-2" x="215.25" y="357.88" width="142.62" height="142.62"/><rect class="cls-2" x="357.88" y="357.88" width="142.62" height="142.62"/><rect class="cls-3" x="500.5" y="357.88" width="142.62" height="142.62"/><rect class="cls-2" x="643.12" y="357.88" width="142.62" height="142.62"/><rect class="cls-3" x="215.25" y="500.5" width="142.62" height="142.62"/><rect class="cls-3" x="357.88" y="500.5" width="142.62" height="142.62"/><rect class="cls-2" x="500.5" y="500.5" width="142.62" height="142.62"/><rect class="cls-2" x="643.12" y="500.5" width="142.62" height="142.62"/><rect class="cls-3" x="215.25" y="643.12" width="142.62" height="142.62"/><rect class="cls-3" x="357.88" y="643.12" width="142.62" height="142.62"/><rect class="cls-2" x="500.5" y="643.12" width="142.62" height="142.62"/><rect class="cls-2" x="643.12" y="643.12" width="142.62" height="142.62"/><path class="cls-4" d="M700.39,301.36h10.44c.25,4,3.7,6.64,8,6.64,5,0,8.65-3.65,8.65-8.95s-3.68-9.05-8.8-9.07a9.69,9.69,0,0,0-7.61,3.43l-9.57-1.71,2.41-26.85H735v8.8H712.77l-1.32,12.75h.3c1.79-2.51,5.64-4.37,10.11-4.37,9.18,0,16,7,16,16.75,0,10.29-7.68,17.67-19,17.67C708.27,316.45,700.59,310.16,700.39,301.36Z"/><path class="cls-4" d="M554.77,294.08H531.56v-8.4h23.21Z"/><path class="cls-4" d="M562.93,297.91l21.25-33.48h13.47v33.33H604v8.63h-6.31v8.94H587.36v-8.94H562.93Zm24.63-21.75h-.4l-13.39,21.2v.4h13.79Z"/><path class="cls-4" d="M409.36,440H420.2c.2,3.73,3.76,6.21,8.5,6.21,4.92,0,8.4-2.78,8.38-6.83s-3.58-7-9.35-7H423v-7.9h4.74c4.9,0,8.31-2.71,8.28-6.72,0-3.82-2.88-6.46-7.23-6.46s-8,2.51-8.08,6.39H410.38c.15-8.8,8-14.91,18.45-14.91s17.57,6.31,17.55,14.34c0,5.72-3.91,9.74-9.6,10.76v.4c7.48.94,11.51,5.47,11.49,11.81,0,8.7-8.16,15-19.59,15C417.49,455.12,409.54,448.94,409.36,440Z"/><path class="cls-4" d="M271.6,454.43H260.84V413.74h-.3l-11.66,7.31V411.5l12.61-8H271.6Z"/><path class="cls-4" d="M282.91,430.12c0-17.1,8.13-27.29,20.71-27.29,10.16,0,17.12,6.53,18.14,14.91H311.15c-.82-3.55-3.63-5.69-7.53-5.69-6.64,0-10.12,6.16-10.17,16.08h.35c2.29-4.5,7.23-7.18,12.83-7.18,9,0,15.68,6.88,15.65,16.43,0,10.36-7.7,17.79-19,17.74C292.78,455.08,282.89,448.76,282.91,430.12Zm28.94,7.56c0-5.05-3.61-8.95-8.58-8.95a8.78,8.78,0,0,0-8.72,9,8.66,8.66,0,1,0,17.3,0Z"/><path class="cls-4" d="M402.55,295.2H379.33v-8.4h23.22Z"/><path class="cls-4" d="M433.62,316.45H422.86V275.76h-.3l-11.66,7.31v-9.55l12.6-8h10.12Z"/><path class="cls-4" d="M445.13,291.05c0-16.68,7.78-26.2,20.55-26.2s20.59,9.54,20.56,26.2-7.76,26.52-20.56,26.52S445.08,307.78,445.13,291.05Zm30.12,0c0-11.56-3.77-17.38-9.57-17.38s-9.57,5.82-9.59,17.38c0,11.73,3.75,17.6,9.59,17.6S475.28,302.78,475.25,291.05Z"/><path class="cls-4" d="M265,291c.05-17.1,8.13-27.29,20.71-27.29,10.16,0,17.12,6.54,18.14,14.91H293.23c-.82-3.55-3.63-5.69-7.53-5.69-6.64,0-10.12,6.17-10.17,16.08h.35c2.29-4.49,7.23-7.18,12.83-7.18,9,0,15.68,6.89,15.65,16.43,0,10.37-7.7,17.8-19,17.75C274.86,316,265,309.67,265,291Zm28.94,7.56c0-5.05-3.61-8.95-8.58-8.95a8.78,8.78,0,0,0-8.72,9,8.66,8.66,0,1,0,17.3,0Z"/><path class="cls-5" d="M713.71,726.25c0-8.7,2.36-11.36,6.54-14,3-1.94,5.42-4.1,5.42-7.36,0-3.45-2.71-5.69-6.07-5.69a6.18,6.18,0,0,0-6.41,6.21H703.05c.22-9.94,7.58-14.66,16.6-14.66,9.87,0,16.88,5.07,16.88,13.77,0,5.84-3,9.49-7.68,12.25-3.93,2.36-5.67,4.63-5.72,9.47v.85h-9.42ZM712.64,737a6,6,0,0,1,6-5.91,5.94,5.94,0,1,1,0,11.88A6,6,0,0,1,712.64,737Z"/><path class="cls-4" d="M549.49,439.34a12.9,12.9,0,0,1,11-12.58v-.34a11.31,11.31,0,0,1-9.15-11.29c0-7.88,7.53-13.69,17.84-13.69s17.85,5.81,17.88,13.69A11.45,11.45,0,0,1,578,426.42v.34a13.06,13.06,0,0,1,11,12.58c0,8.25-8.28,14.39-19.77,14.39S549.46,447.59,549.49,439.34Zm28.29-.84c0-4.4-3.63-7.58-8.56-7.58s-8.55,3.18-8.55,7.58,3.43,7.33,8.55,7.33S577.78,442.82,577.78,438.5Zm-1.2-22.25c0-3.95-3-6.71-7.36-6.71s-7.35,2.73-7.35,6.71,3,6.84,7.35,6.84S576.58,420.28,576.58,416.25Z"/><path class="cls-4" d="M735.44,426.27c0,17.27-8.11,27.46-20.71,27.46-10.19,0-17.15-6.48-18.15-15.06H707.2c.82,3.7,3.63,5.84,7.53,5.84,6.64,0,10.14-6.14,10.17-16.23h-.35c-2.26,4.47-7.24,7.18-12.83,7.18-9,0-15.61-6.88-15.63-16.38-.05-10.24,7.63-17.69,19-17.64C725.57,401.49,735.41,407.82,735.44,426.27Zm-28.91-7.48c0,5,3.58,8.87,8.55,8.87a8.89,8.89,0,0,0,.1-17.77A8.57,8.57,0,0,0,706.53,418.79Z"/><path class="cls-4" d="M553.61,585.6l18.13-16.78c4.62-4.45,7.1-7.23,7.1-11.28,0-4.48-3.33-7.26-7.8-7.26-4.65,0-7.73,3-7.71,7.85H553.12c0-10,7.3-16.38,18-16.38,10.92,0,18.12,6.24,18.12,15.06,0,5.8-2.81,10.57-13.27,20.11l-7.43,7.29v.34h21.38v8.8h-36.3Z"/><path class="cls-4" d="M535.68,734.61l18.12-16.78c4.63-4.45,7.11-7.24,7.11-11.29,0-4.47-3.33-7.26-7.8-7.26-4.65,0-7.73,3-7.71,7.86H535.19c0-10,7.3-16.38,18-16.38,10.91,0,18.12,6.24,18.12,15.06,0,5.79-2.81,10.57-13.27,20.11l-7.43,7.28v.35H572v8.8H535.68Z"/><path class="cls-4" d="M579,728.67a12.91,12.91,0,0,1,11-12.58v-.35a11.31,11.31,0,0,1-9.15-11.29c0-7.87,7.53-13.69,17.85-13.69s17.85,5.82,17.87,13.69a11.42,11.42,0,0,1-9.15,11.29v.35a13,13,0,0,1,11,12.58c0,8.25-8.28,14.39-19.76,14.39S579,736.92,579,728.67Zm28.29-.85c0-4.4-3.63-7.58-8.55-7.58s-8.55,3.18-8.55,7.58,3.43,7.33,8.55,7.33S607.32,732.14,607.32,727.82Zm-1.19-22.25c0-4-3-6.71-7.36-6.71s-7.36,2.74-7.36,6.71,3.06,6.84,7.36,6.84S606.13,709.6,606.13,705.57Z"/><path class="cls-4" d="M699,571.41H675.78V563H699Z"/><path class="cls-4" d="M707.18,579a12.9,12.9,0,0,1,11-12.58V566a11.3,11.3,0,0,1-9.14-11.29c0-7.88,7.53-13.69,17.84-13.69s17.85,5.81,17.88,13.69A11.45,11.45,0,0,1,735.64,566v.34a13,13,0,0,1,11,12.58c0,8.25-8.27,14.39-19.76,14.39S707.15,587.21,707.18,579Zm28.28-.84c0-4.4-3.63-7.58-8.55-7.58s-8.55,3.18-8.55,7.58,3.43,7.33,8.55,7.33S735.46,582.44,735.46,578.12Zm-1.19-22.25c0-4-3-6.71-7.36-6.71s-7.35,2.73-7.35,6.71,3.05,6.84,7.35,6.84S734.27,559.9,734.27,555.87Z"/><path class="cls-4" d="M405.74,578.27h10.83c.2,3.72,3.76,6.21,8.51,6.21,4.92,0,8.4-2.78,8.37-6.84s-3.58-7-9.34-7h-4.75v-7.91h4.75c4.89,0,8.3-2.7,8.27-6.71,0-3.82-2.88-6.46-7.23-6.46s-7.95,2.51-8.08,6.39H406.76c.14-8.8,8-14.91,18.44-14.91s17.57,6.31,17.55,14.34c0,5.71-3.9,9.74-9.6,10.76v.4c7.49.94,11.51,5.47,11.49,11.81,0,8.69-8.16,15-19.59,15C413.86,593.35,405.91,587.16,405.74,578.27Z"/><path class="cls-4" d="M291.27,742.36H280.5V701.67h-.3L268.55,709v-9.55l12.6-8h10.12Z"/><path class="cls-4" d="M417.75,742.36H407V701.67h-.3L395,709v-9.55l12.61-8h10.11Z"/><path class="cls-4" d="M453,700.6v-.35H428.39v-8.8h35.72v8.93l-21.13,42H431.87Z"/><path class="cls-4" d="M268.05,593.35H257.29V552.66H257L245.33,560v-9.54l12.6-8h10.12Z"/><path class="cls-4" d="M303.27,551.59v-.34H278.69v-8.8h35.72v8.92l-21.13,42H282.17Z"/></g></svg>