<svg xmlns="http://www.w3.org/2000/svg" viewBox="0 0 1001 1001"><defs><style>.cls-1{fill:none;stroke:#434343;stroke-miterlimit:10;}.cls-2{fill:#00afd9;}.cls-3{fill:#fff;}</style></defs><g id="Base"><line class="cls-1" x1="0.5" y1="1000.5" x2="36.86" y2="1000.5"/><line class="cls-1" x1="0.5" y1="1000.5" x2="0.5" y2="964.14"/><line class="cls-1" x1="1000.5" y1="0.5" x2="964.14" y2="0.5"/><line class="cls-1" x1="1000.5" y1="0.5" x2="1000.5" y2="36.86"/></g><g id="Level18"><path class="cls-2" d="M373.48,386.05a12.9,12.9,0,0,1,11-12.58v-.35a11.31,11.31,0,0,1-9.15-11.28c0-7.88,7.53-13.7,17.85-13.7s17.85,5.82,17.87,13.7a11.42,11.42,0,0,1-9.15,11.28v.35a13,13,0,0,1,11,12.58c0,8.25-8.28,14.39-19.76,14.39S373.46,394.3,373.48,386.05Zm28.29-.85c0-4.4-3.63-7.58-8.55-7.58s-8.55,3.18-8.55,7.58,3.43,7.33,8.55,7.33S401.77,389.53,401.77,385.2ZM400.58,363c0-3.95-3-6.71-7.36-6.71s-7.36,2.74-7.36,6.71,3.06,6.84,7.36,6.84S400.58,367,400.58,363Z"/><path class="cls-2" d="M439.2,361.61h34.33v8.83H439.2Zm0,16.51h34.33v8.82H439.2Z"/><path class="cls-2" d="M522.67,399.74H511.91V359.05h-.3L500,366.36v-9.55l12.61-8h10.11Z"/><path class="cls-2" d="M557.89,358v-.34H533.31v-8.8H569v8.92l-21.13,42H536.79Z"/><path class="cls-2" d="M374.23,476l18.12-16.78c4.62-4.45,7.11-7.23,7.11-11.29,0-4.47-3.33-7.25-7.81-7.25-4.65,0-7.73,3-7.7,7.85H373.73c0-10,7.31-16.38,18-16.38,10.91,0,18.12,6.24,18.12,15.06,0,5.79-2.81,10.57-13.28,20.11l-7.43,7.28v.35h21.38v8.8H374.23Z"/><path class="cls-2" d="M418.32,476l18.12-16.78c4.63-4.45,7.11-7.23,7.11-11.29,0-4.47-3.33-7.25-7.8-7.25-4.65,0-7.73,3-7.71,7.85H417.83c0-10,7.3-16.38,18-16.38,10.92,0,18.12,6.24,18.12,15.06,0,5.79-2.81,10.57-13.27,20.11l-7.43,7.28v.35h21.37v8.8H418.32Z"/><path class="cls-2" d="M481.14,445.61h34.32v8.83H481.14Zm0,16.51h34.32v8.82H481.14Z"/><path class="cls-2" d="M541.69,466.32l21.25-33.48h13.47v33.33h6.32v8.62h-6.32v8.95H566.12v-8.95H541.69Zm24.63-21.75h-.4l-13.39,21.2v.4h13.79Z"/><path class="cls-2" d="M590.08,469.35h10.44c.25,3.95,3.71,6.64,8,6.64,5,0,8.65-3.66,8.65-8.95s-3.68-9.05-8.8-9.07a9.64,9.64,0,0,0-7.6,3.43l-9.57-1.72,2.41-26.84h31.12v8.8H602.46l-1.31,12.75h.29c1.79-2.51,5.65-4.38,10.12-4.38,9.17,0,16,7,16,16.75,0,10.3-7.68,17.68-19,17.68C598,484.44,590.28,478.15,590.08,469.35Z"/><path class="cls-2" d="M396.37,567.74H385.61V527.05h-.3l-11.65,7.31v-9.55l12.6-8h10.11Z"/><path class="cls-2" d="M408.65,553.35h10.44c.25,3.95,3.71,6.64,8,6.64,5.05,0,8.65-3.66,8.65-9s-3.68-9-8.8-9.07a9.64,9.64,0,0,0-7.6,3.43l-9.57-1.72,2.41-26.84h31.12v8.8H421l-1.31,12.75H420c1.79-2.51,5.65-4.38,10.12-4.38,9.17,0,16,7,16,16.75,0,10.3-7.68,17.68-19,17.68C416.53,568.44,408.85,562.15,408.65,553.35Z"/><path class="cls-2" d="M472.31,529.61h34.33v8.83H472.31Zm0,16.51h34.33v8.82H472.31Z"/><path class="cls-2" d="M533.14,553.35H544c.2,3.73,3.76,6.21,8.5,6.21,4.93,0,8.41-2.78,8.38-6.83s-3.58-7-9.35-7h-4.74v-7.9h4.74c4.9,0,8.31-2.71,8.28-6.71,0-3.83-2.88-6.46-7.23-6.46s-8,2.51-8.08,6.38H534.16c.14-8.8,8-14.91,18.44-14.91s17.57,6.31,17.55,14.34c0,5.72-3.91,9.75-9.6,10.76v.4c7.48,1,11.51,5.47,11.49,11.81,0,8.7-8.16,15-19.59,15C541.26,568.44,533.31,562.25,533.14,553.35Z"/><path class="cls-2" d="M601.94,567.74H591.18V527.05h-.3l-11.66,7.31v-9.55l12.6-8h10.12Z"/><path class="cls-2" d="M374.23,644l18.12-16.78c4.62-4.45,7.11-7.23,7.11-11.29,0-4.47-3.33-7.25-7.81-7.25-4.65,0-7.73,3-7.7,7.85H373.73c0-10,7.31-16.38,18-16.38,10.91,0,18.12,6.24,18.12,15.06,0,5.79-2.81,10.57-13.28,20.11l-7.43,7.28v.35h21.38v8.8H374.23Z"/><path class="cls-2" d="M417.73,626.34c0-16.68,7.78-26.2,20.55-26.2s20.59,9.54,20.56,26.2-7.76,26.52-20.56,26.52S417.68,643.07,417.73,626.34Zm30.12,0c0-11.56-3.78-17.38-9.57-17.38s-9.57,5.82-9.59,17.38c0,11.73,3.75,17.6,9.59,17.6S447.88,638.07,447.85,626.34Z"/><path class="cls-2" d="M485.21,613.61h34.33v8.83H485.21Zm0,16.51h34.33v8.82H485.21Z"/><path class="cls-3" d="M555.73,635.63c0-8.69,2.36-11.35,6.54-14,3.06-1.94,5.42-4.1,5.42-7.36,0-3.45-2.71-5.69-6.07-5.69a6.18,6.18,0,0,0-6.41,6.22H545.07c.22-9.95,7.58-14.67,16.6-14.67,9.87,0,16.88,5.07,16.88,13.77,0,5.84-3,9.5-7.68,12.25-3.93,2.37-5.67,4.63-5.72,9.47v.85h-9.42Zm-1.07,10.79a6,6,0,0,1,6-5.91,5.94,5.94,0,1,1,0,11.88A6,6,0,0,1,554.66,646.42Z"/></g></svg>