<svg xmlns="http://www.w3.org/2000/svg" viewBox="0 0 1001 1001"><defs><style>.cls-1{fill:none;stroke:#434343;stroke-miterlimit:10;}.cls-2{fill:#00afd9;}.cls-3{fill:#fff;}</style></defs><g id="Base"><line class="cls-1" x1="0.5" y1="1000.5" x2="36.86" y2="1000.5"/><line class="cls-1" x1="0.5" y1="1000.5" x2="0.5" y2="964.14"/><line class="cls-1" x1="1000.5" y1="0.5" x2="964.14" y2="0.5"/><line class="cls-1" x1="1000.5" y1="0.5" x2="1000.5" y2="36.86"/></g><g id="Level10"><path class="cls-2" d="M325.63,435.54l17.58-50.91h13.87l17.54,50.91H363.09l-3.78-11.61H340.94l-3.77,11.61Zm31-20-6.26-19.26h-.4l-6.26,19.26Z"/><path class="cls-2" d="M411.89,414.64H398.74v-8.9h13.15V392.59h8.89v13.15h13.15v8.9H420.78v13.15h-8.89Z"/><path class="cls-2" d="M460.78,384.63h20.38c11.24,0,16.9,5.42,16.9,13.05,0,6-3.9,9.75-9.19,10.94v.5c5.79.27,11.18,4.82,11.18,12.35,0,8.11-6.09,14.07-17.52,14.07H460.78Zm18.74,21.31c4.4,0,7.68-2.44,7.68-6.47,0-3.67-2.71-6.14-7.48-6.14h-8.18v12.61Zm.8,20.8c6,0,8.62-2.51,8.62-6.34,0-4.2-3.21-7.18-8.38-7.18h-9v13.52Z"/><path class="cls-2" d="M525.46,397.41h34.32v8.83H525.46Zm0,16.51h34.32v8.82H525.46Z"/><path class="cls-2" d="M586,411.23c0-17.1,8.13-27.29,20.71-27.29,10.16,0,17.12,6.54,18.14,14.91H614.22c-.82-3.55-3.63-5.69-7.53-5.69-6.64,0-10.12,6.17-10.17,16.08h.35c2.29-4.5,7.23-7.18,12.83-7.18,9,0,15.68,6.88,15.65,16.43,0,10.36-7.7,17.8-19,17.75C595.85,436.19,586,429.87,586,411.23Zm28.94,7.56c0-5.05-3.61-9-8.58-9a8.78,8.78,0,0,0-8.72,9,8.66,8.66,0,1,0,17.3,0Z"/><path class="cls-2" d="M632.39,410.14c0-16.68,7.78-26.2,20.56-26.2s20.58,9.54,20.55,26.2-7.75,26.52-20.55,26.52S632.34,426.87,632.39,410.14Zm30.13,0c0-11.56-3.78-17.38-9.57-17.38s-9.57,5.82-9.6,17.38c0,11.73,3.76,17.6,9.6,17.6S662.54,421.87,662.52,410.14Z"/><path class="cls-2" d="M325.63,519.54l17.58-50.91h13.87l17.54,50.91H363.09l-3.78-11.61H340.94l-3.77,11.61Zm31-20-6.26-19.26h-.4l-6.26,19.26Z"/><path class="cls-2" d="M420.56,498.29H397.34v-8.4h23.22Z"/><path class="cls-2" d="M446,468.63H466.4c11.23,0,16.9,5.42,16.9,13.05,0,6-3.9,9.75-9.2,10.94v.5c5.79.27,11.19,4.82,11.19,12.35,0,8.11-6.09,14.07-17.53,14.07H446Zm18.75,21.31c4.4,0,7.68-2.44,7.68-6.47,0-3.67-2.71-6.14-7.49-6.14h-8.17v12.61Zm.79,20.8c6,0,8.63-2.51,8.63-6.34,0-4.2-3.21-7.18-8.38-7.18h-9v13.52Z"/><path class="cls-2" d="M510.69,481.41H545v8.83H510.69Zm0,16.51H545v8.82H510.69Z"/><path class="cls-2" d="M571.24,502.12l21.26-33.49H606V502h6.31v8.62H606v8.95H595.68v-8.95H571.24Zm24.64-21.75h-.4l-13.4,21.2v.4h13.8Z"/><path class="cls-2" d="M618.87,494.14c0-16.68,7.78-26.2,20.55-26.2S660,477.48,660,494.14s-7.75,26.52-20.56,26.52S618.82,510.87,618.87,494.14Zm30.13,0c0-11.56-3.78-17.38-9.58-17.38s-9.56,5.82-9.59,17.38c0,11.73,3.75,17.6,9.59,17.6S649,505.87,649,494.14Z"/><path class="cls-2" d="M325.63,603.54l17.58-50.91h13.87l17.54,50.91H363.09l-3.78-11.61H340.94l-3.77,11.61Zm31-20-6.26-19.26h-.4l-6.26,19.26Z"/><path class="cls-2" d="M402.54,611.2h-9.12l16.4-61h9.12Z"/><path class="cls-2" d="M440.49,552.63h20.39c11.23,0,16.9,5.42,16.9,13,0,6-3.9,9.75-9.2,10.94v.5c5.79.27,11.19,4.82,11.19,12.35,0,8.11-6.09,14.07-17.53,14.07H440.49Zm18.75,21.31c4.4,0,7.68-2.44,7.68-6.47,0-3.67-2.71-6.14-7.48-6.14h-8.18v12.61Zm.79,20.8c6,0,8.63-2.51,8.63-6.34,0-4.2-3.21-7.18-8.38-7.18h-9v13.52Z"/><path class="cls-2" d="M505.17,565.41H539.5v8.83H505.17Zm0,16.51H539.5v8.82H505.17Z"/><path class="cls-3" d="M575.69,587.43c0-8.7,2.36-11.35,6.54-14,3.06-1.94,5.42-4.1,5.42-7.36,0-3.45-2.71-5.69-6.07-5.69a6.18,6.18,0,0,0-6.41,6.21H565c.22-9.94,7.58-14.66,16.6-14.66,9.87,0,16.88,5.07,16.88,13.77,0,5.84-3,9.5-7.68,12.25-3.93,2.37-5.67,4.63-5.72,9.47v.85h-9.42Zm-1.07,10.79a6,6,0,0,1,6-5.91,5.94,5.94,0,1,1,0,11.88A6,6,0,0,1,574.62,598.22Z"/></g></svg>