<svg xmlns="http://www.w3.org/2000/svg" viewBox="0 0 1001 1001"><defs><style>.cls-1{fill:none;stroke:#434343;stroke-miterlimit:10;}.cls-2{fill:#00afd9;}.cls-3{fill:#fff;}</style></defs><g id="Base"><line class="cls-1" x1="0.5" y1="1000.5" x2="36.86" y2="1000.5"/><line class="cls-1" x1="0.5" y1="1000.5" x2="0.5" y2="964.14"/><line class="cls-1" x1="1000.5" y1="0.5" x2="964.14" y2="0.5"/><line class="cls-1" x1="1000.5" y1="0.5" x2="1000.5" y2="36.86"/></g><g id="Level11"><path class="cls-2" d="M219.64,520.09H208.88V479.4h-.3l-11.66,7.3v-9.54l12.61-8h10.11Z"/><path class="cls-2" d="M253.89,520.09H243.13V479.4h-.3l-11.65,7.3v-9.54l12.6-8h10.11Z"/><path class="cls-2" d="M274.65,515.86c-.67,6.59-3.5,13.65-4.7,16.66h-6.86c.72-2.91,2.66-9.85,3-16.61l.12-2.78h8.75Z"/><path class="cls-2" d="M320.51,520.09H309.75V479.4h-.3l-11.66,7.3v-9.54l12.6-8h10.12Z"/><path class="cls-2" d="M331.82,495.78c.05-17.1,8.13-27.3,20.71-27.3,10.16,0,17.12,6.54,18.14,14.92H360.06c-.82-3.56-3.63-5.69-7.53-5.69-6.64,0-10.12,6.16-10.17,16.08h.35c2.28-4.5,7.23-7.18,12.82-7.18,9,0,15.69,6.88,15.66,16.42,0,10.37-7.7,17.8-19,17.75C341.69,520.73,331.8,514.42,331.82,495.78Zm28.93,7.55a8.53,8.53,0,0,0-8.57-8.94,8.79,8.79,0,0,0-8.73,9,8.66,8.66,0,1,0,17.3,0Z"/><path class="cls-2" d="M388.07,515.86c-.67,6.59-3.5,13.65-4.7,16.66h-6.86c.73-2.91,2.66-9.85,3-16.61l.13-2.78h8.75Z"/><path class="cls-2" d="M411.79,512.33l18.12-16.78c4.62-4.45,7.1-7.23,7.1-11.28,0-4.48-3.33-7.26-7.8-7.26-4.65,0-7.73,3-7.71,7.85H411.29c0-10,7.31-16.38,18-16.38,10.92,0,18.13,6.24,18.13,15.07,0,5.79-2.81,10.56-13.28,20.11l-7.43,7.28v.35h21.38v8.8H411.79Z"/><path class="cls-2" d="M455.88,512.33,474,495.55c4.62-4.45,7.11-7.23,7.11-11.28,0-4.48-3.33-7.26-7.8-7.26-4.65,0-7.73,3-7.71,7.85H455.38c0-10,7.31-16.38,18-16.38,10.91,0,18.12,6.24,18.12,15.07,0,5.79-2.81,10.56-13.27,20.11l-7.44,7.28v.35h21.38v8.8H455.88Z"/><path class="cls-2" d="M511.31,515.86c-.67,6.59-3.5,13.65-4.7,16.66h-6.86c.72-2.91,2.66-9.85,3-16.61l.13-2.78h8.75Z"/><path class="cls-2" d="M535,512.33l18.12-16.78c4.62-4.45,7.1-7.23,7.1-11.28,0-4.48-3.33-7.26-7.8-7.26-4.65,0-7.73,3-7.71,7.85H534.53c0-10,7.31-16.38,18-16.38,10.92,0,18.13,6.24,18.13,15.07,0,5.79-2.81,10.56-13.28,20.11l-7.43,7.28v.35h21.38v8.8H535Z"/><path class="cls-2" d="M617.87,493.32c0,17.27-8.1,27.46-20.7,27.46C587,520.78,580,514.3,579,505.72h10.62c.82,3.7,3.62,5.84,7.53,5.84,6.63,0,10.14-6.14,10.16-16.23H607c-2.27,4.47-7.24,7.18-12.83,7.18-9,0-15.61-6.88-15.64-16.38,0-10.24,7.64-17.69,19-17.65C608,468.53,617.85,474.87,617.87,493.32ZM589,485.83c0,5,3.58,8.88,8.56,8.88a8.89,8.89,0,0,0,.09-17.77A8.58,8.58,0,0,0,589,485.83Z"/><path class="cls-2" d="M634.58,515.86c-.67,6.59-3.51,13.65-4.7,16.66H623c.72-2.91,2.66-9.85,3-16.61l.12-2.78h8.75Z"/><path class="cls-2" d="M657.79,505.69h10.84c.2,3.73,3.75,6.22,8.5,6.22,4.92,0,8.4-2.79,8.38-6.84s-3.58-7-9.35-7h-4.74v-7.91h4.74c4.9,0,8.3-2.7,8.28-6.71,0-3.82-2.88-6.46-7.23-6.46s-8,2.51-8.08,6.39H658.81c.15-8.8,8-14.92,18.45-14.92s17.57,6.32,17.55,14.35c0,5.71-3.91,9.74-9.6,10.76v.4c7.48.94,11.51,5.47,11.48,11.8,0,8.7-8.15,15-19.58,15C665.92,520.78,658,514.59,657.79,505.69Z"/><path class="cls-2" d="M727.57,478.33V478H703v-8.8H738.7v8.92l-21.12,42H706.46Z"/><path class="cls-2" d="M748.67,515.86c-.67,6.59-3.5,13.65-4.7,16.66h-6.86c.72-2.91,2.66-9.85,3-16.61l.12-2.78h8.75Z"/><path class="cls-3" d="M781.58,504c0-8.7,2.36-11.36,6.54-14,3.06-1.94,5.42-4.11,5.42-7.36,0-3.46-2.71-5.69-6.07-5.69a6.18,6.18,0,0,0-6.41,6.21H770.92c.22-9.94,7.58-14.67,16.6-14.67,9.87,0,16.88,5.08,16.88,13.78,0,5.84-3,9.49-7.68,12.25-3.93,2.36-5.67,4.62-5.72,9.47v.84h-9.42Zm-1.07,10.79a6,6,0,0,1,6-5.92,5.94,5.94,0,1,1,0,11.88A6,6,0,0,1,780.51,514.77Z"/></g></svg>