<svg xmlns="http://www.w3.org/2000/svg" viewBox="0 0 1001 1001"><defs><style>.cls-1{fill:none;stroke:#434343;stroke-miterlimit:10;}.cls-2{fill:#00afd9;}.cls-3{fill:#fff;}</style></defs><g id="Base"><line class="cls-1" x1="0.5" y1="1000.5" x2="36.86" y2="1000.5"/><line class="cls-1" x1="0.5" y1="1000.5" x2="0.5" y2="964.14"/><line class="cls-1" x1="1000.5" y1="0.5" x2="964.14" y2="0.5"/><line class="cls-1" x1="1000.5" y1="0.5" x2="1000.5" y2="36.86"/></g><g id="Level9"><path class="cls-2" d="M394.67,375.67c.05-17.1,8.13-27.29,20.71-27.29,10.16,0,17.12,6.53,18.14,14.91H422.91c-.82-3.55-3.63-5.69-7.53-5.69-6.64,0-10.12,6.16-10.17,16.08h.35c2.29-4.5,7.23-7.18,12.83-7.18,9,0,15.68,6.88,15.66,16.43,0,10.36-7.71,17.79-19,17.74C404.54,400.62,394.65,394.31,394.67,375.67Zm28.94,7.55a8.55,8.55,0,0,0-8.58-8.94,8.78,8.78,0,0,0-8.72,9,8.66,8.66,0,1,0,17.3,0Z"/><path class="cls-2" d="M460.39,361.85h34.33v8.82H460.39Zm0,16.5h34.33v8.83H460.39Z"/><path class="cls-2" d="M520.94,382.55l21.26-33.48h13.47V382.4H562V391h-6.31v9H545.38v-9H520.94Zm24.64-21.75h-.4L531.78,382v.39h13.8Z"/><path class="cls-2" d="M569.17,392.22l18.12-16.78c4.62-4.45,7.11-7.23,7.11-11.28,0-4.47-3.33-7.26-7.81-7.26-4.65,0-7.73,3-7.7,7.86H568.67c0-10,7.31-16.38,18-16.38,10.91,0,18.12,6.23,18.12,15.06,0,5.79-2.81,10.56-13.28,20.11l-7.43,7.28v.35h21.38V400H569.17Z"/><path class="cls-2" d="M395.64,469.59h10.44c.25,4,3.71,6.63,8,6.63,5.05,0,8.65-3.65,8.65-9s-3.68-9-8.8-9.07a9.66,9.66,0,0,0-7.6,3.43l-9.57-1.71,2.41-26.85h31.12v8.8H408l-1.32,12.75h.3c1.79-2.51,5.64-4.37,10.12-4.37,9.17,0,16,7,16,16.75,0,10.29-7.68,17.67-19,17.67C403.52,484.67,395.84,478.39,395.64,469.59Z"/><path class="cls-2" d="M459.3,445.85h34.33v8.82H459.3Zm0,16.5h34.33v8.83H459.3Z"/><path class="cls-2" d="M520.12,469.59H531c.2,3.72,3.76,6.21,8.5,6.21,4.92,0,8.4-2.78,8.38-6.84s-3.58-7-9.35-7h-4.74v-7.9h4.74c4.9,0,8.31-2.71,8.28-6.72,0-3.82-2.88-6.46-7.23-6.46s-8,2.51-8.08,6.39H521.14c.15-8.8,8-14.91,18.45-14.91s17.57,6.31,17.55,14.34c0,5.71-3.91,9.74-9.6,10.76v.4c7.48.94,11.51,5.47,11.48,11.81,0,8.7-8.15,15-19.58,15C528.25,484.67,520.3,478.48,520.12,469.59Z"/><path class="cls-2" d="M567,469.59h10.44c.25,4,3.71,6.63,8,6.63,5,0,8.65-3.65,8.65-9s-3.68-9-8.8-9.07a9.67,9.67,0,0,0-7.6,3.43l-9.57-1.71,2.41-26.85h31.12v8.8H579.33L578,454.62h.29c1.79-2.51,5.65-4.37,10.12-4.37,9.17,0,16,7,16,16.75,0,10.29-7.68,17.67-19,17.67C574.83,484.67,567.15,478.39,567,469.59Z"/><path class="cls-2" d="M434.22,541.21c0,17.27-8.1,27.46-20.71,27.46-10.19,0-17.15-6.48-18.14-15.06H406c.82,3.7,3.63,5.84,7.53,5.84,6.64,0,10.15-6.14,10.17-16.23h-.35c-2.26,4.47-7.23,7.18-12.82,7.18-9,0-15.61-6.88-15.64-16.38-.05-10.24,7.63-17.69,19-17.64C424.35,516.43,434.19,522.76,434.22,541.21Zm-28.91-7.48c0,5,3.58,8.87,8.55,8.87a8.89,8.89,0,0,0,.1-17.77A8.58,8.58,0,0,0,405.31,533.73Z"/><path class="cls-2" d="M460.39,529.85h34.33v8.82H460.39Zm0,16.5h34.33v8.83H460.39Z"/><path class="cls-2" d="M520.92,543.67c.05-17.1,8.13-27.29,20.71-27.29,10.16,0,17.12,6.53,18.14,14.91H549.16c-.82-3.55-3.63-5.69-7.53-5.69-6.64,0-10.12,6.16-10.17,16.08h.35c2.28-4.5,7.23-7.18,12.82-7.18,9,0,15.69,6.88,15.66,16.43,0,10.36-7.7,17.79-19,17.74C530.79,568.62,520.89,562.31,520.92,543.67Zm28.93,7.55a8.53,8.53,0,0,0-8.57-8.94,8.79,8.79,0,0,0-8.73,9,8.66,8.66,0,1,0,17.3,0Z"/><path class="cls-2" d="M567.43,553.59h10.83c.2,3.72,3.76,6.21,8.51,6.21,4.92,0,8.4-2.78,8.37-6.84s-3.58-7-9.34-7h-4.75v-7.9h4.75c4.89,0,8.3-2.71,8.27-6.72,0-3.82-2.88-6.46-7.23-6.46s-8,2.51-8.08,6.39H568.45c.14-8.8,8-14.91,18.44-14.91s17.57,6.31,17.55,14.34c0,5.71-3.9,9.74-9.6,10.76v.4c7.49.94,11.51,5.47,11.49,11.81,0,8.7-8.15,15-19.59,15C575.55,568.67,567.6,562.48,567.43,553.59Z"/><path class="cls-2" d="M394.7,634.55,416,601.07h13.47V634.4h6.32V643h-6.32v9H419.13v-9H394.7Zm24.63-21.75h-.4L405.53,634v.39h13.8Z"/><path class="cls-2" d="M461.64,613.85H496v8.82H461.64Zm0,16.5H496v8.83H461.64Z"/><path class="cls-3" d="M532.16,635.87c0-8.7,2.36-11.36,6.53-14,3.06-1.94,5.42-4.1,5.42-7.36,0-3.46-2.71-5.69-6.06-5.69a6.18,6.18,0,0,0-6.42,6.21H521.49c.23-9.94,7.58-14.66,16.61-14.66,9.86,0,16.87,5.07,16.87,13.77,0,5.84-3,9.49-7.68,12.25-3.92,2.36-5.66,4.62-5.71,9.47v.85h-9.42Zm-1.07,10.79a5.93,5.93,0,0,1,6-5.92,5.94,5.94,0,1,1,0,11.88A5.94,5.94,0,0,1,531.09,646.66Z"/></g></svg>