<svg xmlns="http://www.w3.org/2000/svg" viewBox="0 0 1001 1001"><defs><style>.cls-1,.cls-4,.cls-5{fill:none;stroke-miterlimit:10;}.cls-1{stroke:#434343;}.cls-2{fill:#fff;}.cls-3{fill:#00afda;}.cls-4{stroke:#00afda;stroke-width:3px;}.cls-5{stroke:#00afd9;stroke-width:2px;}</style></defs><g id="Base"><line class="cls-1" x1="0.5" y1="1000.5" x2="36.86" y2="1000.5"/><line class="cls-1" x1="0.5" y1="1000.5" x2="0.5" y2="964.14"/><line class="cls-1" x1="1000.5" y1="0.5" x2="964.14" y2="0.5"/><line class="cls-1" x1="1000.5" y1="0.5" x2="1000.5" y2="36.86"/></g><g id="Level3"><path class="cls-2" d="M763.16,715.91c0-8.7,2.36-11.36,6.54-14,3.06-1.94,5.42-4.1,5.42-7.36,0-3.45-2.71-5.69-6.07-5.69a6.18,6.18,0,0,0-6.41,6.21H752.5c.22-9.94,7.58-14.66,16.6-14.66,9.87,0,16.88,5.07,16.88,13.77,0,5.84-3,9.49-7.68,12.25-3.93,2.36-5.67,4.63-5.72,9.47v.85h-9.42Zm-1.07,10.79a6,6,0,0,1,6-5.91,5.94,5.94,0,1,1,0,11.88A6,6,0,0,1,762.09,726.7Z"/><path class="cls-3" d="M215,547.05a12.89,12.89,0,0,1,11-12.58v-.35a11.29,11.29,0,0,1-9.15-11.28c0-7.88,7.53-13.7,17.84-13.7s17.85,5.82,17.88,13.7a11.43,11.43,0,0,1-9.15,11.28v.35a13,13,0,0,1,11,12.58c0,8.25-8.28,14.39-19.77,14.39S215,555.3,215,547.05Zm28.29-.85c0-4.4-3.63-7.58-8.56-7.58s-8.55,3.18-8.55,7.58,3.43,7.34,8.55,7.34S243.31,550.53,243.31,546.2ZM242.11,524c0-4-3-6.71-7.36-6.71S227.4,520,227.4,524s3,6.83,7.35,6.83S242.11,528,242.11,524Z"/><path class="cls-3" d="M262.2,546.35h10.44c.25,3.95,3.7,6.64,8,6.64,5,0,8.65-3.65,8.65-9s-3.68-9-8.8-9.07a9.69,9.69,0,0,0-7.61,3.43l-9.57-1.72,2.41-26.84h31.12v8.8H274.58l-1.32,12.75h.3c1.79-2.51,5.64-4.38,10.11-4.38,9.18,0,16,7,16,16.76,0,10.29-7.68,17.67-19,17.67C270.08,561.44,262.4,555.15,262.2,546.35Z"/><path class="cls-3" d="M484.11,292.29v-.35H459.52v-8.8h35.72v8.93l-21.12,42H463Z"/><path class="cls-3" d="M500.94,308.65c0-16.68,7.78-26.2,20.55-26.2s20.58,9.54,20.56,26.2-7.76,26.52-20.56,26.52S500.89,325.38,500.94,308.65Zm30.12,0c0-11.56-3.78-17.38-9.57-17.38s-9.57,5.82-9.59,17.38c0,11.73,3.75,17.6,9.59,17.6S531.09,320.38,531.06,308.65Z"/><polygon class="cls-4" points="319.2 553.8 742.64 732.02 507.4 345.64 319.2 553.8"/><circle class="cls-5" cx="317.73" cy="500.32" r="5.51"/><circle class="cls-5" cx="558.68" cy="273.85" r="5.51"/></g></svg>