<svg xmlns="http://www.w3.org/2000/svg" viewBox="0 0 1001 1001"><defs><style>.cls-1,.cls-3{fill:none;stroke-miterlimit:10;}.cls-1{stroke:#434343;}.cls-2{fill:#00afd9;}.cls-3{stroke:#00afd9;stroke-width:5px;}.cls-4{fill:#fff;}</style></defs><g id="Base"><line class="cls-1" x1="0.5" y1="1000.5" x2="36.86" y2="1000.5"/><line class="cls-1" x1="0.5" y1="1000.5" x2="0.5" y2="964.14"/><line class="cls-1" x1="1000.5" y1="0.5" x2="964.14" y2="0.5"/><line class="cls-1" x1="1000.5" y1="0.5" x2="1000.5" y2="36.86"/></g><g id="Level24"><path class="cls-2" d="M158.31,249.52h7c.13,2.4,2.42,4,5.47,4s5.4-1.79,5.38-4.4-2.3-4.49-6-4.49h-3.05v-5.08h3.05c3.15,0,5.34-1.74,5.32-4.31s-1.85-4.16-4.64-4.16-5.12,1.62-5.2,4.11H159c.1-5.65,5.15-9.58,11.86-9.58s11.29,4,11.28,9.21c0,3.68-2.51,6.27-6.17,6.92V242c4.81.6,7.4,3.51,7.38,7.59,0,5.59-5.24,9.63-12.59,9.63C163.53,259.22,158.42,255.24,158.31,249.52Z"/><path class="cls-2" d="M376.29,250.42a8.3,8.3,0,0,1,7.09-8.09v-.22a7.28,7.28,0,0,1-5.88-7.26c0-5.06,4.84-8.8,11.47-8.8s11.47,3.74,11.49,8.8a7.35,7.35,0,0,1-5.88,7.26v.22a8.38,8.38,0,0,1,7.09,8.09c0,5.3-5.32,9.25-12.7,9.25S376.27,255.72,376.29,250.42Zm18.18-.55c0-2.83-2.33-4.87-5.5-4.87s-5.49,2-5.49,4.87,2.2,4.72,5.49,4.72S394.47,252.65,394.47,249.87Zm-.77-14.3c0-2.54-1.95-4.31-4.73-4.31s-4.73,1.76-4.73,4.31a4.74,4.74,0,0,0,9.46,0Z"/><path class="cls-2" d="M273.08,463h-6.91V436.79H266l-7.49,4.7v-6.13l8.1-5.13h6.5Z"/><path class="cls-2" d="M280.55,453.7h7c.13,2.39,2.42,4,5.47,4s5.4-1.79,5.38-4.39-2.3-4.49-6-4.49H289.3v-5.08h3.06c3.14,0,5.33-1.74,5.32-4.31s-1.86-4.16-4.65-4.16-5.12,1.62-5.2,4.11H281.2c.1-5.66,5.15-9.59,11.86-9.59s11.29,4.06,11.28,9.22c0,3.67-2.51,6.26-6.17,6.92v.25c4.81.61,7.4,3.52,7.38,7.59,0,5.59-5.24,9.64-12.59,9.64C285.77,463.4,280.66,459.42,280.55,453.7Z"/><polygon class="cls-3" points="282.88 405.83 361.56 269.56 204.21 269.56 282.88 405.83"/><path class="cls-2" d="M592.82,344.1c0,11.1-5.21,17.65-13.31,17.65-6.55,0-11-4.17-11.66-9.68h6.82a4.63,4.63,0,0,0,4.84,3.76c4.27,0,6.52-3.95,6.54-10.44h-.22a9,9,0,0,1-8.25,4.62c-5.8,0-10-4.42-10.05-10.53,0-6.58,4.91-11.37,12.22-11.34C586.48,328.17,592.81,332.25,592.82,344.1Zm-18.58-4.81a5.48,5.48,0,0,0,5.5,5.7,5.71,5.71,0,0,0,.06-11.42A5.52,5.52,0,0,0,574.24,339.29Z"/><path class="cls-2" d="M790.29,361.75h-6.92V335.6h-.19l-7.49,4.7v-6.14l8.1-5.13h6.5Z"/><path class="cls-2" d="M797.58,350.55,811.24,329h8.66v21.43H824V356H819.9v5.75h-6.62V356h-15.7Zm15.83-14h-.25l-8.62,13.63v.26h8.87Z"/><path class="cls-2" d="M682.37,565.48h-6.92V539.33h-.19l-7.49,4.7v-6.14l8.1-5.13h6.5Z"/><path class="cls-2" d="M715.06,548.28c0,11.1-5.2,17.65-13.31,17.65-6.54,0-11-4.17-11.66-9.68h6.82a4.63,4.63,0,0,0,4.84,3.75c4.27,0,6.52-3.94,6.54-10.43h-.22a9,9,0,0,1-8.25,4.62c-5.8,0-10-4.43-10.05-10.53,0-6.58,4.91-11.38,12.23-11.34C708.72,532.35,715.05,536.42,715.06,548.28Zm-18.58-4.81a5.48,5.48,0,0,0,5.5,5.7,5.71,5.71,0,0,0,.06-11.42A5.51,5.51,0,0,0,696.48,543.47Z"/><polygon class="cls-3" points="692.17 508.37 770.85 372.1 613.49 372.1 692.17 508.37"/><path class="cls-2" d="M260.62,587.25c0-11,5.23-17.54,13.31-17.54,6.53,0,11,4.2,11.66,9.59h-6.82a4.63,4.63,0,0,0-4.84-3.66c-4.26,0-6.5,4-6.53,10.33h.22a9,9,0,0,1,8.24-4.61c5.8,0,10.08,4.42,10.07,10.56,0,6.66-4.95,11.44-12.24,11.4C267,603.29,260.61,599.23,260.62,587.25Zm18.6,4.86a5.5,5.5,0,0,0-5.51-5.75,5.65,5.65,0,0,0-5.61,5.76,5.56,5.56,0,1,0,11.12,0Z"/><path class="cls-2" d="M483.51,603.32h-6.92V577.17h-.19l-7.49,4.7v-6.14L477,570.6h6.51Z"/><path class="cls-2" d="M505.53,603.32h-6.92V577.17h-.19l-7.5,4.7v-6.14l8.1-5.13h6.51Z"/><path class="cls-4" d="M379.27,796.7c0-5.59,1.51-7.3,4.2-9,2-1.25,3.48-2.64,3.48-4.73a3.66,3.66,0,0,0-3.9-3.66,4,4,0,0,0-4.12,4h-6.52c.15-6.39,4.88-9.42,10.67-9.42,6.35,0,10.85,3.25,10.85,8.85,0,3.75-1.95,6.1-4.93,7.87-2.53,1.52-3.65,3-3.68,6.09v.54h-6.05Zm-.69,6.93a3.81,3.81,0,0,1,3.83-3.8,3.82,3.82,0,1,1,0,7.64A3.82,3.82,0,0,1,378.58,803.63Z"/><polygon class="cls-3" points="385.39 749.93 464.06 613.66 306.71 613.66 385.39 749.93"/></g></svg>