<svg xmlns="http://www.w3.org/2000/svg" viewBox="0 0 1001 1001"><defs><style>.cls-1,.cls-2{fill:none;stroke-miterlimit:10;}.cls-1{stroke:#434343;}.cls-2{stroke:#00afda;stroke-width:3px;}.cls-3{fill:#00afd9;}.cls-4{fill:#fff;}</style></defs><g id="Base"><line class="cls-1" x1="0.5" y1="1000.5" x2="36.86" y2="1000.5"/><line class="cls-1" x1="0.5" y1="1000.5" x2="0.5" y2="964.14"/><line class="cls-1" x1="1000.5" y1="0.5" x2="964.14" y2="0.5"/><line class="cls-1" x1="1000.5" y1="0.5" x2="1000.5" y2="36.86"/></g><g id="Level29"><rect class="cls-2" x="286.57" y="215.25" width="142.62" height="142.62"/><rect class="cls-2" x="429.19" y="215.25" width="142.62" height="142.62"/><rect class="cls-2" x="571.81" y="215.25" width="142.62" height="142.62"/><rect class="cls-2" x="286.57" y="357.88" width="142.62" height="142.62"/><rect class="cls-2" x="429.19" y="357.88" width="142.62" height="142.62"/><rect class="cls-2" x="571.81" y="357.88" width="142.62" height="142.62"/><rect class="cls-2" x="286.57" y="500.5" width="142.62" height="142.62"/><rect class="cls-2" x="429.19" y="500.5" width="142.62" height="142.62"/><rect class="cls-2" x="571.81" y="500.5" width="142.62" height="142.62"/><rect class="cls-2" x="286.57" y="643.12" width="142.62" height="142.62"/><rect class="cls-2" x="429.19" y="643.12" width="142.62" height="142.62"/><rect class="cls-2" x="571.81" y="643.12" width="142.62" height="142.62"/><path class="cls-3" d="M336.51,294.17h10.84c.19,3.73,3.75,6.22,8.5,6.22,4.92,0,8.4-2.79,8.37-6.84s-3.58-7-9.34-7h-4.75v-7.91h4.75c4.89,0,8.3-2.71,8.27-6.71,0-3.83-2.88-6.46-7.23-6.46s-7.95,2.51-8.08,6.39H337.53c.15-8.8,8-14.92,18.44-14.92s17.57,6.31,17.55,14.34c0,5.72-3.9,9.75-9.6,10.77v.39c7.49,1,11.51,5.47,11.49,11.81,0,8.7-8.15,15-19.59,15C344.64,309.26,336.68,303.07,336.51,294.17Z"/><path class="cls-3" d="M460.45,291.14l21.26-33.48h13.47V291h6.31v8.63h-6.31v8.94H484.89v-8.94H460.45Zm24.63-21.75h-.39l-13.4,21.2v.4h13.79Z"/><path class="cls-3" d="M508.67,300.81,526.8,284c4.62-4.45,7.1-7.23,7.1-11.28,0-4.48-3.33-7.26-7.8-7.26-4.65,0-7.73,3-7.71,7.85H508.18c0-10,7.31-16.38,18-16.38,10.92,0,18.12,6.24,18.12,15.06,0,5.8-2.8,10.57-13.27,20.11l-7.43,7.29v.34H545v8.8h-36.3Z"/><path class="cls-3" d="M647.87,308.56H637.1V267.87h-.3l-11.65,7.31v-9.54l12.6-8h10.12Z"/><path class="cls-3" d="M339.67,439.56h10.44c.25,3.95,3.7,6.64,8,6.64,5,0,8.65-3.66,8.65-8.95s-3.68-9.05-8.8-9.07a9.66,9.66,0,0,0-7.61,3.43l-9.57-1.72,2.41-26.84h31.12v8.8H352.05l-1.32,12.75h.3c1.79-2.51,5.64-4.38,10.11-4.38,9.18,0,16,7,16,16.76,0,10.29-7.68,17.67-19,17.67C347.55,454.65,339.87,448.36,339.67,439.56Z"/><path class="cls-3" d="M463,440.26a12.89,12.89,0,0,1,11-12.58v-.35a11.28,11.28,0,0,1-9.14-11.28c0-7.88,7.53-13.7,17.84-13.7s17.85,5.82,17.87,13.7a11.41,11.41,0,0,1-9.14,11.28v.35a13,13,0,0,1,11,12.58c0,8.25-8.27,14.39-19.76,14.39S462.94,448.51,463,440.26Zm28.28-.85c0-4.4-3.63-7.58-8.55-7.58s-8.55,3.18-8.55,7.58,3.43,7.34,8.55,7.34S491.25,443.74,491.25,439.41Zm-1.19-22.24c0-4-3-6.72-7.36-6.72s-7.35,2.74-7.35,6.72,3,6.83,7.35,6.83S490.06,421.19,490.06,417.17Z"/><path class="cls-3" d="M510,446.2l18.12-16.78c4.62-4.45,7.11-7.23,7.11-11.28,0-4.48-3.33-7.26-7.8-7.26-4.65,0-7.73,3-7.71,7.85H509.47c0-10,7.31-16.38,18-16.38,10.91,0,18.12,6.24,18.12,15.06,0,5.8-2.81,10.57-13.27,20.11l-7.44,7.29v.34h21.38V454H510Z"/><path class="cls-3" d="M627.71,439.56h10.84c.2,3.73,3.75,6.22,8.5,6.22,4.92,0,8.4-2.79,8.37-6.84s-3.57-7-9.34-7h-4.75v-7.91h4.75c4.9,0,8.3-2.71,8.28-6.71,0-3.83-2.89-6.46-7.24-6.46s-8,2.51-8.08,6.39H628.73c.15-8.8,8-14.92,18.44-14.92s17.58,6.32,17.55,14.34c0,5.72-3.9,9.75-9.59,10.77v.39c7.48.95,11.51,5.47,11.48,11.81,0,8.7-8.15,15-19.59,15C635.84,454.65,627.88,448.46,627.71,439.56Z"/><path class="cls-3" d="M338.62,577.4c.05-17.1,8.12-27.29,20.7-27.29,10.17,0,17.13,6.54,18.15,14.92H366.85c-.82-3.56-3.63-5.7-7.53-5.7-6.64,0-10.12,6.17-10.17,16.09h.35c2.29-4.5,7.24-7.19,12.83-7.19,9,0,15.68,6.89,15.66,16.43,0,10.37-7.71,17.8-19,17.75C348.48,602.36,338.59,596.05,338.62,577.4ZM367.55,585c0-5.05-3.61-9-8.58-9a8.79,8.79,0,0,0-8.72,9,8.66,8.66,0,1,0,17.3,0Z"/><path class="cls-3" d="M462.88,588a12.91,12.91,0,0,1,11-12.58v-.35a11.3,11.3,0,0,1-9.15-11.28c0-7.88,7.53-13.7,17.85-13.7s17.85,5.82,17.87,13.7a11.42,11.42,0,0,1-9.15,11.28v.35a13,13,0,0,1,11,12.58c0,8.25-8.28,14.39-19.76,14.39S462.86,596.27,462.88,588Zm28.29-.85c0-4.4-3.63-7.58-8.55-7.58s-8.55,3.18-8.55,7.58,3.43,7.33,8.55,7.33S491.17,591.5,491.17,587.17ZM490,564.93c0-4-3-6.72-7.36-6.72s-7.36,2.74-7.36,6.72,3.06,6.83,7.36,6.83S490,569,490,564.93Z"/><path class="cls-3" d="M509.12,584.29l21.25-33.48h13.47v33.33h6.31v8.63h-6.31v8.94H533.55v-8.94H509.12Zm24.63-21.75h-.4L520,583.74v.4h13.8Z"/><path class="cls-3" d="M628.12,594l18.12-16.78c4.63-4.45,7.11-7.23,7.11-11.28,0-4.48-3.33-7.26-7.8-7.26-4.65,0-7.73,3-7.71,7.85H627.63c0-10,7.3-16.38,18-16.38,10.91,0,18.12,6.24,18.12,15.06,0,5.8-2.81,10.57-13.27,20.11L643,592.57v.34h21.37v8.8H628.12Z"/><path class="cls-3" d="M338.64,719.91l21.25-33.48h13.47v33.33h6.32v8.63h-6.32v9H363.07v-9H338.64Zm24.63-21.75h-.39l-13.4,21.21v.39h13.79Z"/><path class="cls-4" d="M495.83,721.23c0-8.7,2.36-11.36,6.53-14,3.06-1.94,5.42-4.11,5.42-7.36,0-3.46-2.71-5.69-6.06-5.69a6.18,6.18,0,0,0-6.42,6.21H485.16c.23-9.94,7.58-14.67,16.61-14.67,9.86,0,16.87,5.08,16.87,13.77,0,5.85-3,9.5-7.68,12.26-3.92,2.36-5.66,4.62-5.71,9.47v.85h-9.42ZM494.76,732a5.93,5.93,0,0,1,6-5.92,5.94,5.94,0,1,1,0,11.88A5.94,5.94,0,0,1,494.76,732Z"/><path class="cls-3" d="M650.27,737.34H639.51V696.65h-.3L627.55,704v-9.54l12.6-8h10.12Z"/></g></svg>