<svg xmlns="http://www.w3.org/2000/svg" viewBox="0 0 1001 1001"><defs><style>.cls-1,.cls-2{fill:none;stroke-miterlimit:10;}.cls-1{stroke:#434343;}.cls-2{stroke:#00afd9;stroke-width:5px;}.cls-3{fill:#00afd9;}.cls-4{fill:#fff;}</style></defs><g id="Base"><line class="cls-1" x1="0.5" y1="1000.5" x2="36.86" y2="1000.5"/><line class="cls-1" x1="0.5" y1="1000.5" x2="0.5" y2="964.14"/><line class="cls-1" x1="1000.5" y1="0.5" x2="964.14" y2="0.5"/><line class="cls-1" x1="1000.5" y1="0.5" x2="1000.5" y2="36.86"/></g><g id="Level7"><rect class="cls-2" x="160.53" y="300.72" width="82.69" height="82.69"/><rect class="cls-2" x="351.58" y="300.72" width="82.69" height="82.69"/><rect class="cls-2" x="351.58" y="457.55" width="82.69" height="82.69"/><rect class="cls-2" x="542.63" y="300.72" width="82.69" height="82.69"/><polygon class="cls-2" points="226.67 455.95 177.08 455.95 152.28 498.9 177.08 541.85 226.67 541.85 251.47 498.9 226.67 455.95"/><polygon class="cls-2" points="417.72 614.38 368.13 614.38 343.33 657.33 368.13 700.28 417.72 700.28 442.52 657.33 417.72 614.38"/><path class="cls-3" d="M293,346.51H279.8v-8.89H293V324.47h8.9v13.15H315v8.89H301.85v13.15H293Z"/><path class="cls-3" d="M482.3,346.51H469.15v-8.89H482.3V324.47h8.89v13.15h13.15v8.89H491.19v13.15H482.3Z"/><path class="cls-3" d="M309,503.1H285.79v-8.4H309Z"/><path class="cls-3" d="M469.58,649.07h34.33v8.82H469.58Zm0,16.51h34.33v8.82H469.58Z"/><path class="cls-3" d="M469.58,491.7h34.33v8.83H469.58Zm0,16.51h34.33V517H469.58Z"/><path class="cls-3" d="M688.4,329.4h34.32v8.82H688.4Zm0,16.5h34.32v8.83H688.4Z"/><path class="cls-3" d="M761.54,345.27h10.84c.2,3.73,3.76,6.22,8.5,6.22,4.92,0,8.41-2.79,8.38-6.84s-3.58-7-9.35-7h-4.74v-7.9h4.74c4.9,0,8.31-2.71,8.28-6.71,0-3.83-2.88-6.46-7.23-6.46s-8,2.51-8.08,6.38H762.56c.15-8.79,8-14.91,18.45-14.91s17.57,6.31,17.55,14.34c0,5.72-3.91,9.75-9.6,10.77v.39c7.48.95,11.51,5.47,11.49,11.81,0,8.7-8.16,15-19.59,15C769.67,360.36,761.72,354.17,761.54,345.27Z"/><path class="cls-3" d="M807.6,334.26c0-16.68,7.78-26.2,20.56-26.2s20.58,9.55,20.56,26.2-7.76,26.52-20.56,26.52S807.55,351,807.6,334.26Zm30.13,0c0-11.56-3.78-17.38-9.57-17.38s-9.57,5.82-9.59,17.38c0,11.73,3.75,17.6,9.59,17.6S837.76,346,837.73,334.26Z"/><path class="cls-3" d="M546.93,512.08h10.44c.25,3.95,3.7,6.64,8,6.64,5,0,8.65-3.65,8.65-9s-3.68-9-8.8-9.07a9.69,9.69,0,0,0-7.61,3.43L548,502.41l2.41-26.84h31.13v8.8H559.31L558,497.12h.3c1.79-2.51,5.64-4.38,10.12-4.38,9.17,0,16,7,16,16.76,0,10.29-7.68,17.67-19,17.67C554.81,527.17,547.13,520.88,546.93,512.08Z"/><path class="cls-4" d="M556,672.9c0-8.7,2.36-11.36,6.54-14,3.06-1.94,5.42-4.1,5.42-7.36,0-3.45-2.71-5.69-6.07-5.69a6.18,6.18,0,0,0-6.41,6.21H545.29c.22-9.94,7.58-14.66,16.6-14.66,9.87,0,16.88,5.07,16.88,13.77,0,5.84-3,9.49-7.68,12.25-3.93,2.36-5.67,4.63-5.72,9.47v.85H556Zm-1.07,10.79a6,6,0,0,1,6-5.92,5.95,5.95,0,1,1,0,11.89A6,6,0,0,1,554.88,683.69Z"/></g></svg>