<svg xmlns="http://www.w3.org/2000/svg" viewBox="0 0 1001 1001"><defs><style>.cls-1,.cls-2{fill:none;stroke-miterlimit:10;}.cls-1{stroke:#434343;}.cls-2{stroke:#00afd9;stroke-width:5px;}.cls-3{fill:#00afd9;}.cls-4{fill:#fff;}</style></defs><g id="Base"><line class="cls-1" x1="0.5" y1="1000.5" x2="36.86" y2="1000.5"/><line class="cls-1" x1="0.5" y1="1000.5" x2="0.5" y2="964.14"/><line class="cls-1" x1="1000.5" y1="0.5" x2="964.14" y2="0.5"/><line class="cls-1" x1="1000.5" y1="0.5" x2="1000.5" y2="36.86"/></g><g id="Level12"><polygon class="cls-2" points="466.81 249.24 430.32 312.45 503.31 312.45 466.81 249.24"/><polygon class="cls-2" points="507.51 319.82 471.02 383.03 544.01 383.03 507.51 319.82"/><polygon class="cls-2" points="426.14 319.82 389.65 383.03 462.64 383.03 426.14 319.82"/><polygon class="cls-2" points="389.63 546.75 353.14 609.96 426.13 609.96 389.63 546.75"/><polygon class="cls-2" points="389.63 687.9 353.14 751.11 426.13 751.11 389.63 687.9"/><polygon class="cls-2" points="308.37 687.9 271.87 751.11 344.86 751.11 308.37 687.9"/><polygon class="cls-2" points="470.9 687.9 434.41 751.11 507.39 751.11 470.9 687.9"/><polygon class="cls-2" points="430.34 617.33 393.84 680.54 466.83 680.54 430.34 617.33"/><polygon class="cls-2" points="348.97 617.33 312.47 680.54 385.46 680.54 348.97 617.33"/><path class="cls-3" d="M630.2,321.28h34.33v8.82H630.2Zm0,16.5h34.33v8.82H630.2Z"/><path class="cls-3" d="M691.69,345h10.44c.25,4,3.71,6.64,8,6.64,5,0,8.65-3.65,8.65-8.95s-3.68-9.05-8.8-9.07a9.67,9.67,0,0,0-7.6,3.43l-9.57-1.72,2.41-26.84h31.12v8.8H704.07l-1.32,12.75h.3c1.79-2.51,5.65-4.37,10.12-4.37,9.17,0,16,7,16,16.75,0,10.29-7.68,17.67-19,17.67C699.57,360.1,691.89,353.81,691.69,345Z"/><path class="cls-3" d="M594.22,713h34.32v8.82H594.22Zm0,16.5h34.32v8.83H594.22Z"/><path class="cls-4" d="M664.73,735c0-8.7,2.37-11.36,6.54-14,3.06-1.94,5.42-4.1,5.42-7.36,0-3.45-2.71-5.69-6.07-5.69a6.18,6.18,0,0,0-6.41,6.21H654.07c.22-9.94,7.58-14.66,16.6-14.66,9.87,0,16.88,5.07,16.88,13.77,0,5.84-3,9.49-7.68,12.25-3.93,2.36-5.67,4.63-5.71,9.47v.85h-9.43Zm-1.07,10.79a6,6,0,0,1,6-5.92,5.95,5.95,0,1,1,0,11.89A6,6,0,0,1,663.66,745.79Z"/></g></svg>