<svg id="Coffee" xmlns="http://www.w3.org/2000/svg" viewBox="0 0 512 500"><defs><style>.cls-1{fill:#00afdb;}</style></defs><path class="cls-1" d="M368.85,260.33l2-8.69c0-3.23-56.43-5.85-126.25-5.88h-.89c-69.82,0-126.25,2.65-126.25,5.88l17.36,75.3a113.31,113.31,0,0,0,108.89,87.82v0h.89v0a113.69,113.69,0,0,0,86.49-41.9,60,60,0,1,0,37.75-112.53Zm-10.5,103a43.8,43.8,0,0,1-17.89-3.81,113.07,113.07,0,0,0,13-32.53l11.73-50.88a43.88,43.88,0,0,1-6.88,87.22Z"/><path class="cls-1" d="M238.38,217.44c14-17,19.95-39.88,13.3-54.66s-15.51-31-8.86-47.27,11.59-30.29,11.59-30.29-24.8,20.53-24.89,36.2c-.13,23.14,6.65,38.24,16.17,52.69C251.17,182.43,238.38,217.44,238.38,217.44Z"/><path class="cls-1" d="M273.92,229.76c9.49-11.49,13.48-27,9-37s-10.49-21-6-32,7.83-20.47,7.83-20.47S268,154.25,267.93,164.84c-.09,15.65,4.49,25.86,10.93,35.62C282.57,206.09,273.92,229.76,273.92,229.76Z"/><path class="cls-1" d="M205.65,225.69c-4.75-5.74-6.74-13.48-4.5-18.48s5.25-10.48,3-16S200.23,181,200.23,181s8.38,6.94,8.41,12.23A29.58,29.58,0,0,1,203.18,211C201.33,213.86,205.65,225.69,205.65,225.69Z"/></svg>