<svg id="Web" xmlns="http://www.w3.org/2000/svg" viewBox="0 0 512 464.57"><defs><style>.cls-1{fill:#00afda;}</style></defs><path class="cls-1" d="M317.58,232.29a232.68,232.68,0,0,0-3.92-42.88H262v85.75h51.62A232.66,232.66,0,0,0,317.58,232.29Z"/><path class="cls-1" d="M262,108.5v68.79H311C301.62,140.05,283.24,112.9,262,108.5Z"/><path class="cls-1" d="M262,356.08c21.17-4.41,39.55-31.56,48.91-68.78H262Z"/><path class="cls-1" d="M385.67,275.16a136.66,136.66,0,0,0,0-85.75H326.14a258.18,258.18,0,0,1,0,85.75Z"/><path class="cls-1" d="M188.32,177.29c11.21-48.45,37-81.57,67.68-81.57a136.6,136.6,0,0,0-125,81.57Z"/><path class="cls-1" d="M323.69,177.29H381A136.6,136.6,0,0,0,256,95.72C286.72,95.72,312.47,128.84,323.69,177.29Z"/><path class="cls-1" d="M249.93,108.5c-21.17,4.4-39.55,31.55-48.91,68.77h48.91Z"/><path class="cls-1" d="M323.69,287.3c-11.22,48.43-37,81.55-67.69,81.55A136.58,136.58,0,0,0,381,287.3Z"/><path class="cls-1" d="M188.32,287.3H131a136.58,136.58,0,0,0,125,81.55C225.32,368.85,199.53,335.73,188.32,287.3Z"/><path class="cls-1" d="M249.93,189.41H198.32a235.84,235.84,0,0,0,0,85.75H249.9Z"/><path class="cls-1" d="M249.93,356.08V287.3H201C210.38,324.52,228.76,351.67,249.93,356.08Z"/><path class="cls-1" d="M126.33,189.41a136.66,136.66,0,0,0,0,85.75h59.53a258.18,258.18,0,0,1,0-85.75Z"/></svg>