<svg xmlns="http://www.w3.org/2000/svg" xmlns:xlink="http://www.w3.org/1999/xlink" version="1.1" viewBox="0 0 256 256" xml:space="preserve">
<g style="stroke: none; stroke-width: 0; stroke-dasharray: none; stroke-linecap: butt; stroke-linejoin: miter; stroke-miterlimit: 10; fill: none; fill-rule: nonzero; opacity: 1;" transform="translate(1.4065934065934016 1.4065934065934016) scale(2.81 2.81)" >
	<path d="M 66.611 32.961 c -1.657 0 -3 -1.343 -3 -3 v -5.349 C 63.611 14.349 55.263 6 45 6 s -18.612 8.349 -18.612 18.612 v 5.349 c 0 1.657 -1.343 3 -3 3 s -3 -1.343 -3 -3 v -5.349 C 20.388 11.041 31.429 0 45 0 c 13.57 0 24.611 11.041 24.611 24.612 v 5.349 C 69.611 31.618 68.269 32.961 66.611 32.961 z" style="stroke: none; stroke-width: 1; stroke-dasharray: none; stroke-linecap: butt; stroke-linejoin: miter; stroke-miterlimit: 10; fill: #fff; fill-rule: nonzero; opacity: 1;" transform=" matrix(1 0 0 1 0 0) " stroke-linecap="round" />
	<circle cx="45" cy="58.44" r="6.5" style="stroke: none; stroke-width: 1; stroke-dasharray: none; stroke-linecap: butt; stroke-linejoin: miter; stroke-miterlimit: 10; fill: #fff; fill-rule: nonzero; opacity: 1;" transform="  matrix(1 0 0 1 0 0) "/>
	<path d="M 45 75.06 c -1.657 0 -3 -1.343 -3 -3 v -8.88 c 0 -1.657 1.343 -3 3 -3 c 1.657 0 3 1.343 3 3 v 8.88 C 48 73.717 46.657 75.06 45 75.06 z" style="stroke: none; stroke-width: 1; stroke-dasharray: none; stroke-linecap: butt; stroke-linejoin: miter; stroke-miterlimit: 10; fill: #fff; fill-rule: nonzero; opacity: 1;" transform=" matrix(1 0 0 1 0 0) " stroke-linecap="round" />
	<path d="M 45 90 c -17.996 0 -32.637 -14.641 -32.637 -32.637 V 40.646 c 0 -1.657 1.343 -3 3 -3 h 59.273 c 1.657 0 3 1.343 3 3 v 16.717 C 77.637 75.359 62.996 90 45 90 z M 18.363 43.646 v 13.717 C 18.363 72.051 30.313 84 45 84 s 26.637 -11.949 26.637 -26.637 V 43.646 H 18.363 z" style="stroke: none; stroke-width: 1; stroke-dasharray: none; stroke-linecap: butt; stroke-linejoin: miter; stroke-miterlimit: 10; fill: #fff; fill-rule: nonzero; opacity: 1;" transform=" matrix(1 0 0 1 0 0) " stroke-linecap="round" />
</g>
</svg>