<svg id="Backspace" xmlns="http://www.w3.org/2000/svg" viewBox="0 0 500.08 493.25"><defs><style>.cls-1{fill:#fff;}</style></defs><path class="cls-1" d="M202.27,141.29a24.28,24.28,0,0,0-17.21,7.15l-21.62,21.7-59.1,59.33a24.29,24.29,0,0,0,0,34.3l59.1,59.33,21.62,21.7A24.28,24.28,0,0,0,202.27,352H378.53a24.3,24.3,0,0,0,24.3-24.3V165.59a24.3,24.3,0,0,0-24.3-24.3ZM349.69,323.1H214A24.3,24.3,0,0,1,196.83,316l-4.65-4.65L144.65,263.8a24.29,24.29,0,0,1,0-34.36l52.18-52.18A24.3,24.3,0,0,1,214,170.14H349.69a24.3,24.3,0,0,1,24.3,24.3V298.8A24.3,24.3,0,0,1,349.69,323.1Z"/><path class="cls-1" d="M294.79,248.62l29.35-29.35a13.39,13.39,0,0,0,0-18.94h0a13.4,13.4,0,0,0-18.93,0l-29.36,29.36L246.5,200.33a13.4,13.4,0,0,0-18.93,0h0a13.39,13.39,0,0,0,0,18.94l29.35,29.35L227.57,278a13.39,13.39,0,0,0,0,18.94h0a13.4,13.4,0,0,0,18.93,0l29.35-29.36,29.36,29.36a13.4,13.4,0,0,0,18.93,0h0a13.39,13.39,0,0,0,0-18.94Z"/></svg>