<svg id="SLVZ" xmlns="http://www.w3.org/2000/svg" viewBox="0 0 500.08 464.57"><defs><style>.cls-1{fill:#00afda;}.cls-2{fill:#3570b8;}</style></defs><path class="cls-1" d="M136.54,219.88l-58.48.1,33.73-54.91,29,47.18a5,5,0,0,1-4.26,7.63Z"/><path class="cls-1" d="M6,220h72.1l-29.8,48.6A7.35,7.35,0,0,1,38.17,271a7.43,7.43,0,0,1-2.41-2.42Z"/><polygon class="cls-2" points="5.98 219.97 78.06 219.97 111.79 165.07 39.72 165.07 5.98 219.97"/><path class="cls-1" d="M15.28,285.05,73.76,285,40,339.87,11,292.68a5,5,0,0,1,4.27-7.63Z"/><path class="cls-1" d="M145.85,285H73.76l29.79-48.6a7.34,7.34,0,0,1,12.51,0Z"/><polygon class="cls-2" points="145.83 284.96 73.76 284.96 40.02 339.87 112.09 339.87 145.83 284.96"/><path class="cls-1" d="M171.89,211.15h27.22V317.43h55.18v22.44h-82.4Z"/><path class="cls-1" d="M312.8,308.94H314l31.17-97.79h30.17L331,339.87H295.9L251.46,211.15h30.23Z"/><path class="cls-1" d="M389.42,323.71l64.24-90.13H389.3V211.15h98.55V227.3l-64.3,90.13H488v22.44H389.42Z"/></svg>