<svg id="BackGround2" xmlns="http://www.w3.org/2000/svg" xmlns:xlink="http://www.w3.org/1999/xlink" viewBox="0 0 500.08 535.74"><defs><style>.cls-1,.cls-2,.cls-3,.cls-4,.cls-7,.cls-9{fill:#434343;}.cls-1{filter:url(#filter);}.cls-2{filter:url(#filter-2);}.cls-3{filter:url(#filter-3);}.cls-4{filter:url(#filter-4);}.cls-5,.cls-6,.cls-8{fill:none;stroke:#434444;stroke-miterlimit:10;stroke-width:5px;}.cls-5{filter:url(#filter-5);}.cls-6{filter:url(#filter-6);}.cls-7{filter:url(#filter-7);}.cls-8{filter:url(#filter-8);}.cls-9{filter:url(#filter-9);}</style><filter id="filter" x="318.52" y="0.78" width="174" height="164.88" filterUnits="userSpaceOnUse"><feOffset input="SourceAlpha"/><feGaussianBlur stdDeviation="8" result="blur"/><feFlood/><feComposite operator="in" in2="blur"/><feComposite in="SourceGraphic"/></filter><filter id="filter-2" x="214.84" y="63.42" width="174.24" height="164.88" filterUnits="userSpaceOnUse"><feOffset input="SourceAlpha"/><feGaussianBlur stdDeviation="8" result="blur-2"/><feFlood/><feComposite operator="in" in2="blur-2"/><feComposite in="SourceGraphic"/></filter><filter id="filter-3" x="318.52" y="122.7" width="174" height="164.88" filterUnits="userSpaceOnUse"><feOffset input="SourceAlpha"/><feGaussianBlur stdDeviation="8" result="blur-3"/><feFlood/><feComposite operator="in" in2="blur-3"/><feComposite in="SourceGraphic"/></filter><filter id="filter-4" x="111.16" y="124.86" width="174.24" height="164.64" filterUnits="userSpaceOnUse"><feOffset input="SourceAlpha"/><feGaussianBlur stdDeviation="8" result="blur-4"/><feFlood/><feComposite operator="in" in2="blur-4"/><feComposite in="SourceGraphic"/></filter><filter id="filter-5" x="108.76" y="0" width="179.04" height="169.92" filterUnits="userSpaceOnUse"><feOffset input="SourceAlpha"/><feGaussianBlur stdDeviation="8" result="blur-5"/><feFlood/><feComposite operator="in" in2="blur-5"/><feComposite in="SourceGraphic"/></filter><filter id="filter-6" x="212.44" y="184.56" width="179.04" height="169.92" filterUnits="userSpaceOnUse"><feOffset input="SourceAlpha"/><feGaussianBlur stdDeviation="8" result="blur-6"/><feFlood/><feComposite operator="in" in2="blur-6"/><feComposite in="SourceGraphic"/></filter><filter id="filter-7" x="111.16" y="247.74" width="174.24" height="164.88" filterUnits="userSpaceOnUse"><feOffset input="SourceAlpha"/><feGaussianBlur stdDeviation="8" result="blur-7"/><feFlood/><feComposite operator="in" in2="blur-7"/><feComposite in="SourceGraphic"/></filter><filter id="filter-8" x="5.08" y="306.48" width="179.04" height="169.92" filterUnits="userSpaceOnUse"><feOffset input="SourceAlpha"/><feGaussianBlur stdDeviation="8" result="blur-8"/><feFlood/><feComposite operator="in" in2="blur-8"/><feComposite in="SourceGraphic"/></filter><filter id="filter-9" x="111.16" y="370.86" width="174.24" height="164.88" filterUnits="userSpaceOnUse"><feOffset input="SourceAlpha"/><feGaussianBlur stdDeviation="8" result="blur-9"/><feFlood/><feComposite operator="in" in2="blur-9"/><feComposite in="SourceGraphic"/></filter></defs><path class="cls-1" d="M440.33,136.8l27-49a9.28,9.28,0,0,0,0-8.94l-27-49A9.26,9.26,0,0,0,432.22,25H378.91a9.26,9.26,0,0,0-8.12,4.79l-27,49a9.28,9.28,0,0,0,0,8.94l27,49a9.28,9.28,0,0,0,8.12,4.79h53.31A9.28,9.28,0,0,0,440.33,136.8Z"/><path class="cls-2" d="M336.71,199.43l27-49a9.23,9.23,0,0,0,0-8.94l-27-49a9.27,9.27,0,0,0-8.11-4.8H275.29a9.27,9.27,0,0,0-8.11,4.8l-27,49a9.23,9.23,0,0,0,0,8.94l27,49a9.26,9.26,0,0,0,8.11,4.79H328.6A9.26,9.26,0,0,0,336.71,199.43Z"/><path class="cls-3" d="M440.33,258.55l27-49a9.28,9.28,0,0,0,0-8.94l-27-49a9.28,9.28,0,0,0-8.11-4.79H378.91a9.28,9.28,0,0,0-8.12,4.79l-27,49a9.28,9.28,0,0,0,0,8.94l27,49a9.28,9.28,0,0,0,8.12,4.79h53.31A9.28,9.28,0,0,0,440.33,258.55Z"/><path class="cls-4" d="M233.1,260.68l27-49a9.28,9.28,0,0,0,0-8.94l-27-49a9.26,9.26,0,0,0-8.12-4.79H171.67a9.26,9.26,0,0,0-8.11,4.79l-27,49a9.28,9.28,0,0,0,0,8.94l27,49a9.28,9.28,0,0,0,8.11,4.79H225A9.28,9.28,0,0,0,233.1,260.68Z"/><path class="cls-5" d="M233.1,138.43l27-49a9.28,9.28,0,0,0,0-8.94l-27-49A9.28,9.28,0,0,0,225,26.62H171.67a9.28,9.28,0,0,0-8.11,4.79l-27,49a9.28,9.28,0,0,0,0,8.94l27,49a9.26,9.26,0,0,0,8.11,4.79H225A9.26,9.26,0,0,0,233.1,138.43Z"/><path class="cls-6" d="M336.71,323.07l27-49a9.23,9.23,0,0,0,0-8.94l-27-49a9.26,9.26,0,0,0-8.11-4.79H275.29a9.26,9.26,0,0,0-8.11,4.79l-27,49a9.23,9.23,0,0,0,0,8.94l27,49a9.27,9.27,0,0,0,8.11,4.8H328.6A9.27,9.27,0,0,0,336.71,323.07Z"/><path class="cls-7" d="M233.1,383.74l27-49a9.28,9.28,0,0,0,0-8.94l-27-49a9.26,9.26,0,0,0-8.12-4.79H171.67a9.26,9.26,0,0,0-8.11,4.79l-27,49a9.28,9.28,0,0,0,0,8.94l27,49a9.28,9.28,0,0,0,8.11,4.79H225A9.28,9.28,0,0,0,233.1,383.74Z"/><path class="cls-8" d="M129.29,444.88l27-49a9.28,9.28,0,0,0,0-8.94l-27-49a9.26,9.26,0,0,0-8.12-4.79H67.87a9.26,9.26,0,0,0-8.12,4.79l-27,49a9.28,9.28,0,0,0,0,8.94l27,49a9.27,9.27,0,0,0,8.12,4.8h53.3A9.27,9.27,0,0,0,129.29,444.88Z"/><path class="cls-9" d="M233.1,506.8l27-49a9.28,9.28,0,0,0,0-8.94l-27-49A9.26,9.26,0,0,0,225,395H171.67a9.26,9.26,0,0,0-8.11,4.79l-27,49a9.28,9.28,0,0,0,0,8.94l27,49a9.28,9.28,0,0,0,8.11,4.79H225A9.28,9.28,0,0,0,233.1,506.8Z"/></svg>